<svg height="500" id="sbv1" width="1600" xmlns="http://www.w3.org/2000/svg" xmlns:svg="http://www.w3.org/2000/svg" xmlns:xlink="http://www.w3.org/1999/xlink">
	<title id="sbv-title">The graph of SBV tree</title>
	<desc id="sbv-desc">This graph was generated by SBV which was written by Peng. E-mail is aipeng0520@163.com</desc>
	<defs id="defs2">
		<marker class="arrow" id="marker6" markerHeight="10" markerUnits="strokeWidth" markerWidth="20" orient="auto" refX="20" refY="5" style="fill:#ff0000">
			<path d="M0,0 L20,5 L0,10 L10,5 z" />
		</marker>
		<marker class="arrow" id="marker7" markerHeight="10" markerUnits="strokeWidth" markerWidth="20" orient="auto" refX="20" refY="5" style="fill:#ff0000">
			<path d="M0,0 L20,5 L0,10 L10,5 z" />
		</marker>
		<symbol class="symbol" id="symbol8" viewBox="0 0 60.2 24.85">
			<polygon points="1,12.425 20.4,1 59.2,6.7125 59.2,18.1375 20.4,23.85 " style="fill: #ef3b2c; stroke: #000000; stroke-width: 1" />
		</symbol>
		<symbol class="symbol" id="symbol9" viewBox="0 0 40.2 24.85">
			<polygon points="1,12.425 13.7333333333333,1 39.2,6.7125 39.2,18.1375 13.7333333333333,23.85 " style="fill: #ef3b2c; stroke: #000000; stroke-width: 1" />
		</symbol>
		<symbol class="symbol" id="symbol10" viewBox="0 0 60.2 24.85">
			<polygon points="59.2,1 59.2,23.85 23.85,23.85 1,12.425 23.85,1 " style="fill: #fb6a4a; stroke: #000000; stroke-width: 1" />
		</symbol>
		<symbol class="symbol" id="symbol11" viewBox="0 0 80.2 24.85">
			<polygon points="1,12.425 79.2,1 79.2,23.85 " style="fill: #6baed6; stroke: #000000; stroke-width: 1" />
		</symbol>
		<symbol class="symbol" id="symbol12" viewBox="0 0 100.2 24.85">
			<polygon points="1,6.7125 66.4666666666667,1 99.2,12.425 66.4666666666667,23.85 1,18.1375 " style="fill: #fff450; stroke: #000000; stroke-width: 1" />
		</symbol>
		<symbol class="symbol" id="symbol13" viewBox="0 0 96.2 24.85">
			<polygon points="95.2,1 95.2,23.85 23.85,23.85 1,12.425 23.85,1 " style="fill: #fb6a4a; stroke: #000000; stroke-width: 1" />
		</symbol>
		<symbol class="symbol" id="symbol14" viewBox="0 0 60.2 24.85">
			<polygon points="1,1 36.35,1 59.2,12.425 36.35,23.85 1,23.85 " style="fill: #74c476; stroke: #000000; stroke-width: 1" />
		</symbol>
		<symbol class="symbol" id="symbol15" viewBox="0 0 90.2 24.85">
			<polygon points="1,6.7125 59.8,1 89.2,12.425 59.8,23.85 1,18.1375 " style="fill: #fff450; stroke: #000000; stroke-width: 1" />
		</symbol>
		<symbol class="symbol" id="symbol16" viewBox="0 0 36.2 24.85">
			<polygon points="1,1 35.2,12.425 1,23.85 " style="fill: #9e9ac8; stroke: #000000; stroke-width: 1" />
		</symbol>
		<symbol class="symbol" id="symbol17" viewBox="0 0 60.2 24.85">
			<polygon points="1,12.425 59.2,1 59.2,23.85 " style="fill: #6baed6; stroke: #000000; stroke-width: 1" />
		</symbol>
		<symbol class="symbol" id="symbol18" viewBox="0 0 80.2 24.85">
			<polygon points="1,1 56.35,1 79.2,12.425 56.35,23.85 1,23.85 " style="fill: #74c476; stroke: #000000; stroke-width: 1" />
		</symbol>
		<symbol class="symbol" id="symbol19" viewBox="0 0 80.2 24.85">
			<polygon points="1,12.425 27.0666666666667,1 79.2,6.7125 79.2,18.1375 27.0666666666667,23.85 " style="fill: #ef3b2c; stroke: #000000; stroke-width: 1" />
		</symbol>
		<style type="text/css"><![CDATA[circle.marker {
stroke-width: 0;
fill-opacity: 0.7;
}

path.clade {
fill: none;
stroke: #000000;
stroke-width: 1;
fill-opacity: 1;
}

path.heatmap {
stroke: #000000;
stroke-width: 0;
}

path.pie {
stroke-width: 0;
fill-opacity: 0.7;
}

path.range {
fill-opacity: 1;
stroke-width: 0;
fill: none;
stroke: #000000;
}

path.marker {
stroke: #000000;
stroke-width: 0;
}

path.selectot {
stroke: #000000;
stroke-width: 1;
}

marker.arrow {
stroke: #000000;
fill: #000000;
stroke-width: 0;
}

line.tail {
stroke-width: 1;
stroke: #000000;
}

line.scale {
stroke-width: 2;
stroke: #000000;
}

line.hgt {
stroke-width: 1;
}

line.clade {
stroke: #000000;
}

line {
stroke: #000000;
stroke-width: 1;
}

line.linkage {
stroke-width: 1;
stroke: #444444;
stroke-dasharray: 4 4;
}

rect.heatmap {
stroke-width: 0;
stroke: #000000;
}

rect.marker {
stroke: #000000;
stroke-width: 0;
}

rect {
fill: none;
stroke: #000000;
stroke-width: 1;
}

rect.range {
fill-opacity: 1;
stroke: #000000;
fill: none;
stroke-width: 0;
}

rect.selectot {
stroke: #000000;
stroke-width: 1;
}

svg {
stroke: #000000;
fill: none;
stroke-width: 1;
fill-opacity: 1;
}

text.clade_id {
font-style: normal;
font-weight: bold;
dominant-baseline: middle;
font-size: 14px;
}

text.scale {
font-weight: bold;
}

text.leaf {
font-size: 14px;
font-style: normal;
font-weight: bold;
}

text {
stroke-width: 0;
font-style: normal;
font-weight: normal;
fill: #000000;
font-family: Arial;
font-size: 12px;
fill-opacity: 1;
}

]]></style>
	</defs>
	<g class="border" id="g3" />
	<rect class="background" height="460" style="fill: #eeeeee; stroke-width: 0" width="1560" x="20" y="20" />
	<g id="tree4">
		<line class="scale" x1="20" x2="89.25" y1="24.38" y2="24.38" />
		<text class="scale" x="93.25" y="28.76">2Mya</text>
	</g>
	<g id="tree5">
		<rect class="range" height="144.97" style="fill:#0000ff" width="42.76" x="337.24" y="107.22" />
		<rect class="range" height="82.84" style="fill:#00ff00" width="42.76" x="337.24" y="231.48" />
		<rect class="range" height="41.42" style="fill:#00ffff;stroke:#00ffff" width="42.76" x="337.24" y="65.8" />
		<line class="leaf" id="node_1" x1="30" x2="329.42" y1="86.51" y2="86.51" />
		<text class="leaf" x="337.24" y="91.62">MG</text>
		<rect class="range" height="41.42" style="fill:#004499;stroke:#004499" width="42.76" x="337.24" y="107.22" />
		<line class="leaf" id="node_2" style="stroke:#ff00cc" x1="69.18" x2="316.35" y1="127.93" y2="127.93" />
		<line class="linkage" x1="316.35" x2="333.24" y1="127.93" y2="127.93" />
		<text class="leaf" x="337.24" y="133.04">AG1IA</text>
		<rect class="range" height="41.42" width="10" x="116.85" y="148.64" />
		<line class="leaf" id="node_3" style="stroke:#ff00cc" x1="116.85" x2="301.59" y1="169.35" y2="169.35" />
		<line class="linkage" x1="301.59" x2="333.24" y1="169.35" y2="169.35" />
		<text class="leaf" x="337.24" y="174.46">CC</text>
		<rect class="range" height="41.42" width="10" x="116.85" y="190.06" />
		<line class="leaf" id="node_4" style="stroke:#ff00cc" x1="116.85" x2="303.01" y1="210.77" y2="210.77" />
		<line class="linkage" x1="303.01" x2="333.24" y1="210.77" y2="210.77" />
		<text class="leaf" x="337.24" y="215.88">LB</text>
		<rect class="range" height="82.84" width="10" x="116.85" y="148.64" />
		<line class="clade" style="stroke:#ff00cc" x1="116.85" x2="116.85" y1="169.35" y2="210.77" />
		<line class="clade" id="node_5" style="stroke:#ff00cc" x1="97.75" x2="116.85" y1="190.06" y2="190.06" />
		<text class="bootstrap" x="92.83" y="202.82">100</text>
		<rect class="range" height="41.42" width="10" x="118.18" y="231.48" />
		<line class="leaf" id="node_6" style="stroke:#ff00cc" x1="118.18" x2="289.89" y1="252.19" y2="252.19" />
		<line class="linkage" x1="289.89" x2="333.24" y1="252.19" y2="252.19" />
		<text class="leaf" x="337.24" y="257.3">PC</text>
		<rect class="range" height="41.42" width="10" x="118.18" y="272.9" />
		<line class="leaf" id="node_7" style="stroke:#ff00cc" x1="118.18" x2="294.74" y1="293.61" y2="293.61" />
		<line class="linkage" x1="294.74" x2="333.24" y1="293.61" y2="293.61" />
		<text class="leaf" x="337.24" y="298.72">PP</text>
		<line class="clade" style="stroke:#ff00cc" x1="118.18" x2="118.18" y1="252.19" y2="293.61" />
		<line class="clade" id="node_8" style="stroke:#ff00cc" x1="97.75" x2="118.18" y1="272.9" y2="272.9" />
		<text class="bootstrap" x="94.16" y="285.66">100</text>
		<rect class="range" height="124.26" width="10" x="97.75" y="169.35" />
		<line class="clade" style="stroke:#ff00cc" x1="97.75" x2="97.75" y1="190.06" y2="272.9" />
		<line class="clade" id="node_9" style="stroke:#ff00cc" x1="69.18" x2="97.75" y1="231.48" y2="231.48" />
		<text class="bootstrap" x="73.73" y="244.24">100</text>
		<line class="clade" style="stroke:#ff00cc" x1="69.18" x2="69.18" y1="127.93" y2="231.48" />
		<line class="clade" id="node_10" style="stroke:#ff00cc" x1="49.02" x2="69.18" y1="179.705" y2="179.705" />
		<text class="bootstrap" x="45.16" y="192.465">100</text>
		<rect class="range" height="41.42" width="10" x="49.02" y="314.32" />
		<line class="leaf" id="node_11" x1="49.02" x2="315.22" y1="335.03" y2="335.03" />
		<line class="linkage" x1="315.22" x2="333.24" y1="335.03" y2="335.03" />
		<text class="leaf" x="337.24" y="340.14">CN</text>
		<rect class="range" height="196.745" width="10" x="49.02" y="158.995" />
		<line class="clade" x1="49.02" x2="49.02" y1="179.705" y2="335.03" />
		<line class="clade" id="node_12" x1="44.1" x2="49.02" y1="257.3675" y2="257.3675" />
		<text class="bootstrap" x="31.68" y="270.1275">62</text>
		<rect class="range" height="41.42" width="10" x="121.64" y="355.74" />
		<line class="leaf" id="node_13" x1="121.64" x2="333.24" y1="376.45" y2="376.45" />
		<text class="leaf" style="font-size:14px;font-family:Arial;font-style:normal;fill:#ff0000;font-weight:bold;" x="337.24" y="381.56">ML</text>
		<rect class="range" height="41.42" width="10" x="121.64" y="397.16" />
		<line class="leaf" id="node_14" x1="121.64" x2="327.9" y1="417.87" y2="417.87" />
		<line class="linkage" x1="327.9" x2="333.24" y1="417.87" y2="417.87" />
		<text class="leaf" style="font-family:Arial;font-size:14px;font-weight:bold;fill:#ff0000;font-style:normal;" x="337.24" y="422.98">PG</text>
		<rect class="range" height="82.84" width="10" x="121.64" y="355.74" />
		<line class="clade" x1="121.64" x2="121.64" y1="376.45" y2="417.87" />
		<line class="clade" id="node_15" x1="44.1" x2="121.64" y1="397.16" y2="397.16" />
		<text class="bootstrap" x="97.62" y="409.92">100</text>
		<rect class="range" height="181.2125" width="10" x="44.1" y="236.6575" />
		<line class="clade" x1="44.1" x2="44.1" y1="257.3675" y2="397.16" />
		<line class="clade" id="node_16" x1="36.98" x2="44.1" y1="327.26375" y2="327.26375" />
		<text class="bootstrap" x="20.08" y="340.02375">100</text>
		<rect class="range" height="41.42" width="10" x="36.98" y="438.58" />
		<line class="leaf" id="node_17" x1="36.98" x2="301.31" y1="459.29" y2="459.29" />
		<line class="linkage" x1="301.31" x2="333.24" y1="459.29" y2="459.29" />
		<text class="leaf" style="fill:#44ffcc;font-style:normal;font-weight:bold;font-size:14px;font-family:Arial;" x="337.24" y="464.4">UM</text>
		<rect class="range" height="173.44625" width="10" x="36.98" y="306.55375" />
		<line class="clade" x1="36.98" x2="36.98" y1="327.26375" y2="459.29" />
		<line class="clade" id="node_18" x1="30" x2="36.98" y1="393.276875" y2="393.276875" />
		<text class="bootstrap" x="12.96" y="406.036875">100</text>
		<rect class="range" height="348.186875" width="10" x="30" y="65.8" />
		<line class="clade" x1="30" x2="30" y1="86.51" y2="393.276875" />
		<line class="tail" id="node_19" x1="20" x2="30" y1="239.8934375" y2="239.8934375" />
		<line class="hgt" marker-end="url(#marker6)" style="stroke:#ff0000" x1="179.71" x2="209.22" y1="86.51" y2="169.35" />
		<line class="hgt" marker-end="url(#marker7)" style="stroke:#ff0000" x1="107.965" x2="224.77" y1="272.9" y2="417.87" />
		<rect class="marker" height="24.852" style="fill:#fb6a4a;" width="14" x="388" y="281.184" />
		<rect class="marker" height="24.852" style="fill:#fb6a4a;" width="14" x="388" y="115.504" />
		<rect class="marker" height="24.852" style="fill:#fb6a4a;" width="14" x="388" y="198.344" />
		<rect class="marker" height="24.852" style="fill:#fb6a4a;" width="14" x="388" y="156.924" />
		<rect class="marker" height="24.852" style="fill:#fb6a4a;" width="14" x="388" y="239.764" />
		<rect class="marker" height="24.852" style="fill:#fff450;" width="14" x="388" y="446.864" />
		<rect class="marker" height="24.852" style="fill:#6baed6;" width="14" x="388" y="322.604" />
		<rect class="marker" height="24.852" style="fill:#74c476;" width="14" x="388" y="74.084" />
		<rect class="marker" height="24.852" style="fill:#6baed6;" width="14" x="388" y="405.444" />
		<rect class="marker" height="24.852" style="fill:#000000;" width="14" x="388" y="364.024" />
		<g class="axis" transform="translate(440,61.8)">
			<g  />
		</g>
		<rect class="marker" height="24.852" style="fill:#74c476" width="60" x="440" y="364.024" />
		<rect class="marker" height="24.852" style="fill:#74c476" width="20" x="440" y="405.444" />
		<rect class="marker" height="24.852" style="fill:#74c476" width="200" x="440" y="74.084" />
		<rect class="marker" height="24.852" style="fill:#74c476" width="120" x="440" y="156.924" />
		<rect class="marker" height="24.852" style="fill:#74c476" width="140" x="440" y="115.504" />
		<rect class="marker" height="24.852" style="fill:#74c476" width="110" x="440" y="198.344" />
		<rect class="marker" height="24.852" style="fill:#74c476" width="80" x="440" y="281.184" />
		<rect class="marker" height="24.852" style="fill:#74c476" width="180" x="440" y="446.864" />
		<rect class="marker" height="24.852" style="fill:#74c476" width="160" x="440" y="322.604" />
		<rect class="marker" height="24.852" style="fill:#74c476" width="100" x="440" y="239.764" />
		<g class="axis" transform="translate(648,61.8)">
			<g  />
		</g>
		<rect class="marker" height="24.852" style="fill:#fb6a4a" width="60" x="648" y="322.604" />
		<rect class="marker" height="24.852" style="fill:#fb6a4a" width="67.5" x="648" y="446.864" />
		<rect class="marker" height="24.852" style="fill:#fb6a4a" width="37.5" x="648" y="239.764" />
		<rect class="marker" height="24.852" style="fill:#fb6a4a" width="45" x="648" y="156.924" />
		<rect class="marker" height="24.852" style="fill:#fb6a4a" width="41.25" x="648" y="198.344" />
		<rect class="marker" height="24.852" style="fill:#fb6a4a" width="30" x="648" y="281.184" />
		<rect class="marker" height="24.852" style="fill:#fb6a4a" width="52.5" x="648" y="115.504" />
		<rect class="marker" height="24.852" style="fill:#fb6a4a" width="22.5" x="648" y="364.024" />
		<rect class="marker" height="24.852" style="fill:#fb6a4a" width="75" x="648" y="74.084" />
		<rect class="marker" height="24.852" style="fill:#fb6a4a" width="7.5" x="648" y="405.444" />
		<g class="axis" transform="translate(723,61.8)">
			<g  />
		</g>
		<rect class="marker" height="24.852" style="fill:#74c476" width="0" x="723" y="322.604" />
		<rect class="marker" height="24.852" style="fill:#74c476" width="9.38" x="723" y="446.864" />
		<rect class="marker" height="24.852" style="fill:#74c476" width="56.25" x="723" y="239.764" />
		<rect class="marker" height="24.852" style="fill:#74c476" width="18.75" x="723" y="156.924" />
		<rect class="marker" height="24.852" style="fill:#74c476" width="65.62" x="723" y="198.344" />
		<rect class="marker" height="24.852" style="fill:#74c476" width="46.88" x="723" y="281.184" />
		<rect class="marker" height="24.852" style="fill:#74c476" width="46.88" x="723" y="115.504" />
		<rect class="marker" height="24.852" style="fill:#74c476" width="0" x="723" y="364.024" />
		<rect class="marker" height="24.852" style="fill:#74c476" width="18.75" x="723" y="74.084" />
		<rect class="marker" height="24.852" style="fill:#74c476" width="75" x="723" y="405.444" />
		<g class="axis" transform="translate(798,61.8)">
			<g  />
		</g>
		<rect class="marker" height="24.852" style="fill:#fff450" width="60" x="798" y="322.604" />
		<rect class="marker" height="24.852" style="fill:#fff450" width="7.5" x="798" y="446.864" />
		<rect class="marker" height="24.852" style="fill:#fff450" width="75" x="798" y="239.764" />
		<rect class="marker" height="24.852" style="fill:#fff450" width="22.5" x="798" y="156.924" />
		<rect class="marker" height="24.852" style="fill:#fff450" width="15" x="798" y="198.344" />
		<rect class="marker" height="24.852" style="fill:#fff450" width="7.5" x="798" y="281.184" />
		<rect class="marker" height="24.852" style="fill:#fff450" width="30" x="798" y="115.504" />
		<rect class="marker" height="24.852" style="fill:#fff450" width="9" x="798" y="364.024" />
		<rect class="marker" height="24.852" style="fill:#fff450" width="0" x="798" y="74.084" />
		<rect class="marker" height="24.852" style="fill:#fff450" width="33.75" x="798" y="405.444" />
		<g class="axis" transform="translate(873,61.8)">
			<g  />
		</g>
		<rect class="marker" height="24.852" style="fill:#6baed6" width="30" x="873" y="322.604" />
		<rect class="marker" height="24.852" style="fill:#6baed6" width="75" x="873" y="446.864" />
		<rect class="marker" height="24.852" style="fill:#6baed6" width="15" x="873" y="239.764" />
		<rect class="marker" height="24.852" style="fill:#6baed6" width="24.75" x="873" y="156.924" />
		<rect class="marker" height="24.852" style="fill:#6baed6" width="67.5" x="873" y="198.344" />
		<rect class="marker" height="24.852" style="fill:#6baed6" width="30" x="873" y="281.184" />
		<rect class="marker" height="24.852" style="fill:#6baed6" width="37.5" x="873" y="115.504" />
		<rect class="marker" height="24.852" style="fill:#6baed6" width="52.5" x="873" y="364.024" />
		<rect class="marker" height="24.852" style="fill:#6baed6" width="9" x="873" y="74.084" />
		<rect class="marker" height="24.852" style="fill:#6baed6" width="60" x="873" y="405.444" />
		<rect class="heatmap" height="41.42" style="fill:#d28557" width="50" x="956" y="355.74" />
		<rect class="heatmap" height="41.42" style="fill:#e07c52" width="50" x="1006" y="355.74" />
		<rect class="heatmap" height="41.42" style="fill:#ea744f" width="50" x="1056" y="355.74" />
		<rect class="heatmap" height="41.42" style="fill:#9ca968" width="50" x="1106" y="355.74" />
		<rect class="heatmap" height="41.42" style="fill:#74c476" width="50" x="956" y="65.8" />
		<rect class="heatmap" height="41.42" style="fill:#c58e5b" width="50" x="1006" y="65.8" />
		<rect class="heatmap" height="41.42" style="fill:#fb6a4a" width="50" x="1056" y="65.8" />
		<rect class="heatmap" height="41.42" style="fill:#ea744f" width="50" x="1106" y="65.8" />
		<rect class="heatmap" height="41.42" style="fill:#ed734e" width="50" x="956" y="397.16" />
		<rect class="heatmap" height="41.42" style="fill:#74c476" width="50" x="1006" y="397.16" />
		<rect class="heatmap" height="41.42" style="fill:#be925d" width="50" x="1056" y="397.16" />
		<rect class="heatmap" height="41.42" style="fill:#8fb26d" width="50" x="1106" y="397.16" />
		<rect class="heatmap" height="41.42" style="fill:#81bb71" width="50" x="956" y="438.58" />
		<rect class="heatmap" height="41.42" style="fill:#d28557" width="50" x="1006" y="438.58" />
		<rect class="heatmap" height="41.42" style="fill:#ed734e" width="50" x="1056" y="438.58" />
		<rect class="heatmap" height="41.42" style="fill:#74c476" width="50" x="1106" y="438.58" />
		<rect class="heatmap" height="41.42" style="fill:#8fb26d" width="50" x="956" y="314.32" />
		<rect class="heatmap" height="41.42" style="fill:#e07c52" width="50" x="1006" y="314.32" />
		<rect class="heatmap" height="41.42" style="fill:#8fb26d" width="50" x="1056" y="314.32" />
		<rect class="heatmap" height="41.42" style="fill:#c58e5b" width="50" x="1106" y="314.32" />
		<rect class="heatmap" height="41.42" style="fill:#b79760" width="50" x="956" y="231.48" />
		<rect class="heatmap" height="41.42" style="fill:#8fb26d" width="50" x="1006" y="231.48" />
		<rect class="heatmap" height="41.42" style="fill:#74c476" width="50" x="1056" y="231.48" />
		<rect class="heatmap" height="41.42" style="fill:#e07c52" width="50" x="1106" y="231.48" />
		<rect class="heatmap" height="41.42" style="fill:#aaa064" width="50" x="956" y="148.64" />
		<rect class="heatmap" height="41.42" style="fill:#c58e5b" width="50" x="1006" y="148.64" />
		<rect class="heatmap" height="41.42" style="fill:#d28557" width="50" x="1056" y="148.64" />
		<rect class="heatmap" height="41.42" style="fill:#ce8758" width="50" x="1106" y="148.64" />
		<rect class="heatmap" height="41.42" style="fill:#9ca968" width="50" x="956" y="107.22" />
		<rect class="heatmap" height="41.42" style="fill:#9ca968" width="50" x="1006" y="107.22" />
		<rect class="heatmap" height="41.42" style="fill:#c58e5b" width="50" x="1056" y="107.22" />
		<rect class="heatmap" height="41.42" style="fill:#b79760" width="50" x="1106" y="107.22" />
		<rect class="heatmap" height="41.42" style="fill:#b09b62" width="50" x="956" y="190.06" />
		<rect class="heatmap" height="41.42" style="fill:#81bb71" width="50" x="1006" y="190.06" />
		<rect class="heatmap" height="41.42" style="fill:#e07c52" width="50" x="1056" y="190.06" />
		<rect class="heatmap" height="41.42" style="fill:#81bb71" width="50" x="1106" y="190.06" />
		<rect class="heatmap" height="41.42" style="fill:#c58e5b" width="50" x="956" y="272.9" />
		<rect class="heatmap" height="41.42" style="fill:#9ca968" width="50" x="1006" y="272.9" />
		<rect class="heatmap" height="41.42" style="fill:#ed734e" width="50" x="1056" y="272.9" />
		<rect class="heatmap" height="41.42" style="fill:#c58e5b" width="50" x="1106" y="272.9" />
		<g class="axis" transform="translate(1164,61.8)">
			<g  />
		</g>
		<rect height="24.852" style="stroke: #6baed6; stroke-width: 1" width="5.76919999999996" x="1206.3077" y="74.084" />
		<line style="stroke: #6baed6; stroke-width: 2" x1="1208.2308" x2="1208.2308" y1="74.084" y2="98.936" />
		<line style="stroke: #6baed6; stroke-width: 1" x1="1212.0769" x2="1219.7692" y1="86.51" y2="86.51" />
		<line style="stroke: #6baed6; stroke-width: 1" x1="1206.3077" x2="1198.6154" y1="86.51" y2="86.51" />
		<circle cx="1269.7692" cy="86.51" r="2" style="fill: #6baed6; stroke-width: 0" />
		<rect height="24.852" style="stroke: #fb6a4a; stroke-width: 1" width="21.1538" x="1198.6154" y="405.444" />
		<line style="stroke: #fb6a4a; stroke-width: 2" x1="1204.3846" x2="1204.3846" y1="405.444" y2="430.296" />
		<line style="stroke: #fb6a4a; stroke-width: 1" x1="1219.7692" x2="1235.1538" y1="417.87" y2="417.87" />
		<line style="stroke: #fb6a4a; stroke-width: 1" x1="1198.6154" x2="1167.8462" y1="417.87" y2="417.87" />
		<circle cx="1356.3077" cy="417.87" r="2" style="fill: #fb6a4a; stroke-width: 0" />
		<rect height="24.852" style="stroke: #74c476; stroke-width: 1" width="9.61539999999991" x="1212.0769" y="446.864" />
		<line style="stroke: #74c476; stroke-width: 2" x1="1217.8462" x2="1217.8462" y1="446.864" y2="471.716" />
		<line style="stroke: #74c476; stroke-width: 1" x1="1221.6923" x2="1231.3077" y1="459.29" y2="459.29" />
		<line style="stroke: #74c476; stroke-width: 1" x1="1212.0769" x2="1206.3077" y1="459.29" y2="459.29" />
		<circle cx="1356.3077" cy="459.29" r="2" style="fill: #74c476; stroke-width: 0" />
		<line x1="1372" x2="1572" y1="376.45" y2="376.45" />
		<g >
			<use height="24.852" width="60.2" x="1392" xlink:href="#symbol8" y="364.024" />
		</g>
		<line x1="1372" x2="1572" y1="417.87" y2="417.87" />
		<g >
			<use height="24.852" width="40.2" x="1412" xlink:href="#symbol9" y="405.444" />
		</g>
		<line x1="1372" x2="1572" y1="86.51" y2="86.51" />
		<g >
			<use height="24.852" width="60.2" x="1392" xlink:href="#symbol10" y="74.084" />
		</g>
		<line x1="1372" x2="1572" y1="169.35" y2="169.35" />
		<g >
			<use height="24.852" width="80.2" x="1412" xlink:href="#symbol11" y="156.924" />
		</g>
		<line x1="1372" x2="1572" y1="293.61" y2="293.61" />
		<g >
			<use height="24.852" width="100.2" x="1432" xlink:href="#symbol12" y="281.184" />
		</g>
		<line x1="1372" x2="1572" y1="127.93" y2="127.93" />
		<g >
			<use height="24.852" width="96.2" x="1376" xlink:href="#symbol13" y="115.504" />
		</g>
		<g >
			<use height="24.852" width="60.2" x="1492" xlink:href="#symbol14" y="115.504" />
		</g>
		<line x1="1372" x2="1572" y1="210.77" y2="210.77" />
		<g >
			<use height="24.852" width="90.2" x="1402" xlink:href="#symbol15" y="198.344" />
		</g>
		<line x1="1372" x2="1572" y1="459.29" y2="459.29" />
		<g >
			<use height="24.852" width="36.2" x="1376" xlink:href="#symbol16" y="446.864" />
		</g>
		<g >
			<use height="24.852" width="60.2" x="1492" xlink:href="#symbol17" y="446.864" />
		</g>
		<line x1="1372" x2="1572" y1="335.03" y2="335.03" />
		<g >
			<use height="24.852" width="80.2" x="1492" xlink:href="#symbol18" y="322.604" />
		</g>
		<line x1="1372" x2="1572" y1="252.19" y2="252.19" />
		<g >
			<use height="24.852" width="80.2" x="1472" xlink:href="#symbol19" y="239.764" />
		</g>
		<g >
			<g id="g20" transform="translate(169.145,459.29)">
				<path class="pie" d="M0 -20.71 A20.71 20.71 0 0 1 10.23593 18.00361 L0 0 A0 0 0 0 0 0 0 Z" style="fill: #6baed6" />
			</g>
			<g id="g21" transform="translate(169.145,459.29)">
				<path class="pie" d="M10.23593 18.00361 A20.71 20.71 2.62462 1 1 -9.51207 -18.39632 L0 0 A0 0 2.62462 1 0 0 0 Z" style="fill: #fb6a4a" />
			</g>
			<g id="g22" transform="translate(169.145,459.29)">
				<path class="pie" d="M-9.51207 -18.39632 A20.71 20.71 5.80598 0 1 0.0001 -20.71 L0 0 A0 0 5.80598 0 0 0 0 Z" style="fill: #74c476" />
			</g>
		</g>
		<g >
			<g id="g23" transform="translate(59.1,179.705)">
				<path class="pie" d="M0 -20.71 A20.71 20.71 0 0 1 18.53886 -9.23119 L0 0 A0 0 0 0 0 0 0 Z" style="fill: #6baed6" />
			</g>
			<g id="g24" transform="translate(59.1,179.705)">
				<path class="pie" d="M18.53886 -9.23119 A20.71 20.71 1.1088 0 1 -1.91083 20.62166 L0 0 A0 0 1.1088 0 0 0 0 Z" style="fill: #fb6a4a" />
			</g>
			<g id="g25" transform="translate(59.1,179.705)">
				<path class="pie" d="M-1.91083 20.62166 A20.71 20.71 3.23399 0 1 0.0001 -20.71 L0 0 A0 0 3.23399 0 0 0 0 Z" style="fill: #74c476" />
			</g>
		</g>
		<g >
			<g id="g26" transform="translate(224.77,417.87)">
				<path class="pie" d="M0 -20.71 A20.71 20.71 0 0 1 20.29147 4.14252 L0 0 A0 0 0 0 0 0 0 Z" style="fill: #6baed6" />
			</g>
			<g id="g27" transform="translate(224.77,417.87)">
				<path class="pie" d="M20.29147 4.14252 A20.71 20.71 1.77218 0 1 -17.35373 11.30274 L0 0 A0 0 1.77218 0 0 0 0 Z" style="fill: #fb6a4a" />
			</g>
			<g id="g28" transform="translate(224.77,417.87)">
				<path class="pie" d="M-17.35373 11.30274 A20.71 20.71 4.13509 0 1 0.0001 -20.71 L0 0 A0 0 4.13509 0 0 0 0 Z" style="fill: #74c476" />
			</g>
		</g>
		<g >
			<g id="g29" transform="translate(179.71,86.51)">
				<path class="pie" d="M0 -20.71 A20.71 20.71 0 1 1 -5.11044 20.06957 L0 0 A0 0 0 1 0 0 0 Z" style="fill: #6baed6" />
			</g>
			<g id="g30" transform="translate(179.71,86.51)">
				<path class="pie" d="M-5.11044 20.06957 A20.71 20.71 3.39093 0 1 -20.65209 -1.54768 L0 0 A0 0 3.39093 0 0 0 0 Z" style="fill: #fb6a4a" />
			</g>
			<g id="g31" transform="translate(179.71,86.51)">
				<path class="pie" d="M-20.65209 -1.54768 A20.71 20.71 4.78719 0 1 0.0001 -20.71 L0 0 A0 0 4.78719 0 0 0 0 Z" style="fill: #74c476" />
			</g>
		</g>
	</g>
</svg>