<svg height="600" id="sbv1" width="1000" xmlns="http://www.w3.org/2000/svg" xmlns:svg="http://www.w3.org/2000/svg" xmlns:xlink="http://www.w3.org/1999/xlink">
	<title id="sbv-title">The graph of SBV heatmap</title>
	<desc id="sbv-desc">This graph was generated by SBV which was written by Peng. E-mail is aipeng0520@163.com</desc>
	<defs id="defs2">
		<linearGradient id="color6" x1="0" x2="1" y1="1" y2="1">
			<stop offset="0" stop-color="#00ff00" />
			<stop offset="0.5" stop-color="#000000" />
			<stop offset="1" stop-color="#ff0000" />
		</linearGradient>
		<style type="text/css"><![CDATA[line.scale {
stroke-width: 2;
}

line.hgt {
stroke-width: 1;
}

line.linkage {
stroke-width: 1;
stroke-dasharray: 4 4;
stroke: #333333;
}

line.tail {
stroke-width: 1;
}

line.split {
stroke: #444444;
stroke-dasharray: 3 6 6 6;
stroke-width: 1;
}

line {
stroke-width: 1;
stroke: #000000;
}

text.scale {
font-weight: bold;
}

text.leaf {
font-style: italic;
font-weight: bold;
font-size: 14px;
}

text {
font-family: Arial;
fill: #000000;
font-size: 12px;
font-weight: normal;
stroke-width: 0;
fill-opacity: 1;
font-style: normal;
}

marker.arrow {
stroke-width: 0;
fill: #000000;
stroke: #000000;
}

circle.marker {
fill-opacity: 0.7;
stroke-width: 0;
}

rect.marker {
stroke-width: 0;
stroke: #000000;
}

rect {
fill: none;
stroke: #000000;
stroke-width: 1;
}

rect.heatmap {
stroke: #000000;
stroke-width: 0;
}

rect.range {
stroke-width: 0;
fill-opacity: 1;
stroke: #000000;
fill: none;
}

rect.selectot {
stroke-width: 1;
stroke: #000000;
}

path.pie {
stroke-width: 0;
fill-opacity: 0.7;
}

path.marker {
stroke-width: 0;
stroke: #000000;
}

path.heatmap {
stroke-width: 0;
stroke: #000000;
}

path.clade {
fill: none;
stroke: #000000;
stroke-width: 1;
fill-opacity: 1;
}

path.range {
stroke: #000000;
fill: none;
stroke-width: 0;
fill-opacity: 1;
}

path.selectot {
stroke: #000000;
stroke-width: 1;
}

svg {
fill: none;
stroke: #000000;
stroke-width: 1;
fill-opacity: 1;
}

]]></style>
	</defs>
	<g class="border" id="g3" />
	<g id="heatmap4">
		<g id="tree5">
			<rect class="range" height="43.395" width="10" x="80.62" y="80.0000000000001" />
			<line class="leaf" id="node_4" x1="80.62" x2="81.18" y1="101.6975" y2="101.6975" />
			<line class="linkage" x1="81.18" x2="114.44" y1="101.6975" y2="101.6975" />
			<text class="leaf" x="118.44" y="106.8075">G</text>
			<rect class="range" height="43.395" width="10" x="80.62" y="123.395" />
			<line class="leaf" id="node_5" x1="80.62" x2="81.18" y1="145.0925" y2="145.0925" />
			<line class="linkage" x1="81.18" x2="114.44" y1="145.0925" y2="145.0925" />
			<text class="leaf" x="118.44" y="150.2025">H</text>
			<rect class="range" height="86.79" width="10" x="80.62" y="80.0000000000001" />
			<line class="clade" x1="80.62" x2="80.62" y1="101.6975" y2="145.0925" />
			<line class="clade" id="node_6" x1="75.56" x2="80.62" y1="123.395" y2="123.395" />
			<rect class="range" height="43.395" width="10" x="80.62" y="166.79" />
			<line class="leaf" id="node_1" x1="80.62" x2="81.18" y1="188.4875" y2="188.4875" />
			<line class="linkage" x1="81.18" x2="114.44" y1="188.4875" y2="188.4875" />
			<text class="leaf" x="118.44" y="193.5975">I</text>
			<rect class="range" height="43.395" width="10" x="80.62" y="210.185" />
			<line class="leaf" id="node_2" x1="80.62" x2="81.18" y1="231.8825" y2="231.8825" />
			<line class="linkage" x1="81.18" x2="114.44" y1="231.8825" y2="231.8825" />
			<text class="leaf" x="118.44" y="236.9925">J</text>
			<rect class="range" height="86.79" width="10" x="80.62" y="166.79" />
			<line class="clade" x1="80.62" x2="80.62" y1="188.4875" y2="231.8825" />
			<line class="clade" id="node_3" x1="75.56" x2="80.62" y1="210.185" y2="210.185" />
			<rect class="range" height="173.58" width="10" x="75.56" y="80.0000000000001" />
			<line class="clade" x1="75.56" x2="75.56" y1="123.395" y2="210.185" />
			<line class="clade" id="node_7" x1="30" x2="75.56" y1="166.79" y2="166.79" />
			<rect class="range" height="43.395" width="10" x="109.87" y="296.975" />
			<line class="leaf" id="node_9" x1="109.87" x2="110.43" y1="318.6725" y2="318.6725" />
			<line class="linkage" x1="110.43" x2="114.44" y1="318.6725" y2="318.6725" />
			<text class="leaf" x="118.44" y="323.7825">F</text>
			<rect class="range" height="43.395" width="10" x="109.87" y="340.37" />
			<line class="leaf" id="node_10" x1="109.87" x2="110.43" y1="362.0675" y2="362.0675" />
			<line class="linkage" x1="110.43" x2="114.44" y1="362.0675" y2="362.0675" />
			<text class="leaf" x="118.44" y="367.1775">E</text>
			<rect class="range" height="86.79" width="10" x="109.87" y="296.975" />
			<line class="clade" x1="109.87" x2="109.87" y1="318.6725" y2="362.0675" />
			<line class="clade" id="node_11" x1="98.34" x2="109.87" y1="340.37" y2="340.37" />
			<rect class="range" height="43.395" width="10" x="98.34" y="253.58" />
			<line class="leaf" id="node_8" x1="98.34" x2="109.87" y1="275.2775" y2="275.2775" />
			<line class="linkage" x1="109.87" x2="114.44" y1="275.2775" y2="275.2775" />
			<text class="leaf" x="118.44" y="280.3875">K</text>
			<rect class="range" height="130.185" width="10" x="98.34" y="253.58" />
			<line class="clade" x1="98.34" x2="98.34" y1="275.2775" y2="340.37" />
			<line class="clade" id="node_12" x1="75.56" x2="98.34" y1="307.82375" y2="307.82375" />
			<rect class="range" height="43.395" width="10" x="103.4" y="383.765" />
			<line class="leaf" id="node_16" x1="103.4" x2="103.96" y1="405.4625" y2="405.4625" />
			<line class="linkage" x1="103.96" x2="114.44" y1="405.4625" y2="405.4625" />
			<text class="leaf" x="118.44" y="410.5725">B</text>
			<rect class="range" height="43.395" width="10" x="103.4" y="427.16" />
			<line class="leaf" id="node_17" x1="103.4" x2="103.96" y1="448.8575" y2="448.8575" />
			<line class="linkage" x1="103.96" x2="114.44" y1="448.8575" y2="448.8575" />
			<text class="leaf" x="118.44" y="453.9675">A</text>
			<rect class="range" height="86.79" width="10" x="103.4" y="383.765" />
			<line class="clade" x1="103.4" x2="103.4" y1="405.4625" y2="448.8575" />
			<line class="clade" id="node_18" x1="98.34" x2="103.4" y1="427.16" y2="427.16" />
			<rect class="range" height="43.395" width="10" x="103.4" y="470.555" />
			<line class="leaf" id="node_13" x1="103.4" x2="103.96" y1="492.2525" y2="492.2525" />
			<line class="linkage" x1="103.96" x2="114.44" y1="492.2525" y2="492.2525" />
			<text class="leaf" x="118.44" y="497.3625">D</text>
			<rect class="range" height="43.395" width="10" x="103.4" y="513.95" />
			<line class="leaf" id="node_14" x1="103.4" x2="103.96" y1="535.6475" y2="535.6475" />
			<line class="linkage" x1="103.96" x2="114.44" y1="535.6475" y2="535.6475" />
			<text class="leaf" x="118.44" y="540.7575">C</text>
			<rect class="range" height="86.79" width="10" x="103.4" y="470.555" />
			<line class="clade" x1="103.4" x2="103.4" y1="492.2525" y2="535.6475" />
			<line class="clade" id="node_15" x1="98.34" x2="103.4" y1="513.95" y2="513.95" />
			<rect class="range" height="173.58" width="10" x="98.34" y="383.765" />
			<line class="clade" x1="98.34" x2="98.34" y1="427.16" y2="513.95" />
			<line class="clade" id="node_19" x1="75.56" x2="98.34" y1="470.555" y2="470.555" />
			<rect class="range" height="303.765" width="10" x="75.56" y="253.58" />
			<line class="clade" x1="75.56" x2="75.56" y1="307.82375" y2="470.555" />
			<line class="clade" id="node_20" x1="30" x2="75.56" y1="389.189375" y2="389.189375" />
			<rect class="range" height="477.345" width="10" x="30" y="80.0000000000001" />
			<line class="clade" x1="30" x2="30" y1="166.79" y2="389.189375" />
			<line class="tail" id="node_21" x1="20" x2="30" y1="277.9896875" y2="277.9896875" />
			<rect class="heatmap" height="43.395" style="fill:#ff0000" width="421.34" x="137.32" y="123.395" />
			<rect class="heatmap" height="43.395" style="fill:#00ff00" width="421.34" x="558.66" y="123.395" />
			<rect class="heatmap" height="43.395" style="fill:#00ff00" width="421.34" x="137.32" y="513.95" />
			<rect class="heatmap" height="43.395" style="fill:#ff0000" width="421.34" x="558.66" y="513.95" />
			<rect class="heatmap" height="43.395" style="fill:#00ff00" width="421.34" x="137.32" y="383.765" />
			<rect class="heatmap" height="43.395" style="fill:#ff0000" width="421.34" x="558.66" y="383.765" />
			<rect class="heatmap" height="43.395" style="fill:#00ff00" width="421.34" x="137.32" y="427.16" />
			<rect class="heatmap" height="43.395" style="fill:#ff0000" width="421.34" x="558.66" y="427.16" />
			<rect class="heatmap" height="43.395" style="fill:#ff0000" width="421.34" x="137.32" y="210.185" />
			<rect class="heatmap" height="43.395" style="fill:#00ff00" width="421.34" x="558.66" y="210.185" />
			<rect class="heatmap" height="43.395" style="fill:#00ff00" width="421.34" x="137.32" y="470.555" />
			<rect class="heatmap" height="43.395" style="fill:#ff0000" width="421.34" x="558.66" y="470.555" />
			<rect class="heatmap" height="43.395" style="fill:#ff0000" width="421.34" x="137.32" y="80.0000000000001" />
			<rect class="heatmap" height="43.395" style="fill:#00ff00" width="421.34" x="558.66" y="80.0000000000001" />
			<rect class="heatmap" height="43.395" style="fill:#ff0000" width="421.34" x="137.32" y="296.975" />
			<rect class="heatmap" height="43.395" style="fill:#00ff00" width="421.34" x="558.66" y="296.975" />
			<rect class="heatmap" height="43.395" style="fill:#00ff00" width="421.34" x="137.32" y="340.37" />
			<rect class="heatmap" height="43.395" style="fill:#ff0000" width="421.34" x="558.66" y="340.37" />
			<rect class="heatmap" height="43.395" style="fill:none" width="421.34" x="137.32" y="253.58" />
			<rect class="heatmap" height="43.395" style="fill:none" width="421.34" x="558.66" y="253.58" />
			<rect class="heatmap" height="43.395" style="fill:#ff0000" width="421.34" x="137.32" y="166.79" />
			<rect class="heatmap" height="43.395" style="fill:#00ff00" width="421.34" x="558.66" y="166.79" />
		</g>
		<g >
			<text transform="rotate(-90,352.37,576)" x="352.37" y="576">V1</text>
			<text transform="rotate(-90,773.71,576)" x="773.71" y="576">V2</text>
			<g class="axis" transform="translate(137.32,580)">
				<g  />
			</g>
		</g>
		<rect height="23.24" style="fill:url(#color6);stroke-width:0" width="842.68" x="137.32" y="28" />
		<g class="axis" transform="translate(137.32,51.24)">
			<g >
				<line class="tick" x1="0" x2="0" y1="0" y2="8" />
				<text style="fill:#000000;font-family:Arial;font-style:normal;font-size:12px;font-weight:normal;" x="-5.34" y="20.76">-1</text>
				<line class="tick" x1="421.34" x2="421.34" y1="0" y2="8" />
				<text style="fill:#000000;font-family:Arial;font-style:normal;font-size:12px;font-weight:normal;" x="418.01" y="20.76">0</text>
				<line class="tick" x1="842.68" x2="842.68" y1="0" y2="8" />
				<text style="fill:#000000;font-family:Arial;font-style:normal;font-weight:normal;font-size:12px;" x="839.35" y="20.76">1</text>
			</g>
		</g>
	</g>
</svg>