<svg height="600" id="sbv1" width="800" xmlns="http://www.w3.org/2000/svg" xmlns:svg="http://www.w3.org/2000/svg" xmlns:xlink="http://www.w3.org/1999/xlink">
	<title id="sbv-title">The graph of SBV ggplot2</title>
	<desc id="sbv-desc">This graph was generated by SBV which was written by Peng. E-mail is aipeng0520@163.com</desc>
	<defs id="defs2">
		<symbol class="symbol" id="symbol6" viewBox="0 0 20 20">
			<rect height="18" style="fill: #fb6a4a; fill-opacity: 1; stroke: #000000; stroke-width: 1" width="18" x="1" y="1" />
		</symbol>
		<symbol class="symbol" id="symbol7" viewBox="0 0 20 20">
			<rect height="18" style="fill: #74c476; fill-opacity: 1; stroke: #000000; stroke-width: 1" width="18" x="1" y="1" />
		</symbol>
		<style type="text/css"><![CDATA[svg {
fill-opacity: 1;
fill: none;
stroke-width: 1;
stroke: #000000;
}

path {
stroke: #000000;
stroke-width: 1;
fill: none;
}

text.subtitle {
font-weight: bold;
font-size: 14px;
}

text {
font-size: 12px;
fill-opacity: 1;
stroke-width: 0;
font-weight: normal;
font-style: normal;
fill: #000000;
font-family: Arial;
}

text.freq {
font-size: 14px;
font-family: Georgia;
font-weight: bold;
}

text.title {
font-weight: bold;
font-size: 18px;
}

line.mark {
stroke: #000000;
stroke-width: 2;
}

line.axis {
stroke: #000000;
stroke-width: 1;
fill: #000000;
}

line.bgline {
stroke-width: 2;
stroke-opacity: 1;
stroke: #ffffff;
}

line {
stroke-width: 1;
stroke: #000000;
}

rect {
stroke-width: 0;
}

]]></style>
	</defs>
	<g class="ggplot2" id="ggplot23">
		<rect class="background" height="547.24" style="fill: #dddddd; stroke-width: 0" width="674.57" x="40.76" y="20" />
		<g class="border" id="g4" />
		<g class="axis" transform="translate(40.76,567.24)">
			<g >
				<line class="bgline" x1="168.64" x2="168.64" y1="0" y2="-547.24" />
				<text style="fill:#000000;font-weight:normal;font-style:normal;font-family:Arial;font-size:12px;" x="80.985" y="12.76">1</text>
				<line class="bgline" x1="337.29" x2="337.29" y1="0" y2="-547.24" />
				<text style="font-family:Arial;fill:#000000;font-style:normal;font-weight:normal;font-size:12px;" x="249.635" y="12.76">2</text>
				<line class="bgline" x1="505.93" x2="505.93" y1="0" y2="-547.24" />
				<text style="font-family:Arial;fill:#000000;font-style:normal;font-weight:normal;font-size:12px;" x="418.275" y="12.76">3</text>
				<line class="bgline" x1="674.57" x2="674.57" y1="0" y2="-547.24" />
				<text style="font-weight:normal;fill:#000000;font-style:normal;font-family:Arial;font-size:12px;" x="586.915" y="12.76">4</text>
			</g>
		</g>
		<g class="axis" transform="translate(40.76,567.24)">
			<g transform="rotate(-90)">
				<line class="tick" x1="13.35" x2="13.35" y1="0" y2="-8" />
				<line class="bgline" x1="13.35" x2="13.35" y1="0" y2="674.57" />
				<text style="font-style:normal;fill:#000000;font-family:Arial;font-weight:normal;font-size:12px;" x="1.345" y="-12">-100</text>
				<line class="tick" x1="146.82" x2="146.82" y1="0" y2="-8" />
				<line class="bgline" x1="146.82" x2="146.82" y1="0" y2="674.57" />
				<text style="font-style:normal;fill:#000000;font-weight:normal;font-family:Arial;font-size:12px;" x="138.15" y="-12">-50</text>
				<line class="tick" x1="280.29" x2="280.29" y1="0" y2="-8" />
				<line class="bgline" x1="280.29" x2="280.29" y1="0" y2="674.57" />
				<text style="fill:#000000;font-weight:normal;font-style:normal;font-family:Arial;font-size:12px;" x="276.955" y="-12">0</text>
				<line class="tick" x1="413.77" x2="413.77" y1="0" y2="-8" />
				<line class="bgline" x1="413.77" x2="413.77" y1="0" y2="674.57" />
				<text style="font-style:normal;fill:#000000;font-weight:normal;font-family:Arial;font-size:12px;" x="407.1" y="-12">50</text>
			</g>
		</g>
		<rect height="26.6946" style="fill: #fb6a4a; stroke: #000000; stroke-width: 0" width="67.457" x="57.6243" y="260.2517" />
		<text x="84.6828" y="256.2517">10</text>
		<rect height="53.3893" style="fill: #74c476; stroke: #000000; stroke-width: 0" width="67.457" x="125.0813" y="286.9463" />
		<text x="150.1398" y="353.0956">-20</text>
		<rect height="80.0839" style="fill: #fb6a4a; stroke: #000000; stroke-width: 0" width="67.457" x="226.2668" y="206.8624" />
		<text x="253.3253" y="202.8624">30</text>
		<rect height="106.7786" style="fill: #74c476; stroke: #000000; stroke-width: 0" width="67.457" x="293.7238" y="286.9463" />
		<text x="318.7823" y="406.4849">-40</text>
		<rect height="133.4731" style="fill: #fb6a4a; stroke: #000000; stroke-width: 0" width="67.457" x="394.9093" y="153.4732" />
		<text x="421.9678" y="149.4732">50</text>
		<rect height="160.1678" style="fill: #74c476; stroke: #000000; stroke-width: 0" width="67.457" x="462.3663" y="286.9463" />
		<text x="487.4248" y="459.8741">-60</text>
		<rect height="186.8624" style="fill: #fb6a4a; stroke: #000000; stroke-width: 0" width="67.457" x="563.5518" y="100.0839" />
		<text x="590.6103" y="96.0839">70</text>
		<rect height="213.5571" style="fill: #74c476; stroke: #000000; stroke-width: 0" width="67.457" x="631.0088" y="286.9463" />
		<text x="656.0673" y="513.2634">-80</text>
		<g class="legend" id="legend5">
			<g >
				<g >
					<use height="20" width="20" x="724.33" xlink:href="#symbol6" y="271.62" />
				</g>
				<text style="font-face:normal;font:arial;fill:#000000;font-style:normal;font-family:Arial;font-weight:normal;font-size:12px;" x="748.33" y="286">Up</text>
				<g >
					<use height="20" width="20" x="724.33" xlink:href="#symbol7" y="295.62" />
				</g>
				<text style="font:arial;font-face:normal;fill:#000000;font-style:normal;font-family:Arial;font-weight:normal;font-size:12px;" x="748.33" y="310">Down</text>
			</g>
		</g>
	</g>
</svg>