<svg height="600" id="sbv1" viewBox="-382 -408 786 782" width="600" xmlns="http://www.w3.org/2000/svg" xmlns:svg="http://www.w3.org/2000/svg" xmlns:xlink="http://www.w3.org/1999/xlink">
	<title id="sbv-title">The graph of SBV venn</title>
	<desc id="sbv-desc">This graph was generated by SBV which was written by Peng. E-mail is aipeng0520@163.com</desc>
	<defs id="defs2">
		<style type="text/css"><![CDATA[text.label {
font-weight: bold;
fill: #000000;
font-family: Arial;
font-style: normal;
font-size: 18px;
}

text {
font-family: Arial;
fill: #000000;
font-weight: normal;
stroke-width: 0;
font-size: 16px;
font-style: normal;
}

text.title {
font-size: 16px;
font-style: normal;
font-family: Arial;
fill: #000000;
font-weight: bold;
}

circle {
stroke: #000000;
stroke-width: 2;
fill-opacity: 0.3;
}

ellipse {
stroke-width: 2;
stroke: #000000;
fill-opacity: 0.3;
}

rect.text {
stroke-width: 1;
fill: #77cc66;
stroke: #ffffff;
}

svg {
fill-opacity: 1;
stroke-width: 1;
fill: none;
stroke: #000000;
}

path {
stroke: #000000;
stroke-width: 2;
fill-opacity: 0.3;
}

]]></style>
	</defs>
	<g id="venn3">
		<ellipse cx="36" cy="-56" id="set1" rx="160" ry="320" style="fill:#ff0000;" />
		<ellipse cx="36" cy="-56" id="set2" rx="160" ry="320" style="fill:#0000ff;" transform="rotate(72)" />
		<ellipse cx="36" cy="-56" id="set3" rx="160" ry="320" style="fill:#ffff00;" transform="rotate(144)" />
		<ellipse cx="36" cy="-56" id="set4" rx="160" ry="320" style="fill:#008000;" transform="rotate(216)" />
		<ellipse cx="36" cy="-56" id="set5" rx="160" ry="320" style="fill:#800080;" transform="rotate(288)" />
		<ellipse cx="36" cy="-56" rx="160" ry="320" style="fill:none;stroke=>#000;" />
		<ellipse cx="36" cy="-56" rx="160" ry="320" style="fill:none;stroke=>#000;" transform="rotate(72)" />
		<ellipse cx="36" cy="-56" rx="160" ry="320" style="fill:none;stroke=>#000;" transform="rotate(144)" />
		<ellipse cx="36" cy="-56" rx="160" ry="320" style="fill:none;stroke=>#000;" transform="rotate(216)" />
		<ellipse cx="36" cy="-56" rx="160" ry="320" style="fill:none;stroke=>#000;" transform="rotate(288)" />
		<text class="label" id="label1" x="-23.965" y="-380">LR4-AF-vs-BF</text>
		<text class="label" id="label2" transform="rotate(72)" x="-23.965" y="-380">LR5-AF-vs-BF</text>
		<text class="label" id="label3" transform="rotate(144)" x="-23.965" y="-380">LR6-AF-vs-BF</text>
		<text class="label" id="label4" transform="rotate(216)" x="-23.965" y="-380">LR7-AF-vs-BF</text>
		<text class="label" id="label5" transform="rotate(288)" x="-23.965" y="-380">LR9-AF-vs-BF</text>
		<text id="text10000" x="16.655" y="-294.16">315</text>
		<text id="text01000" x="282.21" y="-54.16">1345</text>
		<text id="text00100" x="142.21" y="285.84">1253</text>
		<text id="text00010" x="-233.345" y="225.84">408</text>
		<text id="text00001" x="-293.345" y="-124.16">310</text>
		<text id="text11000" x="166.655" y="-124.16">142</text>
		<text id="text10100" x="31.105" y="235.84">78</text>
		<text id="text10010" x="91.105" y="-194.16">35</text>
		<text id="text10001" x="-88.895" y="-209.16">29</text>
		<text id="text01100" x="176.655" y="130.84">273</text>
		<text id="text01010" x="-203.345" y="125.84">362</text>
		<text id="text01001" x="221.105" y="45.84">89</text>
		<text id="text00110" x="-73.345" y="225.84">268</text>
		<text id="text00101" x="-183.345" y="-144.16">245</text>
		<text id="text00011" x="-235.345" y="5.84">204</text>
		<text id="text11100" x="81.105" y="155.84">32</text>
		<text id="text11010" x="139.105" y="-147.16">78</text>
		<text id="text11001" x="161.105" y="-14.16">13</text>
		<text id="text10110" x="-41.895" y="213.84">20</text>
		<text id="text10101" x="-101.895" y="-187.16">36</text>
		<text id="text10011" x="11.105" y="-174.16">26</text>
		<text id="text01110" x="-133.345" y="125.84">172</text>
		<text id="text01101" x="177.84" y="105.84">111</text>
		<text id="text01011" x="-219.895" y="37.84">67</text>
		<text id="text00111" x="-163.345" y="-74.16">253</text>
		<text id="text11110" x="-38.895" y="165.84">27</text>
		<text id="text11101" x="131.105" y="85.84">26</text>
		<text id="text11011" x="111.105" y="-94.16">17</text>
		<text id="text10111" x="-68.895" y="-134.16">36</text>
		<text id="text01111" x="-173.345" y="25.84">150</text>
		<text id="text11111" x="-8.895" y="5.84">44</text>
	</g>
</svg>