<svg height="600" id="sbv1" width="1200" xmlns="http://www.w3.org/2000/svg" xmlns:svg="http://www.w3.org/2000/svg" xmlns:xlink="http://www.w3.org/1999/xlink">
	<title id="sbv-title">The graph of SBV combar</title>
	<desc id="sbv-desc">This graph was generated by SBV which was written by Peng. E-mail is aipeng0520@163.com</desc>
	<defs id="defs2">
		<style type="text/css"><![CDATA[text {
fill-opacity: 1;
fill: #000000;
font-style: normal;
font-family: Arial;
stroke-width: 0;
font-size: 12px;
font-weight: normal;
}

text.xlab {
font-size: 14px;
font-weight: bold;
}

text.tick {
font-weight: normal;
font-size: 12px;
}

text.title {
font-size: 16px;
font-weight: bold;
}

text.term {
font-size: 16px;
font-weight: normal;
}

rect.main {
fill: none;
stroke-width: 1;
stroke: #000000;
}

path {
stroke: #000000;
stroke-width: 1;
fill: none;
}

line {
stroke-width: 1;
stroke: #000000;
}

line.bgline {
stroke: #000000;
stroke-width: 1;
stroke-dasharray: 4 4;
stroke-opacity: 0.5;
}

svg {
stroke: #000000;
fill-opacity: 1;
fill: none;
stroke-width: 1;
}

]]></style>
	</defs>
	<text class="title" x="337.7325" y="48.76">CK1-VS-CK2</text>
	<text class="title" x="514.2025" y="48.76">CK1-VS-T1</text>
	<text class="title" x="683.9975" y="48.76">CK2-VS-T2</text>
	<text class="title" x="860.4625" y="48.76">T1-VS-T2</text>
	<text class="title" transform="rotate(-90,51.68,323.13)" x="51.68" y="323.13">Pathway</text>
	<rect class="main" height="475.88" width="169.795" x="300.82" y="52.76" />
	<rect class="main" height="475.88" width="169.795" x="470.615" y="52.76" />
	<rect class="main" height="475.88" width="169.795" x="640.41" y="52.76" />
	<rect class="main" height="475.88" width="169.795" x="810.205" y="52.76" />
	<text class="term" x="148.37" y="98.2566666666667">Metabolic pathways</text>
	<line class="tick" x1="300.82" x2="294.82" y1="92.4166666666667" y2="92.4166666666667" />
	<line class="tick" x1="470.615" x2="464.615" y1="92.4166666666667" y2="92.4166666666667" />
	<line class="tick" x1="640.41" x2="634.41" y1="92.4166666666667" y2="92.4166666666667" />
	<line class="tick" x1="810.205" x2="804.205" y1="92.4166666666667" y2="92.4166666666667" />
	<text class="term" x="102.13" y="177.57">Phenylalanine metabolism</text>
	<line class="tick" x1="300.82" x2="294.82" y1="171.73" y2="171.73" />
	<line class="tick" x1="470.615" x2="464.615" y1="171.73" y2="171.73" />
	<line class="tick" x1="640.41" x2="634.41" y1="171.73" y2="171.73" />
	<line class="tick" x1="810.205" x2="804.205" y1="171.73" y2="171.73" />
	<text class="term" x="76.32" y="256.883333333333">Phenylpropanoid biosynthesis</text>
	<line class="tick" x1="300.82" x2="294.82" y1="251.043333333333" y2="251.043333333333" />
	<line class="tick" x1="470.615" x2="464.615" y1="251.043333333333" y2="251.043333333333" />
	<line class="tick" x1="640.41" x2="634.41" y1="251.043333333333" y2="251.043333333333" />
	<line class="tick" x1="810.205" x2="804.205" y1="251.043333333333" y2="251.043333333333" />
	<text class="term" x="119.06" y="336.196666666667">Glycerolipid metabolism</text>
	<line class="tick" x1="300.82" x2="294.82" y1="330.356666666667" y2="330.356666666667" />
	<line class="tick" x1="470.615" x2="464.615" y1="330.356666666667" y2="330.356666666667" />
	<line class="tick" x1="640.41" x2="634.41" y1="330.356666666667" y2="330.356666666667" />
	<line class="tick" x1="810.205" x2="804.205" y1="330.356666666667" y2="330.356666666667" />
	<text class="term" x="86.15" y="415.51">Brassinosteroid biosynthesis</text>
	<line class="tick" x1="300.82" x2="294.82" y1="409.67" y2="409.67" />
	<line class="tick" x1="470.615" x2="464.615" y1="409.67" y2="409.67" />
	<line class="tick" x1="640.41" x2="634.41" y1="409.67" y2="409.67" />
	<line class="tick" x1="810.205" x2="804.205" y1="409.67" y2="409.67" />
	<text class="term" x="57.68" y="494.823333333333">Glycerophospholipid metabolism</text>
	<line class="tick" x1="300.82" x2="294.82" y1="488.983333333333" y2="488.983333333333" />
	<line class="tick" x1="470.615" x2="464.615" y1="488.983333333333" y2="488.983333333333" />
	<line class="tick" x1="640.41" x2="634.41" y1="488.983333333333" y2="488.983333333333" />
	<line class="tick" x1="810.205" x2="804.205" y1="488.983333333333" y2="488.983333333333" />
	<g class="axis" transform="translate(300.82,52.76)">
		<g >
			<line class="tick" x1="42.45" x2="42.45" y1="0" y2="6" />
			<line class="tick" x1="84.9" x2="84.9" y1="0" y2="6" />
			<line class="tick" x1="127.35" x2="127.35" y1="0" y2="6" />
		</g>
	</g>
	<g class="axis" transform="translate(300.82,528.64)">
		<g >
			<line class="tick" x1="0" x2="0" y1="0" y2="-6" />
			<line class="tick" x1="42.45" x2="42.45" y1="0" y2="-6" />
			<line class="tick" x1="84.9" x2="84.9" y1="0" y2="-6" />
			<line class="tick" x1="127.35" x2="127.35" y1="0" y2="-6" />
		</g>
	</g>
	<g class="axis" transform="translate(300.82,528.64)">
		<g >
			<text style="font-weight:normal;font-size:12px;fill:#000000;font-style:normal;font-family:Arial;" x="-3.34" y="12.76">0</text>
			<text style="font-family:Arial;font-style:normal;fill:#000000;font-weight:normal;font-size:12px;" x="32.44" y="12.76">100</text>
			<text style="font-size:12px;font-weight:normal;font-family:Arial;fill:#000000;font-style:normal;" x="74.89" y="12.76">200</text>
			<text style="font-size:12px;font-weight:normal;font-family:Arial;font-style:normal;fill:#000000;" x="117.34" y="12.76">300</text>
		</g>
	</g>
	<rect height="47.588" style="fill:#55a0fb;stroke-width:0" width="33.959" x="300.82" y="68.6226666666667" />
	<rect height="47.588" style="fill:#55a0fb;stroke-width:0" width="4.24489999999997" x="300.82" y="147.936" />
	<rect height="47.588" style="fill:#55a0fb;stroke-width:0" width="5.09379999999999" x="300.82" y="227.249333333333" />
	<rect height="47.588" style="fill:#55a0fb;stroke-width:0" width="3.82040000000001" x="300.82" y="306.562666666667" />
	<rect height="47.588" style="fill:#55a0fb;stroke-width:0" width="1.69799999999998" x="300.82" y="385.876" />
	<rect height="47.588" style="fill:#55a0fb;stroke-width:0" width="3.82040000000001" x="300.82" y="465.189333333333" />
	<g class="axis" transform="translate(470.615,52.76)">
		<g >
			<line class="tick" x1="42.45" x2="42.45" y1="0" y2="6" />
			<line class="tick" x1="84.9" x2="84.9" y1="0" y2="6" />
			<line class="tick" x1="127.35" x2="127.35" y1="0" y2="6" />
		</g>
	</g>
	<g class="axis" transform="translate(470.615,528.64)">
		<g >
			<line class="tick" x1="0" x2="0" y1="0" y2="-6" />
			<line class="tick" x1="42.45" x2="42.45" y1="0" y2="-6" />
			<line class="tick" x1="84.9" x2="84.9" y1="0" y2="-6" />
			<line class="tick" x1="127.35" x2="127.35" y1="0" y2="-6" />
		</g>
	</g>
	<g class="axis" transform="translate(470.615,528.64)">
		<g >
			<text style="font-family:Arial;fill:#000000;font-style:normal;font-weight:normal;font-size:12px;" x="-3.34" y="12.76">0</text>
			<text style="font-size:12px;font-weight:normal;font-family:Arial;font-style:normal;fill:#000000;" x="32.44" y="12.76">100</text>
			<text style="font-weight:normal;font-size:12px;font-family:Arial;fill:#000000;font-style:normal;" x="74.89" y="12.76">200</text>
			<text style="font-weight:normal;font-size:12px;font-family:Arial;font-style:normal;fill:#000000;" x="117.34" y="12.76">300</text>
		</g>
	</g>
	<rect height="47.588" style="fill:#55a0fb;stroke-width:0" width="0" x="470.615" y="68.6226666666667" />
	<rect height="47.588" style="fill:#55a0fb;stroke-width:0" width="9.76319999999998" x="470.615" y="147.936" />
	<rect height="47.588" style="fill:#55a0fb;stroke-width:0" width="16.9795" x="470.615" y="227.249333333333" />
	<rect height="47.588" style="fill:#55a0fb;stroke-width:0" width="0" x="470.615" y="306.562666666667" />
	<rect height="47.588" style="fill:#55a0fb;stroke-width:0" width="0" x="470.615" y="385.876" />
	<rect height="47.588" style="fill:#55a0fb;stroke-width:0" width="0" x="470.615" y="465.189333333333" />
	<g class="axis" transform="translate(640.41,52.76)">
		<g >
			<line class="tick" x1="42.45" x2="42.45" y1="0" y2="6" />
			<line class="tick" x1="84.9" x2="84.9" y1="0" y2="6" />
			<line class="tick" x1="127.35" x2="127.35" y1="0" y2="6" />
		</g>
	</g>
	<g class="axis" transform="translate(640.41,528.64)">
		<g >
			<line class="tick" x1="0" x2="0" y1="0" y2="-6" />
			<line class="tick" x1="42.45" x2="42.45" y1="0" y2="-6" />
			<line class="tick" x1="84.9" x2="84.9" y1="0" y2="-6" />
			<line class="tick" x1="127.35" x2="127.35" y1="0" y2="-6" />
		</g>
	</g>
	<g class="axis" transform="translate(640.41,528.64)">
		<g >
			<text style="font-size:12px;font-weight:normal;font-family:Arial;font-style:normal;fill:#000000;" x="-3.34" y="12.76">0</text>
			<text style="font-weight:normal;font-size:12px;font-family:Arial;fill:#000000;font-style:normal;" x="32.44" y="12.76">100</text>
			<text style="font-style:normal;fill:#000000;font-family:Arial;font-size:12px;font-weight:normal;" x="74.89" y="12.76">200</text>
			<text style="font-family:Arial;fill:#000000;font-style:normal;font-size:12px;font-weight:normal;" x="117.34" y="12.76">300</text>
		</g>
	</g>
	<rect height="47.588" style="fill:#55a0fb;stroke-width:0" width="158.7583" x="640.41" y="68.6226666666667" />
	<rect height="47.588" style="fill:#55a0fb;stroke-width:0" width="8.91420000000005" x="640.41" y="147.936" />
	<rect height="47.588" style="fill:#55a0fb;stroke-width:0" width="15.706" x="640.41" y="227.249333333333" />
	<rect height="47.588" style="fill:#55a0fb;stroke-width:0" width="0" x="640.41" y="306.562666666667" />
	<rect height="47.588" style="fill:#55a0fb;stroke-width:0" width="0" x="640.41" y="385.876" />
	<rect height="47.588" style="fill:#55a0fb;stroke-width:0" width="0" x="640.41" y="465.189333333333" />
	<g class="axis" transform="translate(810.205,52.76)">
		<g >
			<line class="tick" x1="42.45" x2="42.45" y1="0" y2="6" />
			<line class="tick" x1="84.9" x2="84.9" y1="0" y2="6" />
			<line class="tick" x1="127.35" x2="127.35" y1="0" y2="6" />
		</g>
	</g>
	<g class="axis" transform="translate(810.205,528.64)">
		<g >
			<line class="tick" x1="0" x2="0" y1="0" y2="-6" />
			<line class="tick" x1="42.45" x2="42.45" y1="0" y2="-6" />
			<line class="tick" x1="84.9" x2="84.9" y1="0" y2="-6" />
			<line class="tick" x1="127.35" x2="127.35" y1="0" y2="-6" />
		</g>
	</g>
	<g class="axis" transform="translate(810.205,528.64)">
		<g >
			<text style="fill:#000000;font-style:normal;font-family:Arial;font-size:12px;font-weight:normal;" x="-3.34" y="12.76">0</text>
			<text style="font-size:12px;font-weight:normal;font-style:normal;fill:#000000;font-family:Arial;" x="32.44" y="12.76">100</text>
			<text style="font-weight:normal;font-size:12px;font-family:Arial;fill:#000000;font-style:normal;" x="74.89" y="12.76">200</text>
			<text style="font-size:12px;font-weight:normal;font-family:Arial;font-style:normal;fill:#000000;" x="117.34" y="12.76">300</text>
		</g>
	</g>
	<rect height="47.588" style="fill:#55a0fb;stroke-width:0" width="37.7794" x="810.205" y="68.6226666666667" />
	<rect height="47.588" style="fill:#55a0fb;stroke-width:0" width="3.82039999999995" x="810.205" y="147.936" />
	<rect height="47.588" style="fill:#55a0fb;stroke-width:0" width="6.79179999999997" x="810.205" y="227.249333333333" />
	<rect height="47.588" style="fill:#55a0fb;stroke-width:0" width="0" x="810.205" y="306.562666666667" />
	<rect height="47.588" style="fill:#55a0fb;stroke-width:0" width="0" x="810.205" y="385.876" />
	<rect height="47.588" style="fill:#55a0fb;stroke-width:0" width="0" x="810.205" y="465.189333333333" />
	<text class="xlab" x="583.285" y="560">Number of genes</text>
</svg>