<svg height="600" id="sbv1" width="1200" xmlns="http://www.w3.org/2000/svg" xmlns:svg="http://www.w3.org/2000/svg" xmlns:xlink="http://www.w3.org/1999/xlink">
	<title id="sbv-title">The graph of SBV combar</title>
	<desc id="sbv-desc">This graph was generated by SBV which was written by Peng. E-mail is aipeng0520@163.com</desc>
	<defs id="defs2">
		<style type="text/css"><![CDATA[svg {
fill: none;
stroke: #000000;
fill-opacity: 1;
stroke-width: 1;
}

rect.main {
fill: none;
stroke: #000000;
stroke-width: 1;
}

path {
stroke-width: 1;
stroke: #000000;
fill: none;
}

text.title {
font-weight: bold;
font-size: 16px;
}

text {
font-size: 12px;
font-weight: normal;
fill: #000000;
font-style: normal;
fill-opacity: 1;
stroke-width: 0;
font-family: Arial;
}

text.xlab {
font-weight: bold;
font-size: 14px;
}

text.tick {
font-weight: normal;
font-size: 12px;
}

text.term {
font-weight: normal;
font-size: 12px;
}

line {
stroke: #000000;
stroke-width: 1;
}

line.bgline {
stroke: #000000;
stroke-opacity: 0.5;
stroke-width: 1;
stroke-dasharray: 4 4;
}

]]></style>
	</defs>
	<text class="title" x="287.16625" y="48.76">CK1-VS-CK2</text>
	<text class="title" x="478.08375" y="48.76">CK1-VS-T1</text>
	<text class="title" x="662.32625" y="48.76">CK2-VS-T2</text>
	<text class="title" x="853.23875" y="48.76">T1-VS-T2</text>
	<text class="title" transform="rotate(-90,51.68,323.13)" x="51.68" y="323.13">Pathway</text>
	<rect class="main" height="475.88" width="184.2425" x="243.03" y="52.76" />
	<rect class="main" height="475.88" width="184.2425" x="427.2725" y="52.76" />
	<rect class="main" height="475.88" width="184.2425" x="611.515" y="52.76" />
	<rect class="main" height="475.88" width="184.2425" x="795.7575" y="52.76" />
	<text class="term" x="125.69" y="96.7966666666667">Metabolic pathways</text>
	<line class="tick" x1="243.03" x2="237.03" y1="92.4166666666667" y2="92.4166666666667" />
	<line class="tick" x1="427.2725" x2="421.2725" y1="92.4166666666667" y2="92.4166666666667" />
	<line class="tick" x1="611.515" x2="605.515" y1="92.4166666666667" y2="92.4166666666667" />
	<line class="tick" x1="795.7575" x2="789.7575" y1="92.4166666666667" y2="92.4166666666667" />
	<text class="term" x="91.01" y="176.11">Phenylalanine metabolism</text>
	<line class="tick" x1="243.03" x2="237.03" y1="171.73" y2="171.73" />
	<line class="tick" x1="427.2725" x2="421.2725" y1="171.73" y2="171.73" />
	<line class="tick" x1="611.515" x2="605.515" y1="171.73" y2="171.73" />
	<line class="tick" x1="795.7575" x2="789.7575" y1="171.73" y2="171.73" />
	<text class="term" x="71.66" y="255.423333333333">Phenylpropanoid biosynthesis</text>
	<line class="tick" x1="243.03" x2="237.03" y1="251.043333333333" y2="251.043333333333" />
	<line class="tick" x1="427.2725" x2="421.2725" y1="251.043333333333" y2="251.043333333333" />
	<line class="tick" x1="611.515" x2="605.515" y1="251.043333333333" y2="251.043333333333" />
	<line class="tick" x1="795.7575" x2="789.7575" y1="251.043333333333" y2="251.043333333333" />
	<text class="term" x="103.71" y="334.736666666667">Glycerolipid metabolism</text>
	<line class="tick" x1="243.03" x2="237.03" y1="330.356666666667" y2="330.356666666667" />
	<line class="tick" x1="427.2725" x2="421.2725" y1="330.356666666667" y2="330.356666666667" />
	<line class="tick" x1="611.515" x2="605.515" y1="330.356666666667" y2="330.356666666667" />
	<line class="tick" x1="795.7575" x2="789.7575" y1="330.356666666667" y2="330.356666666667" />
	<text class="term" x="79.03" y="414.05">Brassinosteroid biosynthesis</text>
	<line class="tick" x1="243.03" x2="237.03" y1="409.67" y2="409.67" />
	<line class="tick" x1="427.2725" x2="421.2725" y1="409.67" y2="409.67" />
	<line class="tick" x1="611.515" x2="605.515" y1="409.67" y2="409.67" />
	<line class="tick" x1="795.7575" x2="789.7575" y1="409.67" y2="409.67" />
	<text class="term" x="57.68" y="493.363333333333">Glycerophospholipid metabolism</text>
	<line class="tick" x1="243.03" x2="237.03" y1="488.983333333333" y2="488.983333333333" />
	<line class="tick" x1="427.2725" x2="421.2725" y1="488.983333333333" y2="488.983333333333" />
	<line class="tick" x1="611.515" x2="605.515" y1="488.983333333333" y2="488.983333333333" />
	<line class="tick" x1="795.7575" x2="789.7575" y1="488.983333333333" y2="488.983333333333" />
	<g class="axis" transform="translate(243.03,52.76)">
		<g >
			<line class="tick" x1="46.06" x2="46.06" y1="0" y2="6" />
			<line class="tick" x1="92.12" x2="92.12" y1="0" y2="6" />
			<line class="tick" x1="138.18" x2="138.18" y1="0" y2="6" />
		</g>
	</g>
	<g class="axis" transform="translate(243.03,528.64)">
		<g >
			<line class="tick" x1="0" x2="0" y1="0" y2="-6" />
			<line class="tick" x1="46.06" x2="46.06" y1="0" y2="-6" />
			<line class="tick" x1="92.12" x2="92.12" y1="0" y2="-6" />
			<line class="tick" x1="138.18" x2="138.18" y1="0" y2="-6" />
		</g>
	</g>
	<g class="axis" transform="translate(243.03,528.64)">
		<g >
			<text style="font-weight:normal;font-size:12px;fill:#000000;font-style:normal;font-family:Arial;" x="-3.34" y="12.76">0</text>
			<text style="font-size:12px;font-weight:normal;fill:#000000;font-style:normal;font-family:Arial;" x="36.05" y="12.76">100</text>
			<text style="font-weight:normal;font-size:12px;font-family:Arial;font-style:normal;fill:#000000;" x="82.11" y="12.76">200</text>
			<text style="font-size:12px;font-weight:normal;font-style:normal;font-family:Arial;fill:#000000;" x="128.17" y="12.76">300</text>
		</g>
	</g>
	<rect height="47.588" style="fill:#55a0fb;stroke-width:0" width="36.8485" x="243.03" y="68.6226666666667" />
	<rect height="47.588" style="fill:#55a0fb;stroke-width:0" width="4.6061" x="243.03" y="147.936" />
	<rect height="47.588" style="fill:#55a0fb;stroke-width:0" width="5.5273" x="243.03" y="227.249333333333" />
	<rect height="47.588" style="fill:#55a0fb;stroke-width:0" width="4.1455" x="243.03" y="306.562666666667" />
	<rect height="47.588" style="fill:#55a0fb;stroke-width:0" width="1.8424" x="243.03" y="385.876" />
	<rect height="47.588" style="fill:#55a0fb;stroke-width:0" width="4.1455" x="243.03" y="465.189333333333" />
	<g class="axis" transform="translate(427.2725,52.76)">
		<g >
			<line class="tick" x1="46.06" x2="46.06" y1="0" y2="6" />
			<line class="tick" x1="92.12" x2="92.12" y1="0" y2="6" />
			<line class="tick" x1="138.18" x2="138.18" y1="0" y2="6" />
		</g>
	</g>
	<g class="axis" transform="translate(427.2725,528.64)">
		<g >
			<line class="tick" x1="0" x2="0" y1="0" y2="-6" />
			<line class="tick" x1="46.06" x2="46.06" y1="0" y2="-6" />
			<line class="tick" x1="92.12" x2="92.12" y1="0" y2="-6" />
			<line class="tick" x1="138.18" x2="138.18" y1="0" y2="-6" />
		</g>
	</g>
	<g class="axis" transform="translate(427.2725,528.64)">
		<g >
			<text style="fill:#000000;font-family:Arial;font-style:normal;font-size:12px;font-weight:normal;" x="-3.34" y="12.76">0</text>
			<text style="fill:#000000;font-family:Arial;font-style:normal;font-size:12px;font-weight:normal;" x="36.05" y="12.76">100</text>
			<text style="font-size:12px;font-weight:normal;font-family:Arial;font-style:normal;fill:#000000;" x="82.11" y="12.76">200</text>
			<text style="fill:#000000;font-style:normal;font-family:Arial;font-weight:normal;font-size:12px;" x="128.17" y="12.76">300</text>
		</g>
	</g>
	<rect height="47.588" style="fill:#55a0fb;stroke-width:0" width="0" x="427.2725" y="68.6226666666667" />
	<rect height="47.588" style="fill:#55a0fb;stroke-width:0" width="10.5939" x="427.2725" y="147.936" />
	<rect height="47.588" style="fill:#55a0fb;stroke-width:0" width="18.4243" x="427.2725" y="227.249333333333" />
	<rect height="47.588" style="fill:#55a0fb;stroke-width:0" width="0" x="427.2725" y="306.562666666667" />
	<rect height="47.588" style="fill:#55a0fb;stroke-width:0" width="0" x="427.2725" y="385.876" />
	<rect height="47.588" style="fill:#55a0fb;stroke-width:0" width="0" x="427.2725" y="465.189333333333" />
	<g class="axis" transform="translate(611.515,52.76)">
		<g >
			<line class="tick" x1="46.06" x2="46.06" y1="0" y2="6" />
			<line class="tick" x1="92.12" x2="92.12" y1="0" y2="6" />
			<line class="tick" x1="138.18" x2="138.18" y1="0" y2="6" />
		</g>
	</g>
	<g class="axis" transform="translate(611.515,528.64)">
		<g >
			<line class="tick" x1="0" x2="0" y1="0" y2="-6" />
			<line class="tick" x1="46.06" x2="46.06" y1="0" y2="-6" />
			<line class="tick" x1="92.12" x2="92.12" y1="0" y2="-6" />
			<line class="tick" x1="138.18" x2="138.18" y1="0" y2="-6" />
		</g>
	</g>
	<g class="axis" transform="translate(611.515,528.64)">
		<g >
			<text style="font-size:12px;font-weight:normal;fill:#000000;font-family:Arial;font-style:normal;" x="-3.34" y="12.76">0</text>
			<text style="font-size:12px;font-weight:normal;font-style:normal;font-family:Arial;fill:#000000;" x="36.05" y="12.76">100</text>
			<text style="fill:#000000;font-style:normal;font-family:Arial;font-size:12px;font-weight:normal;" x="82.11" y="12.76">200</text>
			<text style="font-family:Arial;font-style:normal;fill:#000000;font-weight:normal;font-size:12px;" x="128.17" y="12.76">300</text>
		</g>
	</g>
	<rect height="47.588" style="fill:#55a0fb;stroke-width:0" width="172.2667" x="611.515" y="68.6226666666667" />
	<rect height="47.588" style="fill:#55a0fb;stroke-width:0" width="9.67269999999996" x="611.515" y="147.936" />
	<rect height="47.588" style="fill:#55a0fb;stroke-width:0" width="17.0424" x="611.515" y="227.249333333333" />
	<rect height="47.588" style="fill:#55a0fb;stroke-width:0" width="0" x="611.515" y="306.562666666667" />
	<rect height="47.588" style="fill:#55a0fb;stroke-width:0" width="0" x="611.515" y="385.876" />
	<rect height="47.588" style="fill:#55a0fb;stroke-width:0" width="0" x="611.515" y="465.189333333333" />
	<g class="axis" transform="translate(795.7575,52.76)">
		<g >
			<line class="tick" x1="46.06" x2="46.06" y1="0" y2="6" />
			<line class="tick" x1="92.12" x2="92.12" y1="0" y2="6" />
			<line class="tick" x1="138.18" x2="138.18" y1="0" y2="6" />
		</g>
	</g>
	<g class="axis" transform="translate(795.7575,528.64)">
		<g >
			<line class="tick" x1="0" x2="0" y1="0" y2="-6" />
			<line class="tick" x1="46.06" x2="46.06" y1="0" y2="-6" />
			<line class="tick" x1="92.12" x2="92.12" y1="0" y2="-6" />
			<line class="tick" x1="138.18" x2="138.18" y1="0" y2="-6" />
		</g>
	</g>
	<g class="axis" transform="translate(795.7575,528.64)">
		<g >
			<text style="fill:#000000;font-style:normal;font-family:Arial;font-weight:normal;font-size:12px;" x="-3.34" y="12.76">0</text>
			<text style="font-weight:normal;font-size:12px;font-family:Arial;font-style:normal;fill:#000000;" x="36.05" y="12.76">100</text>
			<text style="font-size:12px;font-weight:normal;font-family:Arial;font-style:normal;fill:#000000;" x="82.11" y="12.76">200</text>
			<text style="font-size:12px;font-weight:normal;font-style:normal;font-family:Arial;fill:#000000;" x="128.17" y="12.76">300</text>
		</g>
	</g>
	<rect height="47.588" style="fill:#55a0fb;stroke-width:0" width="40.994" x="795.7575" y="68.6226666666667" />
	<rect height="47.588" style="fill:#55a0fb;stroke-width:0" width="4.14549999999997" x="795.7575" y="147.936" />
	<rect height="47.588" style="fill:#55a0fb;stroke-width:0" width="7.36969999999997" x="795.7575" y="227.249333333333" />
	<rect height="47.588" style="fill:#55a0fb;stroke-width:0" width="0" x="795.7575" y="306.562666666667" />
	<rect height="47.588" style="fill:#55a0fb;stroke-width:0" width="0" x="795.7575" y="385.876" />
	<rect height="47.588" style="fill:#55a0fb;stroke-width:0" width="0" x="795.7575" y="465.189333333333" />
	<text class="xlab" x="554.39" y="560">Number of genes</text>
</svg>