<svg height="300" id="sbv1" width="600" xmlns="http://www.w3.org/2000/svg" xmlns:svg="http://www.w3.org/2000/svg" xmlns:xlink="http://www.w3.org/1999/xlink">
	<title id="sbv-title">The graph of SBV karyo</title>
	<desc id="sbv-desc">This graph was generated by SBV which was written by Peng. E-mail is aipeng0520@163.com</desc>
	<defs id="defs2">
		<style type="text/css"><![CDATA[text {
font-weight: normal;
fill-opacity: 1;
stroke-width: 0;
font-family: Arial;
font-style: normal;
font-size: 10px;
fill: #000000;
}

text.chr_label {
font-size: 12px;
font-weight: bold;
}

text.tick {
font-size: 10px;
}

line {
stroke-width: 1;
stroke: #000000;
}

svg {
fill: none;
stroke-width: 1;
stroke: #000000;
}

path {
stroke-width: 0;
}

]]></style>
	</defs>
	<g id="karyo3">
		<text class="chr_label" x="24" y="232.38">6A</text>
		<g class="ticks" transform="translate(43.34,238)">
			<g class="axis" transform="translate(0,0)">
				<g >
					<line class="tick" x1="76.82" x2="76.82" y1="0" y2="8" />
					<text style="font-family:Arial;font-style:normal;font-weight:normal;font-size:10px;fill:#000000;" x="67.1" y="19.3">32M</text>
					<line class="tick" x1="163" x2="163" y1="0" y2="8" />
					<text style="fill:#000000;font-size:10px;font-weight:normal;font-style:normal;font-family:Arial;" x="153.28" y="19.3">33M</text>
					<line class="tick" x1="249.19" x2="249.19" y1="0" y2="8" />
					<text style="fill:#000000;font-size:10px;font-style:normal;font-family:Arial;font-weight:normal;" x="239.47" y="19.3">34M</text>
					<line class="tick" x1="335.37" x2="335.37" y1="0" y2="8" />
					<text style="font-weight:normal;font-style:normal;font-family:Arial;fill:#000000;font-size:10px;" x="325.64" y="19.3">35M</text>
					<line class="tick" x1="421.55" x2="421.55" y1="0" y2="8" />
					<text style="font-weight:normal;font-style:normal;font-family:Arial;fill:#000000;font-size:10px;" x="411.83" y="19.3">36M</text>
					<line class="tick" x1="507.74" x2="507.74" y1="0" y2="8" />
					<text style="font-size:10px;fill:#000000;font-weight:normal;font-family:Arial;font-style:normal;" x="498.02" y="19.3">37M</text>
				</g>
			</g>
		</g>
		<g class="ticks" transform="translate(43.34,238)">
			<g class="axis" transform="translate(0,0)">
				<g >
					<line class="tick" x1="76.82" x2="76.82" y1="0" y2="4" />
					<line class="tick" x1="94.06" x2="94.06" y1="0" y2="4" />
					<line class="tick" x1="111.3" x2="111.3" y1="0" y2="4" />
					<line class="tick" x1="128.53" x2="128.53" y1="0" y2="4" />
					<line class="tick" x1="145.77" x2="145.77" y1="0" y2="4" />
					<line class="tick" x1="163" x2="163" y1="0" y2="4" />
					<line class="tick" x1="180.24" x2="180.24" y1="0" y2="4" />
					<line class="tick" x1="197.48" x2="197.48" y1="0" y2="4" />
					<line class="tick" x1="214.71" x2="214.71" y1="0" y2="4" />
					<line class="tick" x1="231.95" x2="231.95" y1="0" y2="4" />
					<line class="tick" x1="249.19" x2="249.19" y1="0" y2="4" />
					<line class="tick" x1="266.42" x2="266.42" y1="0" y2="4" />
					<line class="tick" x1="283.66" x2="283.66" y1="0" y2="4" />
					<line class="tick" x1="300.9" x2="300.9" y1="0" y2="4" />
					<line class="tick" x1="318.13" x2="318.13" y1="0" y2="4" />
					<line class="tick" x1="335.37" x2="335.37" y1="0" y2="4" />
					<line class="tick" x1="352.61" x2="352.61" y1="0" y2="4" />
					<line class="tick" x1="369.84" x2="369.84" y1="0" y2="4" />
					<line class="tick" x1="387.08" x2="387.08" y1="0" y2="4" />
					<line class="tick" x1="404.32" x2="404.32" y1="0" y2="4" />
					<line class="tick" x1="421.55" x2="421.55" y1="0" y2="4" />
					<line class="tick" x1="438.79" x2="438.79" y1="0" y2="4" />
					<line class="tick" x1="456.03" x2="456.03" y1="0" y2="4" />
					<line class="tick" x1="473.26" x2="473.26" y1="0" y2="4" />
					<line class="tick" x1="490.5" x2="490.5" y1="0" y2="4" />
					<line class="tick" x1="507.74" x2="507.74" y1="0" y2="4" />
					<line class="tick" x1="524.97" x2="524.97" y1="0" y2="4" />
				</g>
			</g>
		</g>
		<rect class="ideogram" height="20" rx="10" ry="10" style="fill:#969696;stroke-width:1;stroke:#000" width="532.66" x="43.34" y="218" />
		<g class="links">
			<path d="M267.17,228 Q267.87,28,268.57,228 H267.89 Q267.87,28,267.85,228 Z" style="fill: #99cc00; fill-opacity: 1; stroke: #000000; stroke-width: 1" />
			<path d="M263.86,228 Q264.765,28,265.67,228 H265.04 Q264.76,28,264.48,228 Z" style="fill: #99cc00; fill-opacity: 1; stroke: #000000; stroke-width: 1" />
			<path d="M90,228 Q214.085,28,338.17,228 H337.45 Q214.09,28,90.73,228 Z" style="fill: #99cc00; fill-opacity: 1; stroke: #000000; stroke-width: 1" />
			<path d="M311.73,228 Q327.905,28,344.08,228 H343.49 Q327.91,28,312.33,228 Z" style="fill: #99cc00; fill-opacity: 1; stroke: #000000; stroke-width: 1" />
			<path d="M85.99,228 Q116.785,28,147.58,228 H147.23 Q116.785,28,86.34,228 Z" style="fill: #99cc00; fill-opacity: 1; stroke: #000000; stroke-width: 1" />
			<path d="M259.77,228 Q294.83,28,329.89,228 H329.43 Q294.835,28,260.24,228 Z" style="fill: #99cc00; fill-opacity: 1; stroke: #000000; stroke-width: 1" />
		</g>
		<g class="plots" />
	</g>
</svg>