<svg height="1000" id="sbv1" width="1000" xmlns="http://www.w3.org/2000/svg" xmlns:svg="http://www.w3.org/2000/svg" xmlns:xlink="http://www.w3.org/1999/xlink">
	<title id="sbv-title">The graph of SBV tree</title>
	<desc id="sbv-desc">This graph was generated by SBV which was written by Peng. E-mail is aipeng0520@163.com</desc>
	<defs id="defs2">
		<marker class="arrow" id="marker5" markerHeight="10" markerUnits="strokeWidth" markerWidth="20" orient="auto" refX="20" refY="5" style="fill:#ff0000">
			<path d="M0,0 L20,5 L0,10 L10,5 z" />
		</marker>
		<marker class="arrow" id="marker6" markerHeight="10" markerUnits="strokeWidth" markerWidth="20" orient="auto" refX="20" refY="5" style="fill:#ff0000">
			<path d="M0,0 L20,5 L0,10 L10,5 z" />
		</marker>
		<style type="text/css"><![CDATA[path.heatmap {
stroke: #000000;
stroke-width: 0;
}

path.pie {
stroke-width: 0;
fill-opacity: 0.7;
}

path.marker {
stroke: #000000;
stroke-width: 0;
}

path.selectot {
stroke: #000000;
stroke-width: 1;
}

path.clade {
fill-opacity: 1;
fill: none;
stroke: #000000;
stroke-width: 1;
}

path.range {
fill-opacity: 1;
fill: none;
stroke-width: 0;
stroke: #000000;
}

text.scale {
font-weight: bold;
}

text {
fill-opacity: 1;
fill: #000000;
font-size: 12px;
font-family: Arial;
font-weight: normal;
stroke-width: 0;
font-style: normal;
}

text.leaf {
font-size: 14px;
font-weight: bold;
font-style: normal;
}

line.linkage {
stroke-dasharray: 4 4;
stroke: #444444;
stroke-width: 1;
}

line.scale {
stroke-width: 2;
}

line.tail {
stroke-width: 1;
}

line.hgt {
stroke-width: 1;
}

line {
stroke: #000000;
stroke-width: 1;
}

circle.marker {
fill-opacity: 0.7;
stroke-width: 0;
}

svg {
stroke-width: 1;
stroke: #000000;
fill: none;
fill-opacity: 1;
}

rect.marker {
stroke: #000000;
stroke-width: 0;
}

rect.heatmap {
stroke: #000000;
stroke-width: 0;
}

rect.selectot {
stroke-width: 1;
stroke: #000000;
}

rect.range {
fill-opacity: 1;
fill: none;
stroke: #000000;
stroke-width: 0;
}

rect {
stroke: #000000;
stroke-width: 1;
fill: none;
}

marker.arrow {
stroke-width: 0;
stroke: #000000;
fill: #000000;
}

]]></style>
	</defs>
	<g class="border" id="g3" />
	<g id="tree4">
		<path class="range" d="M847.787 713.327 A408 408 2.121 0 1 103.251 595.154 L148.722 584.249 A361.24 361.24 2.121 0 0 807.927 688.878 Z" style="fill:#0000ff" theta_type="angle" />
		<path class="range" d="M713.115 847.917 A408 408 2.592 0 1 343.975 876.988 L361.857 833.783 A361.24 361.24 2.592 0 0 688.69 808.043 Z" style="fill:#00ff00" theta_type="angle" />
		<line class="scale" theta_type="angle" x1="337.892" x2="397.246" y1="181.658" y2="298.214" />
		<text style="fill:#000000;font-size:12px;font-family:Arial;font-weight:normal;font-style:normal;" transform="rotate(-117,500,500)" x="861.24" y="504.38">0.1</text>
		<path class="range" d="M580.447 405.835 A123.85 123.85 0.707 0 1 614.418 452.594 L605.179 456.421 A113.85 113.85 0.707 0 0 573.952 413.438 Z" theta_type="angle" />
		<line class="leaf" id="node_13" theta_type="angle" x1="592.075" x2="786.018" y1="433.037" y2="291.987" />
		<text style="fill:#ff0000" transform="rotate(-36,500,500)" x="861.24" y="505.11">ML</text>
		<path class="range" d="M614.418 452.594 A123.85 123.85 1.178 0 1 623.471 509.676 L613.502 508.894 A113.85 113.85 1.178 0 0 605.179 456.421 Z" theta_type="angle" />
		<line class="leaf" id="node_14" theta_type="angle" x1="612.453" x2="843.336" y1="482.222" y2="445.721" />
		<line class="linkage" theta_type="angle" x1="843.336" x2="852.858" y1="445.721" y2="444.215" />
		<text style="fill:#ff0000" transform="rotate(-9,500,500)" x="861.24" y="505.11">PG</text>
		<path class="clade" d="M592.107 433.081 A113.85 113.85 0.94247779605 0 1 612.448 482.19" style="stroke:#ff0000" theta_type="angle" />
		<line class="clade" id="node_15" style="stroke:#ff0000" theta_type="angle" x1="524.001" x2="605.179" y1="490.056" y2="456.421" />
		<path class="range" d="M562.649 602.277 A119.94 119.94 2.592 0 1 509.417 619.57 L508.632 609.601 A109.94 109.94 2.592 0 0 557.426 593.75 Z" theta_type="angle" />
		<line class="leaf" id="node_6" style="stroke:#ff00cc" theta_type="angle" x1="534.019" x2="594.23" y1="604.544" y2="789.584" />
		<line class="linkage" theta_type="angle" x1="594.23" x2="610.54" y1="789.584" y2="839.708" />
		<text style="font-style:normal;font-weight:normal;font-family:Arial;fill:#000000;font-size:12px;" transform="rotate(72,500,500)" x="861.24" y="505.11">PC</text>
		<path class="range" d="M509.417 619.57 A119.94 119.94 3.063 0 1 454.133 610.823 L457.957 601.584 A109.94 109.94 3.063 0 0 508.632 609.601 Z" theta_type="angle" />
		<line class="leaf" id="node_7" style="stroke:#ff00cc" theta_type="angle" x1="482.766" x2="451.4" y1="608.581" y2="806.197" />
		<line class="linkage" theta_type="angle" x1="451.4" x2="444" y1="806.197" y2="852.823" />
		<text style="fill:#000000;font-size:12px;font-weight:normal;font-family:Arial;font-style:normal;" transform="rotate(-81,500,500)" x="100.12" y="505.11">PP</text>
		<path class="clade" d="M533.973 604.559 A109.94 109.94 2.82743338815 0 1 482.802 608.586" style="stroke:#ff00cc" theta_type="angle" />
		<line class="clade" id="node_8" style="stroke:#ff00cc" theta_type="angle" x1="506.814" x2="508.632" y1="586.522" y2="609.601" />
		<path class="range" d="M454.711 609.428 A118.43 118.43 3.534 0 1 409.909 576.872 L417.516 570.381 A108.43 108.43 3.534 0 0 458.535 600.188 Z" theta_type="angle" />
		<line class="leaf" id="node_3" style="stroke:#ff00cc" theta_type="angle" x1="436.259" x2="313.185" y1="587.716" y2="757.081" />
		<line class="linkage" theta_type="angle" x1="313.185" x2="289.994" y1="757.081" y2="788.995" />
		<text style="font-style:normal;font-weight:normal;font-family:Arial;font-size:12px;fill:#000000;" transform="rotate(-54,500,500)" x="97.43" y="505.11">CC</text>
		<path class="range" d="M409.909 576.872 A118.43 118.43 4.006 0 1 384.836 527.62 L394.56 525.288 A108.43 108.43 4.006 0 0 417.516 570.381 Z" theta_type="angle" />
		<line class="leaf" id="node_4" style="stroke:#ff00cc" theta_type="angle" x1="403.396" x2="215.434" y1="549.241" y2="645.047" />
		<line class="linkage" theta_type="angle" x1="215.434" x2="181.721" y1="645.047" y2="662.231" />
		<text style="font-size:12px;fill:#000000;font-family:Arial;font-weight:normal;font-style:normal;" transform="rotate(-27,500,500)" x="102.76" y="505.11">LB</text>
		<path class="clade" d="M436.266 587.722 A108.43 108.43 3.7699111842 0 1 403.388 549.226" style="stroke:#ff00cc" theta_type="angle" />
		<line class="clade" id="node_5" style="stroke:#ff00cc" theta_type="angle" x1="433.978" x2="417.516" y1="556.335" y2="570.381" />
		<path class="clade" d="M506.809 586.522 A86.79 86.79 3.0630528371625 0 1 434.004 556.366" style="stroke:#ff00cc" theta_type="angle" />
		<line class="clade" id="node_9" style="stroke:#ff00cc" theta_type="angle" x1="479.193" x2="466.81" y1="550.274" y2="580.193" />
		<path class="range" d="M847.787 713.327 A408 408 2.121 0 1 713.115 847.917 L688.69 808.043 A361.24 361.24 2.121 0 0 807.927 688.878 Z" style="fill:#004499;stroke:#004499" theta_type="angle" />
		<line class="leaf" id="node_2" style="stroke:#ff00cc" theta_type="angle" x1="538.481" x2="736.587" y1="538.466" y2="736.495" />
		<line class="linkage" theta_type="angle" x1="736.587" x2="752.656" y1="736.495" y2="752.558" />
		<text style="font-style:normal;font-size:12px;fill:#000000;font-family:Arial;font-weight:normal;" transform="rotate(45,500,500)" x="861.24" y="505.11">AG1IA</text>
		<path class="clade" d="M538.474 538.474 A54.41 54.41 2.356194490125 0 1 479.178 550.268" style="stroke:#ff00cc" theta_type="angle" />
		<line class="clade" id="node_10" style="stroke:#ff00cc" theta_type="angle" x1="506.165" x2="510.628" y1="530.952" y2="553.362" />
		<path class="range" d="M541.433 503.247 A41.56 41.56 1.649 0 1 535.426 521.73 L526.902 516.501 A31.56 31.56 1.649 0 0 531.464 502.466 Z" theta_type="angle" />
		<line class="leaf" id="node_11" theta_type="angle" x1="530.015" x2="816.926" y1="509.754" y2="602.991" />
		<line class="linkage" theta_type="angle" x1="816.926" x2="839.751" y1="602.991" y2="610.408" />
		<text style="font-family:Arial;font-weight:normal;font-size:12px;fill:#000000;font-style:normal;" transform="rotate(18,500,500)" x="861.24" y="505.11">CN</text>
		<path class="clade" d="M530.015 509.753 A31.56 31.56 1.8849555921 0 1 506.157 530.954" style="stroke:#00ff00" theta_type="angle" />
		<line class="clade" id="node_12" style="stroke:#00ff00" theta_type="angle" x1="517.259" x2="520.966" y1="519.419" y2="523.589" />
		<path class="clade" d="M524.002 490.058 A25.98 25.98 1.1780972450625 0 1 517.257 519.42" style="stroke:#ff0000" theta_type="angle" />
		<line class="clade" id="node_16" style="stroke:#ff0000" theta_type="angle" x1="517.454" x2="525.318" y1="504.017" y2="505.827" />
		<path class="range" d="M595.397 103.309 A408 408 0.236 0 1 765.019 189.792 L734.646 225.344 A361.24 361.24 0.236 0 0 584.463 148.773 Z" style="fill:#00ffff;stroke:#00ffff" theta_type="angle" />
		<line class="leaf" id="node_1" theta_type="angle" x1="508.127" x2="662.108" y1="484.04" y2="181.658" />
		<text style="font-size:12px;fill:#000000;font-weight:normal;font-family:Arial;font-style:normal;" transform="rotate(-63,500,500)" x="861.24" y="505.11">MG</text>
		<path class="clade" d="M508.131 484.042 A17.91 17.91 0.471238898025 0 1 517.455 504.01" style="stroke:#ff0000" theta_type="angle" />
		<line class="clade" id="node_18" style="stroke:#ff0000" theta_type="angle" x1="509.061" x2="516.228" y1="495.77" y2="492.423" />
		<path class="range" d="M495.324 480.554 A20 20 -0.236 0 1 504.676 480.554 L502.338 490.277 A10 10 -0.236 0 0 497.662 490.277 Z" theta_type="angle" />
		<line class="leaf" id="node_17" theta_type="angle" x1="500" x2="500" y1="490" y2="190.43" />
		<line class="linkage" theta_type="angle" x1="500" x2="500" y1="190.43" y2="142.76" />
		<text style="fill:#44ffcc" transform="rotate(-90,500,500)" x="861.24" y="505.11">UM</text>
		<path class="clade" d="M500 490 A10 10 0 0 1 509.061 495.769" theta_type="angle" />
		<line class="tail" id="node_19" theta_type="angle" x1="500" x2="505.371" y1="500" y2="491.565" />
		<line class="hgt" marker-end="url(#marker5)" style="stroke:#ff0000" x1="585.1175" x2="374.722" y1="332.849" y2="672.3985" />
		<line class="hgt" marker-end="url(#marker6)" style="stroke:#ff0000" x1="507.723" x2="727.8945" y1="598.0615" y2="463.9715" />
		<path class="marker" d="M334.032 901.012 A434 434 3.534 0 1 169.852 781.706 L180.502 772.618 A420 420 3.534 0 0 339.386 888.076 Z" style="fill:#fb6a4a;" theta_type="angle" />
		<path class="marker" d="M900.948 333.876 A434 434 1.178 0 1 932.674 533.906 L918.716 532.812 A420 420 1.178 0 0 888.014 339.235 Z" style="fill:#6baed6;" theta_type="angle" />
		<path class="marker" d="M869.949 726.922 A434 434 2.121 0 1 726.696 870.088 L719.383 858.15 A420 420 2.121 0 0 858.016 719.602 Z" style="fill:#fb6a4a;" theta_type="angle" />
		<path class="marker" d="M781.907 170.024 A434 434 0.707 0 1 900.948 333.876 L888.014 339.235 A420 420 0.707 0 0 772.813 180.668 Z" style="fill:#000000;" theta_type="angle" />
		<path class="marker" d="M534.074 932.66 A434 434 3.063 0 1 334.032 901.012 L339.386 888.076 A420 420 3.063 0 0 532.975 918.704 Z" style="fill:#fb6a4a;" theta_type="angle" />
		<path class="marker" d="M398.524 78.03 A434 434 -0.236 0 1 601.476 78.03 L598.202 91.642 A420 420 -0.236 0 0 401.798 91.642 Z" style="fill:#fff450;" theta_type="angle" />
		<path class="marker" d="M932.674 533.906 A434 434 1.649 0 1 869.949 726.922 L858.016 719.602 A420 420 1.649 0 0 918.716 532.812 Z" style="fill:#6baed6;" theta_type="angle" />
		<path class="marker" d="M726.696 870.088 A434 434 2.592 0 1 534.074 932.66 L532.975 918.704 A420 420 2.592 0 0 719.383 858.15 Z" style="fill:#fb6a4a;" theta_type="angle" />
		<path class="marker" d="M169.852 781.706 A434 434 4.006 0 1 77.968 601.218 L91.582 597.953 A420 420 4.006 0 0 180.502 772.618 Z" style="fill:#fb6a4a;" theta_type="angle" />
		<path class="marker" d="M601.476 78.03 A434 434 0.236 0 1 781.907 170.024 L772.813 180.668 A420 420 0.236 0 0 598.202 91.642 Z" style="fill:#74c476;" theta_type="angle" />
		<path class="marker" d="M921.272 325.455 A456 456 1.178 0 1 954.606 535.625 L940.649 534.531 A442 442 1.178 0 0 908.338 330.814 Z" style="fill:#fb6a4a;" theta_type="angle" />
		<path class="marker" d="M325.619 921.34 A456 456 3.534 0 1 153.116 795.986 L163.766 786.898 A442 442 3.534 0 0 330.973 908.404 Z" style="fill:#fdbcae;" theta_type="angle" />
		<path class="marker" d="M888.703 738.425 A456 456 2.121 0 1 738.187 888.848 L730.874 876.91 A442 442 2.121 0 0 876.769 731.104 Z" style="fill:#fdcdc2;" theta_type="angle" />
		<path class="marker" d="M535.801 954.592 A456 456 3.063 0 1 325.619 921.34 L330.973 908.404 A442 442 3.063 0 0 534.702 940.636 Z" style="fill:#fc9b86;" theta_type="angle" />
		<path class="marker" d="M796.197 153.297 A456 456 0.707 0 1 921.272 325.455 L908.338 330.814 A442 442 0.707 0 0 787.104 163.941 Z" style="fill:#fb8b72;" theta_type="angle" />
		<path class="marker" d="M738.187 888.848 A456 456 2.592 0 1 535.801 954.592 L534.702 940.636 A442 442 2.592 0 0 730.874 876.91 Z" style="fill:#fcac9a;" theta_type="angle" />
		<path class="marker" d="M393.38 56.64 A456 456 -0.236 0 1 606.62 56.64 L603.346 70.252 A442 442 -0.236 0 0 396.654 70.252 Z" style="fill:#feeeea;" theta_type="angle" />
		<path class="marker" d="M954.606 535.625 A456 456 1.649 0 1 888.703 738.425 L876.769 731.104 A442 442 1.649 0 0 940.649 534.531 Z" style="fill:#feddd6;" theta_type="angle" />
		<path class="marker" d="M153.116 795.986 A456 456 4.006 0 1 56.575 606.349 L70.189 603.084 A442 442 4.006 0 0 163.766 786.898 Z" style="fill:#fdb4a4;" theta_type="angle" />
		<path class="marker" d="M606.62 56.64 A456 456 0.236 0 1 796.197 153.297 L787.104 163.941 A442 442 0.236 0 0 603.346 70.252 Z" style="fill:#ffffff;" theta_type="angle" />
		<g >
			<g id="g7" transform="translate(500,340.215)">
				<path class="pie" d="M0 -10 A10 10 0 0 1 4.94251 8.69319 L0 0 A0 0 0 0 0 0 0 Z" style="fill: #6baed6" />
			</g>
			<g id="g8" transform="translate(500,340.215)">
				<path class="pie" d="M4.94251 8.69319 A10 10 2.62462 1 1 -4.59298 -8.88282 L0 0 A0 0 2.62462 1 0 0 0 Z" style="fill: #fb6a4a" />
			</g>
			<g id="g9" transform="translate(500,340.215)">
				<path class="pie" d="M-4.59298 -8.88282 A10 10 5.80598 0 1 5e-05 -10 L0 0 A0 0 5.80598 0 0 0 0 Z" style="fill: #74c476" />
			</g>
		</g>
		<g >
			<g id="g10" transform="translate(727.8945,463.9715)">
				<path class="pie" d="M0 -10 A10 10 0 0 1 9.79791 2.00025 L0 0 A0 0 0 0 0 0 0 Z" style="fill: #6baed6" />
			</g>
			<g id="g11" transform="translate(727.8945,463.9715)">
				<path class="pie" d="M9.79791 2.00025 A10 10 1.77218 0 1 -8.3794 5.45763 L0 0 A0 0 1.77218 0 0 0 0 Z" style="fill: #fb6a4a" />
			</g>
			<g id="g12" transform="translate(727.8945,463.9715)">
				<path class="pie" d="M-8.3794 5.45763 A10 10 4.13509 0 1 5e-05 -10 L0 0 A0 0 4.13509 0 0 0 0 Z" style="fill: #74c476" />
			</g>
		</g>
		<g >
			<g id="g13" transform="translate(508.3965,542.157)">
				<path class="pie" d="M0 -10 A10 10 0 0 1 8.95164 -4.45736 L0 0 A0 0 0 0 0 0 0 Z" style="fill: #6baed6" />
			</g>
			<g id="g14" transform="translate(508.3965,542.157)">
				<path class="pie" d="M8.95164 -4.45736 A10 10 1.1088 0 1 -0.92266 9.95734 L0 0 A0 0 1.1088 0 0 0 0 Z" style="fill: #fb6a4a" />
			</g>
			<g id="g15" transform="translate(508.3965,542.157)">
				<path class="pie" d="M-0.92266 9.95734 A10 10 3.23399 0 1 5e-05 -10 L0 0 A0 0 3.23399 0 0 0 0 Z" style="fill: #74c476" />
			</g>
		</g>
		<g >
			<g id="g16" transform="translate(585.1175,332.849)">
				<path class="pie" d="M0 -10 A10 10 0 1 1 -2.46762 9.69076 L0 0 A0 0 0 1 0 0 0 Z" style="fill: #6baed6" />
			</g>
			<g id="g17" transform="translate(585.1175,332.849)">
				<path class="pie" d="M-2.46762 9.69076 A10 10 3.39093 0 1 -9.97204 -0.74731 L0 0 A0 0 3.39093 0 0 0 0 Z" style="fill: #fb6a4a" />
			</g>
			<g id="g18" transform="translate(585.1175,332.849)">
				<path class="pie" d="M-9.97204 -0.74731 A10 10 4.78719 0 1 5e-05 -10 L0 0 A0 0 4.78719 0 0 0 0 Z" style="fill: #74c476" />
			</g>
		</g>
	</g>
</svg>