<svg height="800" id="sbv1" width="800" xmlns="http://www.w3.org/2000/svg" xmlns:svg="http://www.w3.org/2000/svg" xmlns:xlink="http://www.w3.org/1999/xlink">
	<title id="sbv-title">The graph of SBV karyo</title>
	<desc id="sbv-desc">This graph was generated by SBV which was written by Peng. E-mail is aipeng0520@163.com</desc>
	<defs id="defs2">
		<clipPath clipPathUnits="UserSpaceOnUse" id="ideogram_clip" style="evenodd">
			<path d="M360 138 A262 262 6.283185307 1 1 359 138 L359 0 A400 400  6.283185307 1 0 360 0" style="stroke-width:0;fill:#fff" />
		</clipPath>
		<symbol class="symbol" id="symbol5" viewBox="0 0 40 20">
			<path arrow="0" d="M38.386 0.167 A79 79 1.446 0 1 38.391 19.787 L0.683999999999997 15.079 A41 41 1.446 0 0 0.680999999999997 4.897 Z" style="fill: #58ba8d; fill-opacity: 1; stroke: none; stroke-width: 1" theta_type="theta" />
		</symbol>
		<symbol class="symbol" id="symbol6" viewBox="0 0 40 20">
			<path d="M1 19 A16 16 0 1 1 39 19" style="fill: #e07477; fill-opacity: 1; stroke: none; stroke-width: 1" />
		</symbol>
		<linearGradient id="color7" x1="0" x2="1" y1="1" y2="1">
			<stop offset="0" stop-color="#00ff00" />
			<stop offset="0.5" stop-color="#ffffff" />
			<stop offset="1" stop-color="#ff0000" />
		</linearGradient>
		<symbol class="symbol" id="symbol9" viewBox="0 0 80 20">
			<rect height="18" style="fill: url(#color7); fill-opacity: 1; stroke: none; stroke-width: 1" width="78" x="1" y="1" />
		</symbol>
		<style type="text/css"><![CDATA[line {
stroke: #000000;
stroke-width: 1;
}

text.tick {
font-size: 10px;
}

text {
stroke-width: 0;
font-style: normal;
fill: #000000;
font-weight: normal;
font-family: Arial;
font-size: 10px;
fill-opacity: 1;
}

text.chr_label {
font-weight: bold;
font-size: 12px;
fill: #ffffff;
}

path {
stroke-width: 0;
}

svg {
fill: none;
stroke-width: 1;
stroke: #000000;
}

]]></style>
	</defs>
	<g id="karyo3">
		<path arrow="0" class="ideogram" d="M360 160 A240 240 0 0 1 432.757 171.294 L438.82 152.235 A260 260 0 0 0 360 140 Z" style="fill:#26a56d;stroke-width:0;stroke:#000" theta_type="angle" />
		<text class="chr_label" transform="rotate(8.824,360,400)" x="325.325" y="154.38">GO:0055001</text>
		<path arrow="0" class="ideogram" d="M434.128 171.735 A240 240 0.314 0 1 499.839 204.948 L511.492 188.694 A260 260 0.314 0 0 440.305 152.713 Z" style="fill:#26a56d;stroke-width:0;stroke:#000" theta_type="angle" />
		<text class="chr_label" transform="rotate(26.824,360,400)" x="325.325" y="154.38">GO:0055002</text>
		<path arrow="0" class="ideogram" d="M501.007 205.791 A240 240 0.628 0 1 553.246 257.677 L569.35 245.816 A260 260 0.628 0 0 512.757 189.607 Z" style="fill:#26a56d;stroke-width:0;stroke:#000" theta_type="angle" />
		<text class="chr_label" transform="rotate(44.824,360,400)" x="325.325" y="154.38">GO:0032502</text>
		<path arrow="0" class="ideogram" d="M554.097 258.839 A240 240 0.942 0 1 587.756 324.323 L606.736 318.016 A260 260 0.942 0 0 570.271 247.075 Z" style="fill:#26a56d;stroke-width:0;stroke:#000" theta_type="angle" />
		<text class="chr_label" transform="rotate(62.824,360,400)" x="325.325" y="154.38">GO:0048856</text>
		<path arrow="0" class="ideogram" d="M588.28 325.919 A240 240 1.257 0 1 599.996 398.609 L619.996 398.493 A260 260 1.257 0 0 607.304 319.745 Z" style="fill:#26a56d;stroke-width:0;stroke:#000" theta_type="angle" />
		<text class="chr_label" transform="rotate(80.824,360,400)" x="325.325" y="154.38">GO:0061061</text>
		<path arrow="0" class="ideogram" d="M600 400.049 A240 240 1.571 0 1 588.691 472.803 L607.749 478.87 A260 260 1.571 0 0 620 400.053 Z" style="fill:#26a56d;stroke-width:0;stroke:#000" theta_type="angle" />
		<text class="chr_label" transform="rotate(-81.176,360,400)" x="325.655" y="654.38">GO:0051146</text>
		<path arrow="0" class="ideogram" d="M588.25 474.174 A240 240 1.885 0 1 555.023 539.879 L571.275 551.535 A260 260 1.885 0 0 607.271 480.355 Z" style="fill:#26a56d;stroke-width:0;stroke:#000" theta_type="angle" />
		<text class="chr_label" transform="rotate(-63.176,360,400)" x="325.325" y="654.38">GO:0003012</text>
		<path arrow="0" class="ideogram" d="M554.18 541.046 A240 240 2.199 0 1 502.284 593.275 L514.141 609.381 A260 260 2.199 0 0 570.362 552.8 Z" style="fill:#26a56d;stroke-width:0;stroke:#000" theta_type="angle" />
		<text class="chr_label" transform="rotate(-45.176,360,400)" x="325.325" y="654.38">GO:0042692</text>
		<path arrow="0" class="ideogram" d="M501.122 594.125 A240 240 2.513 0 1 435.631 627.772 L441.934 646.753 A260 260 2.513 0 0 512.882 610.303 Z" style="fill:#26a56d;stroke-width:0;stroke:#000" theta_type="angle" />
		<text class="chr_label" transform="rotate(-27.176,360,400)" x="325.325" y="654.38">GO:0006936</text>
		<path arrow="0" class="ideogram" d="M434.263 628.221 A240 240 2.827 0 1 361.582 639.995 L361.714 659.994 A260 260 2.827 0 0 440.452 647.24 Z" style="fill:#26a56d;stroke-width:0;stroke:#000" theta_type="angle" />
		<text class="chr_label" transform="rotate(-9.17599999999999,360,400)" x="325.325" y="654.38">GO:0048731</text>
		<path arrow="0" class="ideogram" d="M359.902 640 A240 240 3.142 0 1 287.15 628.676 L281.079 647.733 A260 260 3.142 0 0 359.894 660 Z" style="fill:#26a56d;stroke-width:0;stroke:#000" theta_type="angle" />
		<text class="chr_label" transform="rotate(8.82400000000001,360,400)" x="325.325" y="654.38">GO:0030154</text>
		<path arrow="0" class="ideogram" d="M285.779 628.235 A240 240 3.456 0 1 220.082 594.995 L208.422 611.244 A260 260 3.456 0 0 279.594 647.255 Z" style="fill:#26a56d;stroke-width:0;stroke:#000" theta_type="angle" />
		<text class="chr_label" transform="rotate(26.824,360,400)" x="325.325" y="654.38">GO:0048869</text>
		<path arrow="0" class="ideogram" d="M218.914 594.152 A240 240 3.77 0 1 166.696 542.245 L150.587 554.098 A260 260 3.77 0 0 207.157 610.331 Z" style="fill:#26a56d;stroke-width:0;stroke:#000" theta_type="angle" />
		<text class="chr_label" transform="rotate(44.824,360,400)" x="325.325" y="654.38">GO:0030239</text>
		<path arrow="0" class="ideogram" d="M165.846 541.082 A240 240 4.084 0 1 132.213 475.585 L113.231 481.883 A260 260 4.084 0 0 149.666 552.839 Z" style="fill:#26a56d;stroke-width:0;stroke:#000" theta_type="angle" />
		<text class="chr_label" transform="rotate(62.824,360,400)" x="325.325" y="654.38">GO:0006941</text>
		<path arrow="0" class="ideogram" d="M131.763 474.217 A240 240 4.398 0 1 120.005 401.533 L100.005 401.661 A260 260 4.398 0 0 112.744 480.401 Z" style="fill:#26a56d;stroke-width:0;stroke:#000" theta_type="angle" />
		<text class="chr_label" transform="rotate(80.824,360,400)" x="325.325" y="654.38">GO:0009653</text>
		<path arrow="0" class="ideogram" d="M120 400.093 A240 240 4.712 0 1 131.266 327.332 L112.204 321.277 A260 260 4.712 0 0 100 400.101 Z" style="fill:#26a56d;stroke-width:0;stroke:#000" theta_type="angle" />
		<text class="chr_label" transform="rotate(278.824,360,400)" x="325.325" y="154.38">GO:0007275</text>
		<path arrow="0" class="ideogram" d="M131.78 325.733 A240 240 5.027 0 1 165.034 260.042 L148.787 248.379 A260 260 5.027 0 0 112.762 319.544 Z" style="fill:#26a56d;stroke-width:0;stroke:#000" theta_type="angle" />
		<text class="chr_label" transform="rotate(296.824,360,400)" x="325.325" y="154.38">GO:0051239</text>
		<path arrow="0" class="ideogram" d="M165.877 258.875 A240 240 5.341 0 1 217.795 206.667 L205.944 190.556 A260 260 5.341 0 0 149.7 247.114 Z" style="fill:#26a56d;stroke-width:0;stroke:#000" theta_type="angle" />
		<text class="chr_label" transform="rotate(314.824,360,400)" x="325.325" y="154.38">GO:0009888</text>
		<path arrow="0" class="ideogram" d="M218.957 205.817 A240 240 5.655 0 1 284.462 172.197 L278.167 153.214 A260 260 5.655 0 0 207.204 189.635 Z" style="fill:#26a56d;stroke-width:0;stroke:#000" theta_type="angle" />
		<text class="chr_label" transform="rotate(332.824,360,400)" x="325.325" y="154.38">GO:0048513</text>
		<path arrow="0" class="ideogram" d="M285.83 171.748 A240 240 5.969 0 1 358.516 160.005 L358.392 140.005 A260 260 5.969 0 0 279.649 152.727 Z" style="fill:#26a56d;stroke-width:0;stroke:#000" theta_type="angle" />
		<text class="chr_label" transform="rotate(350.824,360,400)" x="325.325" y="154.38">GO:0014706</text>
		<g class="plots">
			<g class="plot">
				<g class="scatter">
					<circle clip-path="url(#ideogram_clip)" cx="174.221" cy="215.256" r="27.2921108742004" style="stroke:black;stroke-width:0;fill:#cb181d;fill-opacity:0.6" />
				</g>
				<text class="leaf" text-anchor="end" transform="rotate(44.84,360,400)" x="70.708" y="400">203</text>
				<g class="scatter">
					<circle clip-path="url(#ideogram_clip)" cx="126.889" cy="519.597" r="20.5970149253731" style="stroke:black;stroke-width:0;fill:#cb181d;fill-opacity:0.6" />
				</g>
				<text class="leaf" text-anchor="end" transform="rotate(-27.16,360,400)" x="77.403" y="400">46</text>
				<g class="scatter">
					<circle clip-path="url(#ideogram_clip)" cx="618.659" cy="358.292" r="23.1556503198294" style="stroke:black;stroke-width:0;fill:#99000d;fill-opacity:0.6" />
				</g>
				<text class="leaf" text-anchor="start" transform="rotate(-9.16,360,400)" x="645.156" y="400">106</text>
				<g class="scatter">
					<circle clip-path="url(#ideogram_clip)" cx="478.293" cy="166.225" r="20.8955223880597" style="stroke:black;stroke-width:0;fill:#99000d;fill-opacity:0.6" />
				</g>
				<text class="leaf" text-anchor="start" transform="rotate(-63.16,360,400)" x="642.896" y="400">53</text>
				<g class="scatter">
					<circle clip-path="url(#ideogram_clip)" cx="479.597" cy="633.111" r="21.4498933901919" style="stroke:black;stroke-width:0;fill:#cb181d;fill-opacity:0.6" />
				</g>
				<text class="leaf" text-anchor="start" transform="rotate(62.84,360,400)" x="643.45" y="400">66</text>
				<g class="scatter">
					<circle clip-path="url(#ideogram_clip)" cx="101.112" cy="359.737" r="36.4605543710021" style="stroke:black;stroke-width:0;fill:#cb181d;fill-opacity:0.6" />
				</g>
				<text class="leaf" text-anchor="end" transform="rotate(8.84000000000003,360,400)" x="61.539" y="400">418</text>
				<g class="scatter">
					<circle clip-path="url(#ideogram_clip)" cx="544.744" cy="214.221" r="40" style="stroke:black;stroke-width:0;fill:#99000d;fill-opacity:0.6" />
				</g>
				<text class="leaf" text-anchor="start" transform="rotate(-45.16,360,400)" x="662" y="400">501</text>
				<g class="scatter">
					<circle clip-path="url(#ideogram_clip)" cx="593.775" cy="518.293" r="21.9189765458422" style="stroke:black;stroke-width:0;fill:#99000d;fill-opacity:0.6" />
				</g>
				<text class="leaf" text-anchor="start" transform="rotate(26.84,360,400)" x="643.919" y="400">77</text>
				<g class="scatter">
					<circle clip-path="url(#ideogram_clip)" cx="319.737" cy="658.888" r="33.6886993603412" style="stroke:black;stroke-width:0;fill:#cb181d;fill-opacity:0.6" />
				</g>
				<text class="leaf" text-anchor="end" transform="rotate(-81.16,360,400)" x="64.311" y="400">353</text>
				<g class="scatter">
					<circle clip-path="url(#ideogram_clip)" cx="175.256" cy="585.779" r="20" style="stroke:black;stroke-width:0;fill:#cb181d;fill-opacity:0.6" />
				</g>
				<text class="leaf" text-anchor="end" transform="rotate(-45.16,360,400)" x="78" y="400">32</text>
				<g class="scatter">
					<circle clip-path="url(#ideogram_clip)" cx="126.225" cy="281.707" r="30.9594882729211" style="stroke:black;stroke-width:0;fill:#cb181d;fill-opacity:0.6" />
				</g>
				<text class="leaf" text-anchor="end" transform="rotate(26.84,360,400)" x="67.041" y="400">289</text>
				<g class="scatter">
					<circle clip-path="url(#ideogram_clip)" cx="400.263" cy="141.112" r="21.1087420042644" style="stroke:black;stroke-width:0;fill:#99000d;fill-opacity:0.6" />
				</g>
				<text class="leaf" text-anchor="start" transform="rotate(-81.16,360,400)" x="643.109" y="400">58</text>
				<g class="scatter">
					<circle clip-path="url(#ideogram_clip)" cx="240.403" cy="166.889" r="31.5565031982942" style="stroke:black;stroke-width:0;fill:#cb181d;fill-opacity:0.6" />
				</g>
				<text class="leaf" text-anchor="end" transform="rotate(62.84,360,400)" x="66.443" y="400">303</text>
				<g class="scatter">
					<circle clip-path="url(#ideogram_clip)" cx="545.779" cy="584.744" r="21.8336886993603" style="stroke:black;stroke-width:0;fill:#99000d;fill-opacity:0.6" />
				</g>
				<text class="leaf" text-anchor="start" transform="rotate(44.84,360,400)" x="643.834" y="400">75</text>
				<g class="scatter">
					<circle clip-path="url(#ideogram_clip)" cx="593.111" cy="280.403" r="39.0618336886994" style="stroke:black;stroke-width:0;fill:#99000d;fill-opacity:0.6" />
				</g>
				<text class="leaf" text-anchor="start" transform="rotate(-27.16,360,400)" x="661.062" y="400">479</text>
				<g class="scatter">
					<circle clip-path="url(#ideogram_clip)" cx="241.707" cy="633.775" r="34.3283582089552" style="stroke:black;stroke-width:0;fill:#cb181d;fill-opacity:0.6" />
				</g>
				<text class="leaf" text-anchor="end" transform="rotate(-63.16,360,400)" x="63.672" y="400">368</text>
				<g class="scatter">
					<circle clip-path="url(#ideogram_clip)" cx="318.292" cy="141.341" r="21.6631130063966" style="stroke:black;stroke-width:0;fill:#ef3b2c;fill-opacity:0.6" />
				</g>
				<text class="leaf" text-anchor="end" transform="rotate(80.84,360,400)" x="76.337" y="400">71</text>
				<g class="scatter">
					<circle clip-path="url(#ideogram_clip)" cx="618.888" cy="440.263" r="21.4925373134328" style="stroke:black;stroke-width:0;fill:#99000d;fill-opacity:0.6" />
				</g>
				<text class="leaf" text-anchor="start" transform="rotate(8.84,360,400)" x="643.493" y="400">67</text>
				<g class="scatter">
					<circle clip-path="url(#ideogram_clip)" cx="401.708" cy="658.659" r="35.863539445629" style="stroke:black;stroke-width:0;fill:#cb181d;fill-opacity:0.6" />
				</g>
				<text class="leaf" text-anchor="start" transform="rotate(80.84,360,400)" x="657.864" y="400">404</text>
				<g class="scatter">
					<circle clip-path="url(#ideogram_clip)" cx="101.341" cy="441.708" r="30.0639658848614" style="stroke:black;stroke-width:0;fill:#cb181d;fill-opacity:0.6" />
				</g>
				<text class="leaf" text-anchor="end" transform="rotate(-9.15999999999997,360,400)" x="67.936" y="400">268</text>
			</g>
			<g class="plot">
				<path arrow="0" d="M469.179 320.597 A135 135 0.942 0 1 488.113 357.431 L431.174 376.351 A75 75 0.942 0 0 420.655 355.887 Z" style="stroke-width:0;fill:#edf8e9" theta_type="angle" />
				<path arrow="0" d="M505.572 294.129 A180 180 0.942 0 1 530.817 343.242 L488.113 357.431 A135 135 0.942 0 0 469.179 320.597 Z" style="stroke-width:0;fill:#fffcd5" theta_type="angle" />
				<path arrow="0" d="M541.966 267.661 A225 225 0.942 0 1 573.522 329.052 L530.817 343.242 A180 180 0.942 0 0 505.572 294.129 Z" style="stroke-width:0;fill:#fee5d9" theta_type="angle" />
				<path d="M420.676 355.916 A75 75 0.94247779605 0 1 431.185 376.385" style="stroke:#c7e9c0;stroke-width:1;fill:none" theta_type="angle" />
				<path d="M432.812 347.099 A90 90 0.94247779605 0 1 445.422 371.662" style="stroke:#c7e9c0;stroke-width:1;fill:none" theta_type="angle" />
				<path d="M444.947 338.283 A105 105 0.94247779605 0 1 459.659 366.939" style="stroke:#c7e9c0;stroke-width:1;fill:none" theta_type="angle" />
				<path d="M457.082 329.466 A120 120 0.94247779605 0 1 473.896 362.216" style="stroke:#c7e9c0;stroke-width:1;fill:none" theta_type="angle" />
				<path d="M469.217 320.649 A135 135 0.94247779605 0 1 488.133 357.492" style="stroke:#c7e9c0;stroke-width:1;fill:none" theta_type="angle" />
				<path d="M481.353 311.832 A150 150 0.94247779605 0 1 502.37 352.769" style="stroke:#fff9ae;stroke-width:1;fill:none" theta_type="angle" />
				<path d="M493.488 303.015 A165 165 0.94247779605 0 1 516.607 348.046" style="stroke:#fff9ae;stroke-width:1;fill:none" theta_type="angle" />
				<path d="M505.623 294.199 A180 180 0.94247779605 0 1 530.844 343.323" style="stroke:#fff9ae;stroke-width:1;fill:none" theta_type="angle" />
				<path d="M505.623 294.199 A180 180 0.94247779605 0 1 530.844 343.323" style="stroke:#fcbba1;stroke-width:1;fill:none" theta_type="angle" />
				<path d="M517.758 285.382 A195 195 0.94247779605 0 1 545.081 338.6" style="stroke:#fcbba1;stroke-width:1;fill:none" theta_type="angle" />
				<path d="M529.894 276.565 A210 210 0.94247779605 0 1 559.318 333.877" style="stroke:#fcbba1;stroke-width:1;fill:none" theta_type="angle" />
				<path d="M542.029 267.748 A225 225 0.94247779605 0 1 573.555 329.154" style="stroke:#fcbba1;stroke-width:1;fill:none" theta_type="angle" />
				<path arrow="0" d="M435.024 345.551 A92.7 92.7 0.943 0 1 448 370.858 L431.197 376.422 A75 75 0.943 0 0 420.699 355.948 Z" style="stroke:#ffffff;stroke-width:0;fill:#26a56d" theta_type="angle" />
				<path arrow="0" d="M469.226 479.338 A135 135 2.199 0 1 440.035 508.717 L404.464 460.398 A75 75 2.199 0 0 420.681 444.077 Z" style="stroke-width:0;fill:#edf8e9" theta_type="angle" />
				<path arrow="0" d="M505.635 505.785 A180 180 2.199 0 1 466.713 544.956 L440.035 508.717 A135 135 2.199 0 0 469.226 479.338 Z" style="stroke-width:0;fill:#fffcd5" theta_type="angle" />
				<path arrow="0" d="M542.044 532.231 A225 225 2.199 0 1 493.391 581.195 L466.713 544.956 A180 180 2.199 0 0 505.635 505.785 Z" style="stroke-width:0;fill:#fee5d9" theta_type="angle" />
				<path d="M420.676 444.084 A75 75 2.19911485745 0 1 404.457 460.404" style="stroke:#c7e9c0;stroke-width:1;fill:none" theta_type="angle" />
				<path d="M432.812 452.901 A90 90 2.19911485745 0 1 413.348 472.484" style="stroke:#c7e9c0;stroke-width:1;fill:none" theta_type="angle" />
				<path d="M444.947 461.717 A105 105 2.19911485745 0 1 422.24 484.565" style="stroke:#c7e9c0;stroke-width:1;fill:none" theta_type="angle" />
				<path d="M457.082 470.534 A120 120 2.19911485745 0 1 431.131 496.646" style="stroke:#c7e9c0;stroke-width:1;fill:none" theta_type="angle" />
				<path d="M469.217 479.351 A135 135 2.19911485745 0 1 440.022 508.726" style="stroke:#c7e9c0;stroke-width:1;fill:none" theta_type="angle" />
				<path d="M481.353 488.168 A150 150 2.19911485745 0 1 448.914 520.807" style="stroke:#fff9ae;stroke-width:1;fill:none" theta_type="angle" />
				<path d="M493.488 496.985 A165 165 2.19911485745 0 1 457.805 532.888" style="stroke:#fff9ae;stroke-width:1;fill:none" theta_type="angle" />
				<path d="M505.623 505.801 A180 180 2.19911485745 0 1 466.697 544.968" style="stroke:#fff9ae;stroke-width:1;fill:none" theta_type="angle" />
				<path d="M505.623 505.801 A180 180 2.19911485745 0 1 466.697 544.968" style="stroke:#fcbba1;stroke-width:1;fill:none" theta_type="angle" />
				<path d="M517.758 514.618 A195 195 2.19911485745 0 1 475.588 557.049" style="stroke:#fcbba1;stroke-width:1;fill:none" theta_type="angle" />
				<path d="M529.894 523.435 A210 210 2.19911485745 0 1 484.479 569.13" style="stroke:#fcbba1;stroke-width:1;fill:none" theta_type="angle" />
				<path d="M542.029 532.252 A225 225 2.19911485745 0 1 493.371 581.211" style="stroke:#fcbba1;stroke-width:1;fill:none" theta_type="angle" />
				<path arrow="0" d="M455.2 469.296 A117.75 117.75 2.2 0 1 429.808 494.826 L404.464 460.398 A75 75 2.2 0 0 420.637 444.138 Z" style="stroke:#ffffff;stroke-width:0;fill:#26a56d" theta_type="angle" />
				<path arrow="0" d="M318.251 528.382 A135 135 3.456 0 1 281.296 509.684 L316.276 460.936 A75 75 3.456 0 0 336.806 471.323 Z" style="stroke-width:0;fill:#edf8e9" theta_type="angle" />
				<path arrow="0" d="M304.334 571.176 A180 180 3.456 0 1 255.061 546.246 L281.296 509.684 A135 135 3.456 0 0 318.251 528.382 Z" style="stroke-width:0;fill:#fffcd5" theta_type="angle" />
				<path arrow="0" d="M290.418 613.97 A225 225 3.456 0 1 228.827 582.807 L255.061 546.246 A180 180 3.456 0 0 304.334 571.176 Z" style="stroke-width:0;fill:#fee5d9" theta_type="angle" />
				<path d="M336.824 471.329 A75 75 3.45575191885 0 1 316.291 460.947" style="stroke:#c7e9c0;stroke-width:1;fill:none" theta_type="angle" />
				<path d="M332.188 485.595 A90 90 3.45575191885 0 1 307.549 473.136" style="stroke:#c7e9c0;stroke-width:1;fill:none" theta_type="angle" />
				<path d="M327.553 499.861 A105 105 3.45575191885 0 1 298.807 485.325" style="stroke:#c7e9c0;stroke-width:1;fill:none" theta_type="angle" />
				<path d="M322.918 514.127 A120 120 3.45575191885 0 1 290.065 497.515" style="stroke:#c7e9c0;stroke-width:1;fill:none" theta_type="angle" />
				<path d="M318.283 528.393 A135 135 3.45575191885 0 1 281.323 509.704" style="stroke:#c7e9c0;stroke-width:1;fill:none" theta_type="angle" />
				<path d="M313.647 542.658 A150 150 3.45575191885 0 1 272.582 521.893" style="stroke:#fff9ae;stroke-width:1;fill:none" theta_type="angle" />
				<path d="M309.012 556.924 A165 165 3.45575191885 0 1 263.84 534.083" style="stroke:#fff9ae;stroke-width:1;fill:none" theta_type="angle" />
				<path d="M304.377 571.19 A180 180 3.45575191885 0 1 255.098 546.272" style="stroke:#fff9ae;stroke-width:1;fill:none" theta_type="angle" />
				<path d="M304.377 571.19 A180 180 3.45575191885 0 1 255.098 546.272" style="stroke:#fcbba1;stroke-width:1;fill:none" theta_type="angle" />
				<path d="M299.742 585.456 A195 195 3.45575191885 0 1 246.356 558.461" style="stroke:#fcbba1;stroke-width:1;fill:none" theta_type="angle" />
				<path d="M295.106 599.722 A210 210 3.45575191885 0 1 237.614 570.651" style="stroke:#fcbba1;stroke-width:1;fill:none" theta_type="angle" />
				<path d="M290.471 613.988 A225 225 3.45575191885 0 1 228.872 582.84" style="stroke:#fcbba1;stroke-width:1;fill:none" theta_type="angle" />
				<path arrow="0" d="M331.1 488.869 A93.45 93.45 3.456 0 1 305.519 475.926 L316.276 460.936 A75 75 3.456 0 0 336.806 471.323 Z" style="stroke:#ffffff;stroke-width:0;fill:#26a56d" theta_type="angle" />
				<path arrow="0" d="M318.279 271.608 A135 135 5.969 0 1 359.165 265.003 L359.536 325.001 A75 75 5.969 0 0 336.822 328.671 Z" style="stroke-width:0;fill:#edf8e9" theta_type="angle" />
				<path arrow="0" d="M304.372 228.811 A180 180 5.969 0 1 358.887 220.003 L359.165 265.003 A135 135 5.969 0 0 318.279 271.608 Z" style="stroke-width:0;fill:#fffcd5" theta_type="angle" />
				<path arrow="0" d="M290.466 186.014 A225 225 5.969 0 1 358.608 175.004 L358.887 220.003 A180 180 5.969 0 0 304.372 228.811 Z" style="stroke-width:0;fill:#fee5d9" theta_type="angle" />
				<path d="M336.824 328.671 A75 75 5.96902604165 0 1 359.538 325.001" style="stroke:#c7e9c0;stroke-width:1;fill:none" theta_type="angle" />
				<path d="M332.188 314.405 A90 90 5.96902604165 0 1 359.446 310.002" style="stroke:#c7e9c0;stroke-width:1;fill:none" theta_type="angle" />
				<path d="M327.553 300.139 A105 105 5.96902604165 0 1 359.353 295.002" style="stroke:#c7e9c0;stroke-width:1;fill:none" theta_type="angle" />
				<path d="M322.918 285.873 A120 120 5.96902604165 0 1 359.261 280.002" style="stroke:#c7e9c0;stroke-width:1;fill:none" theta_type="angle" />
				<path d="M318.283 271.607 A135 135 5.96902604165 0 1 359.168 265.003" style="stroke:#c7e9c0;stroke-width:1;fill:none" theta_type="angle" />
				<path d="M313.647 257.342 A150 150 5.96902604165 0 1 359.076 250.003" style="stroke:#fff9ae;stroke-width:1;fill:none" theta_type="angle" />
				<path d="M309.012 243.076 A165 165 5.96902604165 0 1 358.983 235.003" style="stroke:#fff9ae;stroke-width:1;fill:none" theta_type="angle" />
				<path d="M304.377 228.81 A180 180 5.96902604165 0 1 358.891 220.003" style="stroke:#fff9ae;stroke-width:1;fill:none" theta_type="angle" />
				<path d="M304.377 228.81 A180 180 5.96902604165 0 1 358.891 220.003" style="stroke:#fcbba1;stroke-width:1;fill:none" theta_type="angle" />
				<path d="M299.742 214.544 A195 195 5.96902604165 0 1 358.799 205.004" style="stroke:#fcbba1;stroke-width:1;fill:none" theta_type="angle" />
				<path d="M295.106 200.278 A210 210 5.96902604165 0 1 358.706 190.004" style="stroke:#fcbba1;stroke-width:1;fill:none" theta_type="angle" />
				<path d="M290.471 186.012 A225 225 5.96902604165 0 1 358.614 175.004" style="stroke:#fcbba1;stroke-width:1;fill:none" theta_type="angle" />
				<path arrow="0" d="M325.756 294.257 A111.15 111.15 5.97 0 1 359.313 288.852 L359.536 325.001 A75 75 5.97 0 0 336.893 328.648 Z" style="stroke:#ffffff;stroke-width:0;fill:#26a56d" theta_type="angle" />
				<path arrow="0" d="M495 400.027 A135 135 1.571 0 1 488.639 440.952 L431.466 422.751 A75 75 1.571 0 0 435 400.015 Z" style="stroke-width:0;fill:#edf8e9" theta_type="angle" />
				<path arrow="0" d="M540 400.037 A180 180 1.571 0 1 531.518 454.603 L488.639 440.952 A135 135 1.571 0 0 495 400.027 Z" style="stroke-width:0;fill:#fffcd5" theta_type="angle" />
				<path arrow="0" d="M585 400.046 A225 225 1.571 0 1 574.398 468.253 L531.518 454.603 A180 180 1.571 0 0 540 400.037 Z" style="stroke-width:0;fill:#fee5d9" theta_type="angle" />
				<path d="M435 400 A75 75 1.57079632675 0 1 431.471 422.736" style="stroke:#c7e9c0;stroke-width:1;fill:none" theta_type="angle" />
				<path d="M450 400 A90 90 1.57079632675 0 1 445.765 427.284" style="stroke:#c7e9c0;stroke-width:1;fill:none" theta_type="angle" />
				<path d="M465 400 A105 105 1.57079632675 0 1 460.059 431.831" style="stroke:#c7e9c0;stroke-width:1;fill:none" theta_type="angle" />
				<path d="M480 400 A120 120 1.57079632675 0 1 474.353 436.378" style="stroke:#c7e9c0;stroke-width:1;fill:none" theta_type="angle" />
				<path d="M495 400 A135 135 1.57079632675 0 1 488.647 440.925" style="stroke:#c7e9c0;stroke-width:1;fill:none" theta_type="angle" />
				<path d="M510 400 A150 150 1.57079632675 0 1 502.941 445.473" style="stroke:#fff9ae;stroke-width:1;fill:none" theta_type="angle" />
				<path d="M525 400 A165 165 1.57079632675 0 1 517.235 450.02" style="stroke:#fff9ae;stroke-width:1;fill:none" theta_type="angle" />
				<path d="M540 400 A180 180 1.57079632675 0 1 531.53 454.567" style="stroke:#fff9ae;stroke-width:1;fill:none" theta_type="angle" />
				<path d="M540 400 A180 180 1.57079632675 0 1 531.53 454.567" style="stroke:#fcbba1;stroke-width:1;fill:none" theta_type="angle" />
				<path d="M555 400 A195 195 1.57079632675 0 1 545.824 459.115" style="stroke:#fcbba1;stroke-width:1;fill:none" theta_type="angle" />
				<path d="M570 400 A210 210 1.57079632675 0 1 560.118 463.662" style="stroke:#fcbba1;stroke-width:1;fill:none" theta_type="angle" />
				<path d="M585 400 A225 225 1.57079632675 0 1 574.412 468.209" style="stroke:#fcbba1;stroke-width:1;fill:none" theta_type="angle" />
				<path arrow="0" d="M483.3 400.025 A123.3 123.3 1.571 0 1 477.49 437.403 L431.466 422.751 A75 75 1.571 0 0 435 400.015 Z" style="stroke:#ffffff;stroke-width:0;fill:#26a56d" theta_type="angle" />
				<path arrow="0" d="M360 265 A135 135 0 0 1 400.926 271.353 L382.737 328.529 A75 75 0 0 0 360 325 Z" style="stroke-width:0;fill:#edf8e9" theta_type="angle" />
				<path arrow="0" d="M360 220 A180 180 0 0 1 414.568 228.47 L400.926 271.353 A135 135 0 0 0 360 265 Z" style="stroke-width:0;fill:#fffcd5" theta_type="angle" />
				<path arrow="0" d="M360 175 A225 225 0 0 1 428.21 185.588 L414.568 228.47 A180 180 0 0 0 360 220 Z" style="stroke-width:0;fill:#fee5d9" theta_type="angle" />
				<path d="M360 325 A75 75 0 0 1 382.736 328.529" style="stroke:#c7e9c0;stroke-width:1;fill:none" theta_type="angle" />
				<path d="M360 310 A90 90 0 0 1 387.284 314.235" style="stroke:#c7e9c0;stroke-width:1;fill:none" theta_type="angle" />
				<path d="M360 295 A105 105 0 0 1 391.831 299.941" style="stroke:#c7e9c0;stroke-width:1;fill:none" theta_type="angle" />
				<path d="M360 280 A120 120 0 0 1 396.378 285.647" style="stroke:#c7e9c0;stroke-width:1;fill:none" theta_type="angle" />
				<path d="M360 265 A135 135 0 0 1 400.925 271.353" style="stroke:#c7e9c0;stroke-width:1;fill:none" theta_type="angle" />
				<path d="M360 250 A150 150 0 0 1 405.473 257.059" style="stroke:#fff9ae;stroke-width:1;fill:none" theta_type="angle" />
				<path d="M360 235 A165 165 0 0 1 410.02 242.765" style="stroke:#fff9ae;stroke-width:1;fill:none" theta_type="angle" />
				<path d="M360 220 A180 180 0 0 1 414.567 228.47" style="stroke:#fff9ae;stroke-width:1;fill:none" theta_type="angle" />
				<path d="M360 220 A180 180 0 0 1 414.567 228.47" style="stroke:#fcbba1;stroke-width:1;fill:none" theta_type="angle" />
				<path d="M360 205 A195 195 0 0 1 419.115 214.176" style="stroke:#fcbba1;stroke-width:1;fill:none" theta_type="angle" />
				<path d="M360 190 A210 210 0 0 1 423.662 199.882" style="stroke:#fcbba1;stroke-width:1;fill:none" theta_type="angle" />
				<path d="M360 175 A225 225 0 0 1 428.209 185.588" style="stroke:#fcbba1;stroke-width:1;fill:none" theta_type="angle" />
				<path arrow="0" d="M360.142 258.1 A141.9 141.9 0.001 0 1 403.017 264.778 L382.737 328.529 A75 75 0.001 0 0 360.075 325 Z" style="stroke:#ffffff;stroke-width:0;fill:#26a56d" theta_type="angle" />
				<path arrow="0" d="M280.664 290.772 A135 135 5.655 0 1 317.51 271.861 L336.394 328.812 A75 75 5.655 0 0 315.924 339.318 Z" style="stroke-width:0;fill:#edf8e9" theta_type="angle" />
				<path arrow="0" d="M254.218 254.363 A180 180 5.655 0 1 303.346 229.148 L317.51 271.861 A135 135 5.655 0 0 280.664 290.772 Z" style="stroke-width:0;fill:#fffcd5" theta_type="angle" />
				<path arrow="0" d="M227.773 217.954 A225 225 5.655 0 1 289.183 186.435 L303.346 229.148 A180 180 5.655 0 0 254.218 254.363 Z" style="stroke-width:0;fill:#fee5d9" theta_type="angle" />
				<path d="M315.916 339.324 A75 75 5.6548667763 0 1 336.385 328.815" style="stroke:#c7e9c0;stroke-width:1;fill:none" theta_type="angle" />
				<path d="M307.099 327.188 A90 90 5.6548667763 0 1 331.662 314.578" style="stroke:#c7e9c0;stroke-width:1;fill:none" theta_type="angle" />
				<path d="M298.283 315.053 A105 105 5.6548667763 0 1 326.939 300.341" style="stroke:#c7e9c0;stroke-width:1;fill:none" theta_type="angle" />
				<path d="M289.466 302.918 A120 120 5.6548667763 0 1 322.216 286.104" style="stroke:#c7e9c0;stroke-width:1;fill:none" theta_type="angle" />
				<path d="M280.649 290.783 A135 135 5.6548667763 0 1 317.492 271.867" style="stroke:#c7e9c0;stroke-width:1;fill:none" theta_type="angle" />
				<path d="M271.832 278.647 A150 150 5.6548667763 0 1 312.769 257.63" style="stroke:#fff9ae;stroke-width:1;fill:none" theta_type="angle" />
				<path d="M263.015 266.512 A165 165 5.6548667763 0 1 308.046 243.393" style="stroke:#fff9ae;stroke-width:1;fill:none" theta_type="angle" />
				<path d="M254.199 254.377 A180 180 5.6548667763 0 1 303.323 229.156" style="stroke:#fff9ae;stroke-width:1;fill:none" theta_type="angle" />
				<path d="M254.199 254.377 A180 180 5.6548667763 0 1 303.323 229.156" style="stroke:#fcbba1;stroke-width:1;fill:none" theta_type="angle" />
				<path d="M245.382 242.242 A195 195 5.6548667763 0 1 298.6 214.919" style="stroke:#fcbba1;stroke-width:1;fill:none" theta_type="angle" />
				<path d="M236.565 230.106 A210 210 5.6548667763 0 1 293.877 200.682" style="stroke:#fcbba1;stroke-width:1;fill:none" theta_type="angle" />
				<path d="M227.748 217.971 A225 225 5.6548667763 0 1 289.154 186.445" style="stroke:#fcbba1;stroke-width:1;fill:none" theta_type="angle" />
				<path arrow="0" d="M305.069 324.214 A93.6 93.6 5.656 0 1 330.54 311.157 L336.394 328.812 A75 75 5.656 0 0 315.985 339.274 Z" style="stroke:#ffffff;stroke-width:0;fill:#26a56d" theta_type="angle" />
				<path arrow="0" d="M231.617 441.747 A135 135 4.398 0 1 225.003 400.863 L285.002 400.479 A75 75 4.398 0 0 288.676 423.193 Z" style="stroke-width:0;fill:#edf8e9" theta_type="angle" />
				<path arrow="0" d="M188.823 455.662 A180 180 4.398 0 1 180.004 401.15 L225.003 400.863 A135 135 4.398 0 0 231.617 441.747 Z" style="stroke-width:0;fill:#fffcd5" theta_type="angle" />
				<path arrow="0" d="M146.028 469.578 A225 225 4.398 0 1 135.005 401.438 L180.004 401.15 A180 180 4.398 0 0 188.823 455.662 Z" style="stroke-width:0;fill:#fee5d9" theta_type="angle" />
				<path d="M288.671 423.176 A75 75 4.3982297149 0 1 285.001 400.462" style="stroke:#c7e9c0;stroke-width:1;fill:none" theta_type="angle" />
				<path d="M274.405 427.812 A90 90 4.3982297149 0 1 270.002 400.554" style="stroke:#c7e9c0;stroke-width:1;fill:none" theta_type="angle" />
				<path d="M260.139 432.447 A105 105 4.3982297149 0 1 255.002 400.647" style="stroke:#c7e9c0;stroke-width:1;fill:none" theta_type="angle" />
				<path d="M245.873 437.082 A120 120 4.3982297149 0 1 240.002 400.739" style="stroke:#c7e9c0;stroke-width:1;fill:none" theta_type="angle" />
				<path d="M231.607 441.717 A135 135 4.3982297149 0 1 225.003 400.832" style="stroke:#c7e9c0;stroke-width:1;fill:none" theta_type="angle" />
				<path d="M217.342 446.353 A150 150 4.3982297149 0 1 210.003 400.924" style="stroke:#fff9ae;stroke-width:1;fill:none" theta_type="angle" />
				<path d="M203.076 450.988 A165 165 4.3982297149 0 1 195.003 401.017" style="stroke:#fff9ae;stroke-width:1;fill:none" theta_type="angle" />
				<path d="M188.81 455.623 A180 180 4.3982297149 0 1 180.003 401.109" style="stroke:#fff9ae;stroke-width:1;fill:none" theta_type="angle" />
				<path d="M188.81 455.623 A180 180 4.3982297149 0 1 180.003 401.109" style="stroke:#fcbba1;stroke-width:1;fill:none" theta_type="angle" />
				<path d="M174.544 460.258 A195 195 4.3982297149 0 1 165.004 401.201" style="stroke:#fcbba1;stroke-width:1;fill:none" theta_type="angle" />
				<path d="M160.278 464.894 A210 210 4.3982297149 0 1 150.004 401.294" style="stroke:#fcbba1;stroke-width:1;fill:none" theta_type="angle" />
				<path d="M146.012 469.529 A225 225 4.3982297149 0 1 135.004 401.386" style="stroke:#fcbba1;stroke-width:1;fill:none" theta_type="angle" />
				<path arrow="0" d="M269.532 429.318 A95.1 95.1 4.399 0 1 264.902 400.608 L285.002 400.479 A75 75 4.399 0 0 288.653 423.121 Z" style="stroke:#ffffff;stroke-width:0;fill:#26a56d" theta_type="angle" />
				<path arrow="0" d="M401.773 528.375 A135 135 2.827 0 1 360.89 534.997 L360.494 474.998 A75 75 2.827 0 0 383.207 471.319 Z" style="stroke-width:0;fill:#edf8e9" theta_type="angle" />
				<path arrow="0" d="M415.697 571.166 A180 180 2.827 0 1 361.187 579.996 L360.89 534.997 A135 135 2.827 0 0 401.773 528.375 Z" style="stroke-width:0;fill:#fffcd5" theta_type="angle" />
				<path arrow="0" d="M429.622 613.958 A225 225 2.827 0 1 361.483 624.995 L361.187 579.996 A180 180 2.827 0 0 415.697 571.166 Z" style="stroke-width:0;fill:#fee5d9" theta_type="angle" />
				<path d="M383.176 471.329 A75 75 2.82743338815 0 1 360.462 474.999" style="stroke:#c7e9c0;stroke-width:1;fill:none" theta_type="angle" />
				<path d="M387.812 485.595 A90 90 2.82743338815 0 1 360.554 489.998" style="stroke:#c7e9c0;stroke-width:1;fill:none" theta_type="angle" />
				<path d="M392.447 499.861 A105 105 2.82743338815 0 1 360.647 504.998" style="stroke:#c7e9c0;stroke-width:1;fill:none" theta_type="angle" />
				<path d="M397.082 514.127 A120 120 2.82743338815 0 1 360.739 519.998" style="stroke:#c7e9c0;stroke-width:1;fill:none" theta_type="angle" />
				<path d="M401.717 528.393 A135 135 2.82743338815 0 1 360.832 534.997" style="stroke:#c7e9c0;stroke-width:1;fill:none" theta_type="angle" />
				<path d="M406.353 542.658 A150 150 2.82743338815 0 1 360.924 549.997" style="stroke:#fff9ae;stroke-width:1;fill:none" theta_type="angle" />
				<path d="M410.988 556.924 A165 165 2.82743338815 0 1 361.017 564.997" style="stroke:#fff9ae;stroke-width:1;fill:none" theta_type="angle" />
				<path d="M415.623 571.19 A180 180 2.82743338815 0 1 361.109 579.997" style="stroke:#fff9ae;stroke-width:1;fill:none" theta_type="angle" />
				<path d="M415.623 571.19 A180 180 2.82743338815 0 1 361.109 579.997" style="stroke:#fcbba1;stroke-width:1;fill:none" theta_type="angle" />
				<path d="M420.258 585.456 A195 195 2.82743338815 0 1 361.201 594.996" style="stroke:#fcbba1;stroke-width:1;fill:none" theta_type="angle" />
				<path d="M424.894 599.722 A210 210 2.82743338815 0 1 361.294 609.996" style="stroke:#fcbba1;stroke-width:1;fill:none" theta_type="angle" />
				<path d="M429.529 613.988 A225 225 2.82743338815 0 1 361.386 624.996" style="stroke:#fcbba1;stroke-width:1;fill:none" theta_type="angle" />
				<path arrow="0" d="M388.735 488.607 A93.15 93.15 2.828 0 1 360.614 493.148 L360.494 474.998 A75 75 2.828 0 0 383.136 471.342 Z" style="stroke:#ffffff;stroke-width:0;fill:#26a56d" theta_type="angle" />
				<path arrow="0" d="M250.788 479.359 A135 135 4.084 0 1 231.87 442.516 L288.817 423.62 A75 75 4.084 0 0 299.327 444.088 Z" style="stroke-width:0;fill:#edf8e9" theta_type="angle" />
				<path arrow="0" d="M214.384 505.812 A180 180 4.084 0 1 189.16 456.688 L231.87 442.516 A135 135 4.084 0 0 250.788 479.359 Z" style="stroke-width:0;fill:#fffcd5" theta_type="angle" />
				<path arrow="0" d="M177.98 532.265 A225 225 4.084 0 1 146.45 470.861 L189.16 456.688 A180 180 4.084 0 0 214.384 505.812 Z" style="stroke-width:0;fill:#fee5d9" theta_type="angle" />
				<path d="M299.324 444.084 A75 75 4.08407044955 0 1 288.815 423.615" style="stroke:#c7e9c0;stroke-width:1;fill:none" theta_type="angle" />
				<path d="M287.188 452.901 A90 90 4.08407044955 0 1 274.578 428.338" style="stroke:#c7e9c0;stroke-width:1;fill:none" theta_type="angle" />
				<path d="M275.053 461.717 A105 105 4.08407044955 0 1 260.341 433.061" style="stroke:#c7e9c0;stroke-width:1;fill:none" theta_type="angle" />
				<path d="M262.918 470.534 A120 120 4.08407044955 0 1 246.104 437.784" style="stroke:#c7e9c0;stroke-width:1;fill:none" theta_type="angle" />
				<path d="M250.783 479.351 A135 135 4.08407044955 0 1 231.867 442.508" style="stroke:#c7e9c0;stroke-width:1;fill:none" theta_type="angle" />
				<path d="M238.647 488.168 A150 150 4.08407044955 0 1 217.63 447.231" style="stroke:#fff9ae;stroke-width:1;fill:none" theta_type="angle" />
				<path d="M226.512 496.985 A165 165 4.08407044955 0 1 203.393 451.954" style="stroke:#fff9ae;stroke-width:1;fill:none" theta_type="angle" />
				<path d="M214.377 505.801 A180 180 4.08407044955 0 1 189.156 456.677" style="stroke:#fff9ae;stroke-width:1;fill:none" theta_type="angle" />
				<path d="M214.377 505.801 A180 180 4.08407044955 0 1 189.156 456.677" style="stroke:#fcbba1;stroke-width:1;fill:none" theta_type="angle" />
				<path d="M202.242 514.618 A195 195 4.08407044955 0 1 174.919 461.4" style="stroke:#fcbba1;stroke-width:1;fill:none" theta_type="angle" />
				<path d="M190.106 523.435 A210 210 4.08407044955 0 1 160.682 466.123" style="stroke:#fcbba1;stroke-width:1;fill:none" theta_type="angle" />
				<path d="M177.971 532.252 A225 225 4.08407044955 0 1 146.445 470.846" style="stroke:#fcbba1;stroke-width:1;fill:none" theta_type="angle" />
				<path arrow="0" d="M252.773 477.753 A132.45 132.45 4.085 0 1 234.29 441.713 L288.817 423.62 A75 75 4.085 0 0 299.283 444.027 Z" style="stroke:#ffffff;stroke-width:0;fill:#26a56d" theta_type="angle" />
				<path arrow="0" d="M488.408 358.329 A135 135 1.257 0 1 494.998 399.218 L434.999 399.565 A75 75 1.257 0 0 431.338 376.85 Z" style="stroke-width:0;fill:#edf8e9" theta_type="angle" />
				<path arrow="0" d="M531.21 344.439 A180 180 1.257 0 1 539.997 398.957 L494.998 399.218 A135 135 1.257 0 0 488.408 358.329 Z" style="stroke-width:0;fill:#fffcd5" theta_type="angle" />
				<path arrow="0" d="M574.013 330.549 A225 225 1.257 0 1 584.996 398.696 L539.997 398.957 A180 180 1.257 0 0 531.21 344.439 Z" style="stroke-width:0;fill:#fee5d9" theta_type="angle" />
				<path d="M431.329 376.824 A75 75 1.2566370614 0 1 434.999 399.538" style="stroke:#c7e9c0;stroke-width:1;fill:none" theta_type="angle" />
				<path d="M445.595 372.188 A90 90 1.2566370614 0 1 449.998 399.446" style="stroke:#c7e9c0;stroke-width:1;fill:none" theta_type="angle" />
				<path d="M459.861 367.553 A105 105 1.2566370614 0 1 464.998 399.353" style="stroke:#c7e9c0;stroke-width:1;fill:none" theta_type="angle" />
				<path d="M474.127 362.918 A120 120 1.2566370614 0 1 479.998 399.261" style="stroke:#c7e9c0;stroke-width:1;fill:none" theta_type="angle" />
				<path d="M488.393 358.283 A135 135 1.2566370614 0 1 494.997 399.168" style="stroke:#c7e9c0;stroke-width:1;fill:none" theta_type="angle" />
				<path d="M502.658 353.647 A150 150 1.2566370614 0 1 509.997 399.076" style="stroke:#fff9ae;stroke-width:1;fill:none" theta_type="angle" />
				<path d="M516.924 349.012 A165 165 1.2566370614 0 1 524.997 398.983" style="stroke:#fff9ae;stroke-width:1;fill:none" theta_type="angle" />
				<path d="M531.19 344.377 A180 180 1.2566370614 0 1 539.997 398.891" style="stroke:#fff9ae;stroke-width:1;fill:none" theta_type="angle" />
				<path d="M531.19 344.377 A180 180 1.2566370614 0 1 539.997 398.891" style="stroke:#fcbba1;stroke-width:1;fill:none" theta_type="angle" />
				<path d="M545.456 339.742 A195 195 1.2566370614 0 1 554.996 398.799" style="stroke:#fcbba1;stroke-width:1;fill:none" theta_type="angle" />
				<path d="M559.722 335.106 A210 210 1.2566370614 0 1 569.996 398.706" style="stroke:#fcbba1;stroke-width:1;fill:none" theta_type="angle" />
				<path d="M573.988 330.471 A225 225 1.2566370614 0 1 584.996 398.614" style="stroke:#fcbba1;stroke-width:1;fill:none" theta_type="angle" />
				<path arrow="0" d="M464.296 366.154 A109.65 109.65 1.257 0 1 469.648 399.364 L434.999 399.565 A75 75 1.257 0 0 431.338 376.85 Z" style="stroke:#ffffff;stroke-width:0;fill:#26a56d" theta_type="angle" />
				<path arrow="0" d="M401.697 271.601 A135 135 0.314 0 1 438.659 290.284 L403.7 339.046 A75 75 0.314 0 0 383.165 328.667 Z" style="stroke-width:0;fill:#edf8e9" theta_type="angle" />
				<path arrow="0" d="M415.596 228.801 A180 180 0.314 0 1 464.879 253.711 L438.659 290.284 A135 135 0.314 0 0 401.697 271.601 Z" style="stroke-width:0;fill:#fffcd5" theta_type="angle" />
				<path arrow="0" d="M429.495 186.001 A225 225 0.314 0 1 491.099 217.139 L464.879 253.711 A180 180 0.314 0 0 415.596 228.801 Z" style="stroke-width:0;fill:#fee5d9" theta_type="angle" />
				<path d="M383.176 328.671 A75 75 0.31415926535 0 1 403.709 339.053" style="stroke:#c7e9c0;stroke-width:1;fill:none" theta_type="angle" />
				<path d="M387.812 314.405 A90 90 0.31415926535 0 1 412.451 326.864" style="stroke:#c7e9c0;stroke-width:1;fill:none" theta_type="angle" />
				<path d="M392.447 300.139 A105 105 0.31415926535 0 1 421.193 314.675" style="stroke:#c7e9c0;stroke-width:1;fill:none" theta_type="angle" />
				<path d="M397.082 285.873 A120 120 0.31415926535 0 1 429.935 302.485" style="stroke:#c7e9c0;stroke-width:1;fill:none" theta_type="angle" />
				<path d="M401.717 271.607 A135 135 0.31415926535 0 1 438.677 290.296" style="stroke:#c7e9c0;stroke-width:1;fill:none" theta_type="angle" />
				<path d="M406.353 257.342 A150 150 0.31415926535 0 1 447.418 278.107" style="stroke:#fff9ae;stroke-width:1;fill:none" theta_type="angle" />
				<path d="M410.988 243.076 A165 165 0.31415926535 0 1 456.16 265.917" style="stroke:#fff9ae;stroke-width:1;fill:none" theta_type="angle" />
				<path d="M415.623 228.81 A180 180 0.31415926535 0 1 464.902 253.728" style="stroke:#fff9ae;stroke-width:1;fill:none" theta_type="angle" />
				<path d="M415.623 228.81 A180 180 0.31415926535 0 1 464.902 253.728" style="stroke:#fcbba1;stroke-width:1;fill:none" theta_type="angle" />
				<path d="M420.258 214.544 A195 195 0.31415926535 0 1 473.644 241.539" style="stroke:#fcbba1;stroke-width:1;fill:none" theta_type="angle" />
				<path d="M424.894 200.278 A210 210 0.31415926535 0 1 482.386 229.349" style="stroke:#fcbba1;stroke-width:1;fill:none" theta_type="angle" />
				<path d="M429.529 186.012 A225 225 0.31415926535 0 1 491.128 217.16" style="stroke:#fcbba1;stroke-width:1;fill:none" theta_type="angle" />
				<path arrow="0" d="M403.777 265.652 A141.3 141.3 0.315 0 1 442.33 285.163 L403.7 339.046 A75 75 0.315 0 0 383.236 328.69 Z" style="stroke:#ffffff;stroke-width:0;fill:#26a56d" theta_type="angle" />
				<path arrow="0" d="M439.381 509.196 A135 135 2.513 0 1 402.542 528.122 L383.635 471.179 A75 75 2.513 0 0 404.101 460.664 Z" style="stroke-width:0;fill:#edf8e9" theta_type="angle" />
				<path arrow="0" d="M465.841 545.594 A180 180 2.513 0 1 416.723 570.829 L402.542 528.122 A135 135 2.513 0 0 439.381 509.196 Z" style="stroke-width:0;fill:#fffcd5" theta_type="angle" />
				<path arrow="0" d="M492.302 581.993 A225 225 2.513 0 1 430.904 613.536 L416.723 570.829 A180 180 2.513 0 0 465.841 545.594 Z" style="stroke-width:0;fill:#fee5d9" theta_type="angle" />
				<path d="M404.084 460.676 A75 75 2.5132741228 0 1 383.615 471.185" style="stroke:#c7e9c0;stroke-width:1;fill:none" theta_type="angle" />
				<path d="M412.901 472.812 A90 90 2.5132741228 0 1 388.338 485.422" style="stroke:#c7e9c0;stroke-width:1;fill:none" theta_type="angle" />
				<path d="M421.717 484.947 A105 105 2.5132741228 0 1 393.061 499.659" style="stroke:#c7e9c0;stroke-width:1;fill:none" theta_type="angle" />
				<path d="M430.534 497.082 A120 120 2.5132741228 0 1 397.784 513.896" style="stroke:#c7e9c0;stroke-width:1;fill:none" theta_type="angle" />
				<path d="M439.351 509.217 A135 135 2.5132741228 0 1 402.508 528.133" style="stroke:#c7e9c0;stroke-width:1;fill:none" theta_type="angle" />
				<path d="M448.168 521.353 A150 150 2.5132741228 0 1 407.231 542.37" style="stroke:#fff9ae;stroke-width:1;fill:none" theta_type="angle" />
				<path d="M456.985 533.488 A165 165 2.5132741228 0 1 411.954 556.607" style="stroke:#fff9ae;stroke-width:1;fill:none" theta_type="angle" />
				<path d="M465.801 545.623 A180 180 2.5132741228 0 1 416.677 570.844" style="stroke:#fff9ae;stroke-width:1;fill:none" theta_type="angle" />
				<path d="M465.801 545.623 A180 180 2.5132741228 0 1 416.677 570.844" style="stroke:#fcbba1;stroke-width:1;fill:none" theta_type="angle" />
				<path d="M474.618 557.758 A195 195 2.5132741228 0 1 421.4 585.081" style="stroke:#fcbba1;stroke-width:1;fill:none" theta_type="angle" />
				<path d="M483.435 569.894 A210 210 2.5132741228 0 1 426.123 599.318" style="stroke:#fcbba1;stroke-width:1;fill:none" theta_type="angle" />
				<path d="M492.252 582.029 A225 225 2.5132741228 0 1 430.846 613.555" style="stroke:#fcbba1;stroke-width:1;fill:none" theta_type="angle" />
				<path arrow="0" d="M431.08 497.983 A121.05 121.05 2.514 0 1 398.146 514.882 L383.635 471.179 A75 75 2.514 0 0 404.04 460.708 Z" style="stroke:#ffffff;stroke-width:0;fill:#26a56d" theta_type="angle" />
				<path arrow="0" d="M250.806 320.617 A135 135 5.341 0 1 280.01 291.25 L315.561 339.583 A75 75 5.341 0 0 299.337 355.898 Z" style="stroke-width:0;fill:#edf8e9" theta_type="angle" />
				<path arrow="0" d="M214.408 294.156 A180 180 5.341 0 1 253.346 255 L280.01 291.25 A135 135 5.341 0 0 250.806 320.617 Z" style="stroke-width:0;fill:#fffcd5" theta_type="angle" />
				<path arrow="0" d="M178.01 267.695 A225 225 5.341 0 1 226.683 218.75 L253.346 255 A180 180 5.341 0 0 214.408 294.156 Z" style="stroke-width:0;fill:#fee5d9" theta_type="angle" />
				<path d="M299.324 355.916 A75 75 5.34070751095 0 1 315.543 339.596" style="stroke:#c7e9c0;stroke-width:1;fill:none" theta_type="angle" />
				<path d="M287.188 347.099 A90 90 5.34070751095 0 1 306.652 327.516" style="stroke:#c7e9c0;stroke-width:1;fill:none" theta_type="angle" />
				<path d="M275.053 338.283 A105 105 5.34070751095 0 1 297.76 315.435" style="stroke:#c7e9c0;stroke-width:1;fill:none" theta_type="angle" />
				<path d="M262.918 329.466 A120 120 5.34070751095 0 1 288.869 303.354" style="stroke:#c7e9c0;stroke-width:1;fill:none" theta_type="angle" />
				<path d="M250.783 320.649 A135 135 5.34070751095 0 1 279.978 291.274" style="stroke:#c7e9c0;stroke-width:1;fill:none" theta_type="angle" />
				<path d="M238.647 311.832 A150 150 5.34070751095 0 1 271.086 279.193" style="stroke:#fff9ae;stroke-width:1;fill:none" theta_type="angle" />
				<path d="M226.512 303.015 A165 165 5.34070751095 0 1 262.195 267.112" style="stroke:#fff9ae;stroke-width:1;fill:none" theta_type="angle" />
				<path d="M214.377 294.199 A180 180 5.34070751095 0 1 253.303 255.032" style="stroke:#fff9ae;stroke-width:1;fill:none" theta_type="angle" />
				<path d="M214.377 294.199 A180 180 5.34070751095 0 1 253.303 255.032" style="stroke:#fcbba1;stroke-width:1;fill:none" theta_type="angle" />
				<path d="M202.242 285.382 A195 195 5.34070751095 0 1 244.412 242.951" style="stroke:#fcbba1;stroke-width:1;fill:none" theta_type="angle" />
				<path d="M190.106 276.565 A210 210 5.34070751095 0 1 235.521 230.87" style="stroke:#fcbba1;stroke-width:1;fill:none" theta_type="angle" />
				<path d="M177.971 267.748 A225 225 5.34070751095 0 1 226.629 218.789" style="stroke:#fcbba1;stroke-width:1;fill:none" theta_type="angle" />
				<path arrow="0" d="M281.987 343.285 A96.45 96.45 5.341 0 1 302.851 322.304 L315.561 339.583 A75 75 5.341 0 0 299.337 355.898 Z" style="stroke:#ffffff;stroke-width:0;fill:#26a56d" theta_type="angle" />
				<path arrow="0" d="M488.391 441.723 A135 135 1.885 0 1 469.7 478.682 L420.945 443.712 A75 75 1.885 0 0 431.328 423.179 Z" style="stroke-width:0;fill:#edf8e9" theta_type="angle" />
				<path arrow="0" d="M531.188 455.631 A180 180 1.885 0 1 506.267 504.909 L469.7 478.682 A135 135 1.885 0 0 488.391 441.723 Z" style="stroke-width:0;fill:#fffcd5" theta_type="angle" />
				<path arrow="0" d="M573.985 469.538 A225 225 1.885 0 1 542.834 531.136 L506.267 504.909 A180 180 1.885 0 0 531.188 455.631 Z" style="stroke-width:0;fill:#fee5d9" theta_type="angle" />
				<path d="M431.329 423.176 A75 75 1.8849555921 0 1 420.947 443.709" style="stroke:#c7e9c0;stroke-width:1;fill:none" theta_type="angle" />
				<path d="M445.595 427.812 A90 90 1.8849555921 0 1 433.136 452.451" style="stroke:#c7e9c0;stroke-width:1;fill:none" theta_type="angle" />
				<path d="M459.861 432.447 A105 105 1.8849555921 0 1 445.325 461.193" style="stroke:#c7e9c0;stroke-width:1;fill:none" theta_type="angle" />
				<path d="M474.127 437.082 A120 120 1.8849555921 0 1 457.515 469.935" style="stroke:#c7e9c0;stroke-width:1;fill:none" theta_type="angle" />
				<path d="M488.393 441.717 A135 135 1.8849555921 0 1 469.704 478.677" style="stroke:#c7e9c0;stroke-width:1;fill:none" theta_type="angle" />
				<path d="M502.658 446.353 A150 150 1.8849555921 0 1 481.893 487.418" style="stroke:#fff9ae;stroke-width:1;fill:none" theta_type="angle" />
				<path d="M516.924 450.988 A165 165 1.8849555921 0 1 494.083 496.16" style="stroke:#fff9ae;stroke-width:1;fill:none" theta_type="angle" />
				<path d="M531.19 455.623 A180 180 1.8849555921 0 1 506.272 504.902" style="stroke:#fff9ae;stroke-width:1;fill:none" theta_type="angle" />
				<path d="M531.19 455.623 A180 180 1.8849555921 0 1 506.272 504.902" style="stroke:#fcbba1;stroke-width:1;fill:none" theta_type="angle" />
				<path d="M545.456 460.258 A195 195 1.8849555921 0 1 518.461 513.644" style="stroke:#fcbba1;stroke-width:1;fill:none" theta_type="angle" />
				<path d="M559.722 464.894 A210 210 1.8849555921 0 1 530.651 522.386" style="stroke:#fcbba1;stroke-width:1;fill:none" theta_type="angle" />
				<path d="M573.988 469.529 A225 225 1.8849555921 0 1 542.84 531.128" style="stroke:#fcbba1;stroke-width:1;fill:none" theta_type="angle" />
				<path arrow="0" d="M471.949 436.504 A117.75 117.75 1.886 0 1 455.683 468.628 L420.945 443.712 A75 75 1.886 0 0 431.305 423.251 Z" style="stroke:#ffffff;stroke-width:0;fill:#26a56d" theta_type="angle" />
				<path arrow="0" d="M359.945 535 A135 135 3.142 0 1 319.022 528.63 L337.234 471.461 A75 75 3.142 0 0 359.969 475 Z" style="stroke-width:0;fill:#edf8e9" theta_type="angle" />
				<path arrow="0" d="M359.927 580 A180 180 3.142 0 1 305.363 571.507 L319.022 528.63 A135 135 3.142 0 0 359.945 535 Z" style="stroke-width:0;fill:#fffcd5" theta_type="angle" />
				<path arrow="0" d="M359.908 625 A225 225 3.142 0 1 291.703 614.384 L305.363 571.507 A180 180 3.142 0 0 359.927 580 Z" style="stroke-width:0;fill:#fee5d9" theta_type="angle" />
				<path d="M360 475 A75 75 3.1415926535 0 1 337.264 471.471" style="stroke:#c7e9c0;stroke-width:1;fill:none" theta_type="angle" />
				<path d="M360 490 A90 90 3.1415926535 0 1 332.716 485.765" style="stroke:#c7e9c0;stroke-width:1;fill:none" theta_type="angle" />
				<path d="M360 505 A105 105 3.1415926535 0 1 328.169 500.059" style="stroke:#c7e9c0;stroke-width:1;fill:none" theta_type="angle" />
				<path d="M360 520 A120 120 3.1415926535 0 1 323.622 514.353" style="stroke:#c7e9c0;stroke-width:1;fill:none" theta_type="angle" />
				<path d="M360 535 A135 135 3.1415926535 0 1 319.075 528.647" style="stroke:#c7e9c0;stroke-width:1;fill:none" theta_type="angle" />
				<path d="M360 550 A150 150 3.1415926535 0 1 314.527 542.941" style="stroke:#fff9ae;stroke-width:1;fill:none" theta_type="angle" />
				<path d="M360 565 A165 165 3.1415926535 0 1 309.98 557.235" style="stroke:#fff9ae;stroke-width:1;fill:none" theta_type="angle" />
				<path d="M360 580 A180 180 3.1415926535 0 1 305.433 571.53" style="stroke:#fff9ae;stroke-width:1;fill:none" theta_type="angle" />
				<path d="M360 580 A180 180 3.1415926535 0 1 305.433 571.53" style="stroke:#fcbba1;stroke-width:1;fill:none" theta_type="angle" />
				<path d="M360 595 A195 195 3.1415926535 0 1 300.885 585.824" style="stroke:#fcbba1;stroke-width:1;fill:none" theta_type="angle" />
				<path d="M360 610 A210 210 3.1415926535 0 1 296.338 600.118" style="stroke:#fcbba1;stroke-width:1;fill:none" theta_type="angle" />
				<path d="M360 625 A225 225 3.1415926535 0 1 291.791 614.412" style="stroke:#fcbba1;stroke-width:1;fill:none" theta_type="angle" />
				<path arrow="0" d="M359.962 493.75 A93.75 93.75 3.142 0 1 331.543 489.327 L337.234 471.461 A75 75 3.142 0 0 359.969 475 Z" style="stroke:#ffffff;stroke-width:0;fill:#26a56d" theta_type="angle" />
				<path arrow="0" d="M280.639 509.21 A135 135 3.77 0 1 251.266 480.013 L299.592 444.451 A75 75 3.77 0 0 315.911 460.672 Z" style="stroke-width:0;fill:#edf8e9" theta_type="angle" />
				<path arrow="0" d="M254.186 545.614 A180 180 3.77 0 1 215.022 506.683 L251.266 480.013 A135 135 3.77 0 0 280.639 509.21 Z" style="stroke-width:0;fill:#fffcd5" theta_type="angle" />
				<path arrow="0" d="M227.732 582.017 A225 225 3.77 0 1 178.777 533.354 L215.022 506.683 A180 180 3.77 0 0 254.186 545.614 Z" style="stroke-width:0;fill:#fee5d9" theta_type="angle" />
				<path d="M315.916 460.676 A75 75 3.7699111842 0 1 299.596 444.457" style="stroke:#c7e9c0;stroke-width:1;fill:none" theta_type="angle" />
				<path d="M307.099 472.812 A90 90 3.7699111842 0 1 287.516 453.348" style="stroke:#c7e9c0;stroke-width:1;fill:none" theta_type="angle" />
				<path d="M298.283 484.947 A105 105 3.7699111842 0 1 275.435 462.24" style="stroke:#c7e9c0;stroke-width:1;fill:none" theta_type="angle" />
				<path d="M289.466 497.082 A120 120 3.7699111842 0 1 263.354 471.131" style="stroke:#c7e9c0;stroke-width:1;fill:none" theta_type="angle" />
				<path d="M280.649 509.217 A135 135 3.7699111842 0 1 251.274 480.022" style="stroke:#c7e9c0;stroke-width:1;fill:none" theta_type="angle" />
				<path d="M271.832 521.353 A150 150 3.7699111842 0 1 239.193 488.914" style="stroke:#fff9ae;stroke-width:1;fill:none" theta_type="angle" />
				<path d="M263.015 533.488 A165 165 3.7699111842 0 1 227.112 497.805" style="stroke:#fff9ae;stroke-width:1;fill:none" theta_type="angle" />
				<path d="M254.199 545.623 A180 180 3.7699111842 0 1 215.032 506.697" style="stroke:#fff9ae;stroke-width:1;fill:none" theta_type="angle" />
				<path d="M254.199 545.623 A180 180 3.7699111842 0 1 215.032 506.697" style="stroke:#fcbba1;stroke-width:1;fill:none" theta_type="angle" />
				<path d="M245.382 557.758 A195 195 3.7699111842 0 1 202.951 515.588" style="stroke:#fcbba1;stroke-width:1;fill:none" theta_type="angle" />
				<path d="M236.565 569.894 A210 210 3.7699111842 0 1 190.87 524.479" style="stroke:#fcbba1;stroke-width:1;fill:none" theta_type="angle" />
				<path d="M227.748 582.029 A225 225 3.7699111842 0 1 178.789 533.371" style="stroke:#fcbba1;stroke-width:1;fill:none" theta_type="angle" />
				<path arrow="0" d="M264.46 531.2 A162.3 162.3 3.771 0 1 229.278 496.193 L299.592 444.451 A75 75 3.771 0 0 315.85 460.628 Z" style="stroke:#ffffff;stroke-width:0;fill:#26a56d" theta_type="angle" />
				<path arrow="0" d="M231.626 358.225 A135 135 5.027 0 1 250.332 321.274 L299.073 356.263 A75 75 5.027 0 0 288.681 376.792 Z" style="stroke-width:0;fill:#edf8e9" theta_type="angle" />
				<path arrow="0" d="M188.835 344.3 A180 180 5.027 0 1 213.775 295.032 L250.332 321.274 A135 135 5.027 0 0 231.626 358.225 Z" style="stroke-width:0;fill:#fffcd5" theta_type="angle" />
				<path arrow="0" d="M146.044 330.375 A225 225 5.027 0 1 177.219 268.789 L213.775 295.032 A180 180 5.027 0 0 188.835 344.3 Z" style="stroke-width:0;fill:#fee5d9" theta_type="angle" />
				<path d="M288.671 376.824 A75 75 5.0265482456 0 1 299.053 356.291" style="stroke:#c7e9c0;stroke-width:1;fill:none" theta_type="angle" />
				<path d="M274.405 372.188 A90 90 5.0265482456 0 1 286.864 347.549" style="stroke:#c7e9c0;stroke-width:1;fill:none" theta_type="angle" />
				<path d="M260.139 367.553 A105 105 5.0265482456 0 1 274.675 338.807" style="stroke:#c7e9c0;stroke-width:1;fill:none" theta_type="angle" />
				<path d="M245.873 362.918 A120 120 5.0265482456 0 1 262.485 330.065" style="stroke:#c7e9c0;stroke-width:1;fill:none" theta_type="angle" />
				<path d="M231.607 358.283 A135 135 5.0265482456 0 1 250.296 321.323" style="stroke:#c7e9c0;stroke-width:1;fill:none" theta_type="angle" />
				<path d="M217.342 353.647 A150 150 5.0265482456 0 1 238.107 312.582" style="stroke:#fff9ae;stroke-width:1;fill:none" theta_type="angle" />
				<path d="M203.076 349.012 A165 165 5.0265482456 0 1 225.917 303.84" style="stroke:#fff9ae;stroke-width:1;fill:none" theta_type="angle" />
				<path d="M188.81 344.377 A180 180 5.0265482456 0 1 213.728 295.098" style="stroke:#fff9ae;stroke-width:1;fill:none" theta_type="angle" />
				<path d="M188.81 344.377 A180 180 5.0265482456 0 1 213.728 295.098" style="stroke:#fcbba1;stroke-width:1;fill:none" theta_type="angle" />
				<path d="M174.544 339.742 A195 195 5.0265482456 0 1 201.539 286.356" style="stroke:#fcbba1;stroke-width:1;fill:none" theta_type="angle" />
				<path d="M160.278 335.106 A210 210 5.0265482456 0 1 189.349 277.614" style="stroke:#fcbba1;stroke-width:1;fill:none" theta_type="angle" />
				<path d="M146.012 330.471 A225 225 5.0265482456 0 1 177.16 268.872" style="stroke:#fcbba1;stroke-width:1;fill:none" theta_type="angle" />
				<path arrow="0" d="M270.424 370.85 A94.2 94.2 5.027 0 1 283.476 345.066 L299.073 356.263 A75 75 5.027 0 0 288.681 376.792 Z" style="stroke:#ffffff;stroke-width:0;fill:#26a56d" theta_type="angle" />
				<path arrow="0" d="M225 400.053 A135 135 4.712 0 1 231.337 359.124 L288.521 377.291 A75 75 4.712 0 0 285 400.029 Z" style="stroke-width:0;fill:#edf8e9" theta_type="angle" />
				<path arrow="0" d="M180 400.07 A180 180 4.712 0 1 188.449 345.499 L231.337 359.124 A135 135 4.712 0 0 225 400.053 Z" style="stroke-width:0;fill:#fffcd5" theta_type="angle" />
				<path arrow="0" d="M135 400.088 A225 225 4.712 0 1 145.562 331.874 L188.449 345.499 A180 180 4.712 0 0 180 400.07 Z" style="stroke-width:0;fill:#fee5d9" theta_type="angle" />
				<path d="M285 400 A75 75 4.71238898025 0 1 288.529 377.264" style="stroke:#c7e9c0;stroke-width:1;fill:none" theta_type="angle" />
				<path d="M270 400 A90 90 4.71238898025 0 1 274.235 372.716" style="stroke:#c7e9c0;stroke-width:1;fill:none" theta_type="angle" />
				<path d="M255 400 A105 105 4.71238898025 0 1 259.941 368.169" style="stroke:#c7e9c0;stroke-width:1;fill:none" theta_type="angle" />
				<path d="M240 400 A120 120 4.71238898025 0 1 245.647 363.622" style="stroke:#c7e9c0;stroke-width:1;fill:none" theta_type="angle" />
				<path d="M225 400 A135 135 4.71238898025 0 1 231.353 359.075" style="stroke:#c7e9c0;stroke-width:1;fill:none" theta_type="angle" />
				<path d="M210 400 A150 150 4.71238898025 0 1 217.059 354.527" style="stroke:#fff9ae;stroke-width:1;fill:none" theta_type="angle" />
				<path d="M195 400 A165 165 4.71238898025 0 1 202.765 349.98" style="stroke:#fff9ae;stroke-width:1;fill:none" theta_type="angle" />
				<path d="M180 400 A180 180 4.71238898025 0 1 188.47 345.433" style="stroke:#fff9ae;stroke-width:1;fill:none" theta_type="angle" />
				<path d="M180 400 A180 180 4.71238898025 0 1 188.47 345.433" style="stroke:#fcbba1;stroke-width:1;fill:none" theta_type="angle" />
				<path d="M165 400 A195 195 4.71238898025 0 1 174.176 340.885" style="stroke:#fcbba1;stroke-width:1;fill:none" theta_type="angle" />
				<path d="M150 400 A210 210 4.71238898025 0 1 159.882 336.338" style="stroke:#fcbba1;stroke-width:1;fill:none" theta_type="angle" />
				<path d="M135 400 A225 225 4.71238898025 0 1 145.588 331.791" style="stroke:#fcbba1;stroke-width:1;fill:none" theta_type="angle" />
				<path arrow="0" d="M267.75 399.944 A92.25 92.25 4.713 0 1 272.08 372.068 L288.521 377.291 A75 75 4.713 0 0 285 399.954 Z" style="stroke:#ffffff;stroke-width:0;fill:#26a56d" theta_type="angle" />
				<path arrow="0" d="M439.316 290.757 A135 135 0.628 0 1 468.701 319.943 L420.389 355.524 A75 75 0.628 0 0 404.065 339.31 Z" style="stroke-width:0;fill:#edf8e9" theta_type="angle" />
				<path arrow="0" d="M465.755 254.343 A180 180 0.628 0 1 504.935 293.258 L468.701 319.943 A135 135 0.628 0 0 439.316 290.757 Z" style="stroke-width:0;fill:#fffcd5" theta_type="angle" />
				<path arrow="0" d="M492.194 217.929 A225 225 0.628 0 1 541.168 266.572 L504.935 293.258 A180 180 0.628 0 0 465.755 254.343 Z" style="stroke-width:0;fill:#fee5d9" theta_type="angle" />
				<path d="M404.084 339.324 A75 75 0.6283185307 0 1 420.404 355.543" style="stroke:#c7e9c0;stroke-width:1;fill:none" theta_type="angle" />
				<path d="M412.901 327.188 A90 90 0.6283185307 0 1 432.484 346.652" style="stroke:#c7e9c0;stroke-width:1;fill:none" theta_type="angle" />
				<path d="M421.717 315.053 A105 105 0.6283185307 0 1 444.565 337.76" style="stroke:#c7e9c0;stroke-width:1;fill:none" theta_type="angle" />
				<path d="M430.534 302.918 A120 120 0.6283185307 0 1 456.646 328.869" style="stroke:#c7e9c0;stroke-width:1;fill:none" theta_type="angle" />
				<path d="M439.351 290.783 A135 135 0.6283185307 0 1 468.726 319.978" style="stroke:#c7e9c0;stroke-width:1;fill:none" theta_type="angle" />
				<path d="M448.168 278.647 A150 150 0.6283185307 0 1 480.807 311.086" style="stroke:#fff9ae;stroke-width:1;fill:none" theta_type="angle" />
				<path d="M456.985 266.512 A165 165 0.6283185307 0 1 492.888 302.195" style="stroke:#fff9ae;stroke-width:1;fill:none" theta_type="angle" />
				<path d="M465.801 254.377 A180 180 0.6283185307 0 1 504.968 293.303" style="stroke:#fff9ae;stroke-width:1;fill:none" theta_type="angle" />
				<path d="M465.801 254.377 A180 180 0.6283185307 0 1 504.968 293.303" style="stroke:#fcbba1;stroke-width:1;fill:none" theta_type="angle" />
				<path d="M474.618 242.242 A195 195 0.6283185307 0 1 517.049 284.412" style="stroke:#fcbba1;stroke-width:1;fill:none" theta_type="angle" />
				<path d="M483.435 230.106 A210 210 0.6283185307 0 1 529.13 275.521" style="stroke:#fcbba1;stroke-width:1;fill:none" theta_type="angle" />
				<path d="M492.252 217.971 A225 225 0.6283185307 0 1 541.211 266.629" style="stroke:#fcbba1;stroke-width:1;fill:none" theta_type="angle" />
				<path arrow="0" d="M414.362 325.284 A92.4 92.4 0.629 0 1 434.4 345.206 L420.389 355.524 A75 75 0.629 0 0 404.125 339.354 Z" style="stroke:#ffffff;stroke-width:0;fill:#26a56d" theta_type="angle" />
			</g>
		</g>
		<g class="links" />
	</g>
	<g class="legend" id="legend4">
		<g >
			<g >
				<use height="20" width="40" x="294.84" xlink:href="#symbol5" y="378" />
			</g>
			<text style="fill:#000000;font-style:normal;font-face:normal;font-family:Arial;font-weight:normal;font-size:12px;font:arial;" x="338.84" y="392.38">RichFactor(0~1)</text>
			<g >
				<use height="20" width="40" x="294.84" xlink:href="#symbol6" y="402" />
			</g>
			<text style="font:arial;font-weight:normal;font-family:Arial;font-size:12px;font-style:normal;font-face:normal;fill:#000000;" x="338.84" y="416.38">GeneNumber</text>
		</g>
	</g>
	<g class="legend" id="legend8">
		<g >
			<text style="font-face:normal;font-style:normal;fill:#000000;font-family:Arial;font-weight:normal;font-size:12px;font:arial;" x="714" y="390.38">-log10(Qvalue)</text>
			<use height="20" width="80" x="714" xlink:href="#symbol9" y="398.38" />
			<g class="axis" transform="translate(714,418.38)">
				<g >
					<line class="tick" x1="1.51" x2="1.51" y1="0" y2="4" />
					<text style="font-style:normal;fill:#000000;font-weight:normal;font-size:10px;font-family:Arial;" x="-1.27" y="15.3">0</text>
					<line class="tick" x1="16.6" x2="16.6" y1="0" y2="4" />
					<text style="font-style:normal;fill:#000000;font-size:10px;font-weight:normal;font-family:Arial;" x="11.04" y="15.3">20</text>
					<line class="tick" x1="31.7" x2="31.7" y1="0" y2="4" />
					<text style="fill:#000000;font-style:normal;font-size:10px;font-weight:normal;font-family:Arial;" x="26.14" y="15.3">40</text>
					<line class="tick" x1="46.79" x2="46.79" y1="0" y2="4" />
					<text style="font-family:Arial;font-weight:normal;font-size:10px;fill:#000000;font-style:normal;" x="41.23" y="15.3">60</text>
					<line class="tick" x1="61.89" x2="61.89" y1="0" y2="4" />
					<text style="fill:#000000;font-style:normal;font-family:Arial;font-weight:normal;font-size:10px;" x="56.33" y="15.3">80</text>
					<line class="tick" x1="76.98" x2="76.98" y1="0" y2="4" />
					<text style="font-family:Arial;font-weight:normal;font-size:10px;font-style:normal;fill:#000000;" x="68.64" y="15.3">100</text>
				</g>
			</g>
		</g>
	</g>
</svg>