<svg height="1200" id="sbv1" width="800" xmlns="http://www.w3.org/2000/svg" xmlns:svg="http://www.w3.org/2000/svg" xmlns:xlink="http://www.w3.org/1999/xlink">
	<title id="sbv-title">The graph of SBV hcgd</title>
	<desc id="sbv-desc">This graph was generated by SBV which was written by Peng. E-mail is aipeng0520@163.com</desc>
	<defs id="defs2">
		<clipPath clipPathUnits="UserSpaceOnUse" id="clip_path_chr1" style="evenodd">
			<path d="M151.665 34.22 A5 5 90 0 0 146.665 39.22 L146.665 592.74 L156.665 608.83 L146.665 626.76 L146.665 1175 A5 5 90 0 0 151.665 1180 L
161.665 1180 A5 5 90 0 0 166.665 1175 L166.665 626.76 L156.665 608.83 L166.665 592.74 L166.665 39.22 A5 5 90 0 0 161.665 34.22 Z" />
		</clipPath>
		<symbol class="symbol" id="symbol4" viewBox="0 0 20 6.9">
			<polygon points="20,0 20,6.9 6.9,6.9 0,3.45 6.9,0 " style="fill: #888800; stroke: #000000; stroke-width: 0" />
		</symbol>
		<symbol class="symbol" id="symbol5" viewBox="0 0 20 9.19">
			<polygon points="20,0 20,9.19 9.19,9.19 0,4.595 9.19,0 " style="fill: #ff0000; stroke: #000000; stroke-width: 0" />
		</symbol>
		<symbol class="symbol" id="symbol6" viewBox="0 0 20 4.6">
			<polygon points="20,0 20,4.6 4.6,4.6 0,2.3 4.6,0 " style="fill: #0099ff; stroke: #000000; stroke-width: 0" />
		</symbol>
		<clipPath clipPathUnits="UserSpaceOnUse" id="clip_path_chr2" style="evenodd">
			<path d="M404.995 34.22 A5 5 90 0 0 399.995 39.22 L399.995 450.24 L409.995 463.11 L399.995 479.2 L399.995 1147.18 A5 5 90 0 0 404.995 1152.18 L
414.995 1152.18 A5 5 90 0 0 419.995 1147.18 L419.995 479.2 L409.995 463.11 L419.995 450.24 L419.995 39.22 A5 5 90 0 0 414.995 34.22 Z" />
		</clipPath>
		<symbol class="symbol" id="symbol7" viewBox="0 0 20 6.9">
			<polygon points="20,0 20,6.9 6.9,6.9 0,3.45 6.9,0 " style="fill: #99ff00; stroke: #000000; stroke-width: 0" />
		</symbol>
		<symbol class="symbol" id="symbol8" viewBox="0 0 20 6.9">
			<polygon points="20,0 20,6.9 6.9,6.9 0,3.45 6.9,0 " style="fill: #ff00ff; stroke: #000000; stroke-width: 0" />
		</symbol>
		<clipPath clipPathUnits="UserSpaceOnUse" id="clip_path_chr4" style="evenodd">
			<path d="M658.325 34.22 A5 5 90 0 0 653.325 39.22 L653.325 255.79 L663.325 265.9 L653.325 276.47 L653.325 907.94 A5 5 90 0 0 658.325 912.94 L
668.325 912.94 A5 5 90 0 0 673.325 907.94 L673.325 276.47 L663.325 265.9 L673.325 255.79 L673.325 39.22 A5 5 90 0 0 668.325 34.22 Z" />
		</clipPath>
		<symbol class="symbol" id="symbol9" viewBox="0 0 20 25.28">
			<polygon points="0,0 20,12.64 0,25.28 " style="fill: #cc00cc; stroke: #000000; stroke-width: 0" />
		</symbol>
		<symbol class="symbol" id="symbol10" viewBox="0 0 20 13.79">
			<polygon points="0,0 6.21,0 20,6.895 6.21,13.79 0,13.79 " style="fill: #00ff77; stroke: #000000; stroke-width: 0" />
		</symbol>
		<symbol class="symbol" id="symbol11" viewBox="0 0 20 24">
			<polygon points="10,2 12.2452,8.9098 19.5106,8.9098 13.6328,13.1804 15.8779,20.0902 10,15.8197 4.1221,20.0902 6.3672,13.1804 0.4894,8.9098 7.7548,8.9098 " style="fill: #ff0000; stroke: #000000; stroke-width: 0" />
		</symbol>
		<symbol class="symbol" id="symbol12" viewBox="0 0 20 24">
			<path d="M10 2 L1.3397 17 L18.6603 17 Z" style="fill: #00ffff; stroke: #000000; stroke-width: 0" />
			<path d="M10 22 L1.3397 7 L18.6603 7 Z" style="fill: #00ffff; stroke: #000000; stroke-width: 0" />
			<path d="M10 2 L1.3397 17 L18.6603 17 Z" style="fill: none; stroke: #000000; stroke-width: 0" />
			<path d="M10 22 L1.3397 7 L18.6603 7 Z" style="fill: none; stroke: #000000; stroke-width: 0" />
		</symbol>
		<style type="text/css"><![CDATA[svg {
fill: none;
stroke-width: 1;
stroke: #000000;
}

path {
stroke-width: 0;
}

line {
stroke: #000000;
stroke-width: 1;
}

text {
font-size: 10px;
font-weight: normal;
fill: #000000;
fill-opacity: 1;
font-style: normal;
font-family: Arial;
stroke-width: 0;
}

text.chr_label {
font-weight: bold;
font-size: 12px;
}

text.tick {
font-size: 10px;
}

]]></style>
	</defs>
	<g id="karyo3">
		<g class="chr1">
			<text style="font-weight:bold;font-size:14px;fill:#000000;font-style:normal;font-family:Arial;" x="152.775" y="30.22">1</text>
			<rect clip-path="url(#clip_path_chr1)" height="10.57" onmouseout="blockMouseOut(evt)" onmouseover="blockMouseOver(evt)" style="fill:#ffffff;stroke-width:0" width="20" x="146.665" y="34.22" />
			<rect clip-path="url(#clip_path_chr1)" height="14.25" onmouseout="blockMouseOut(evt)" onmouseover="blockMouseOver(evt)" style="fill:#c8c8c8;stroke-width:0" width="20" x="146.665" y="44.79" />
			<rect clip-path="url(#clip_path_chr1)" height="8.27" onmouseout="blockMouseOut(evt)" onmouseover="blockMouseOver(evt)" style="fill:#ffffff;stroke-width:0" width="20" x="146.665" y="59.04" />
			<rect clip-path="url(#clip_path_chr1)" height="9.19" onmouseout="blockMouseOut(evt)" onmouseover="blockMouseOver(evt)" style="fill:#c8c8c8;stroke-width:0" width="20" x="146.665" y="67.32" />
			<rect clip-path="url(#clip_path_chr1)" height="16.09" onmouseout="blockMouseOut(evt)" onmouseover="blockMouseOver(evt)" style="fill:#ffffff;stroke-width:0" width="20" x="146.665" y="76.51" />
			<rect clip-path="url(#clip_path_chr1)" height="16.09" onmouseout="blockMouseOut(evt)" onmouseover="blockMouseOver(evt)" style="fill:#c8c8c8;stroke-width:0" width="20" x="146.665" y="92.6" />
			<rect clip-path="url(#clip_path_chr1)" height="19.31" onmouseout="blockMouseOut(evt)" onmouseover="blockMouseOver(evt)" style="fill:#ffffff;stroke-width:0" width="20" x="146.665" y="108.69" />
			<rect clip-path="url(#clip_path_chr1)" height="16.09" onmouseout="blockMouseOut(evt)" onmouseover="blockMouseOver(evt)" style="fill:#c8c8c8;stroke-width:0" width="20" x="146.665" y="128" />
			<rect clip-path="url(#clip_path_chr1)" height="18.85" onmouseout="blockMouseOut(evt)" onmouseover="blockMouseOver(evt)" style="fill:#ffffff;stroke-width:0" width="20" x="146.665" y="144.09" />
			<rect clip-path="url(#clip_path_chr1)" height="10.11" onmouseout="blockMouseOut(evt)" onmouseover="blockMouseOver(evt)" style="fill:#c8c8c8;stroke-width:0" width="20" x="146.665" y="162.93" />
			<rect clip-path="url(#clip_path_chr1)" height="10.11" onmouseout="blockMouseOut(evt)" onmouseover="blockMouseOver(evt)" style="fill:#ffffff;stroke-width:0" width="20" x="146.665" y="173.05" />
			<rect clip-path="url(#clip_path_chr1)" height="10.11" onmouseout="blockMouseOut(evt)" onmouseover="blockMouseOver(evt)" style="fill:#c8c8c8;stroke-width:0" width="20" x="146.665" y="183.16" />
			<rect clip-path="url(#clip_path_chr1)" height="25.28" onmouseout="blockMouseOut(evt)" onmouseover="blockMouseOver(evt)" style="fill:#ffffff;stroke-width:0" width="20" x="146.665" y="193.27" />
			<rect clip-path="url(#clip_path_chr1)" height="18.39" onmouseout="blockMouseOut(evt)" onmouseover="blockMouseOver(evt)" style="fill:#c8c8c8;stroke-width:0" width="20" x="146.665" y="218.56" />
			<rect clip-path="url(#clip_path_chr1)" height="12.41" onmouseout="blockMouseOut(evt)" onmouseover="blockMouseOver(evt)" style="fill:#ffffff;stroke-width:0" width="20" x="146.665" y="236.94" />
			<rect clip-path="url(#clip_path_chr1)" height="17.93" onmouseout="blockMouseOut(evt)" onmouseover="blockMouseOver(evt)" style="fill:#828282;stroke-width:0" width="20" x="146.665" y="249.35" />
			<rect clip-path="url(#clip_path_chr1)" height="24.82" onmouseout="blockMouseOut(evt)" onmouseover="blockMouseOver(evt)" style="fill:#ffffff;stroke-width:0" width="20" x="146.665" y="267.28" />
			<rect clip-path="url(#clip_path_chr1)" height="13.33" onmouseout="blockMouseOut(evt)" onmouseover="blockMouseOver(evt)" style="fill:#c8c8c8;stroke-width:0" width="20" x="146.665" y="292.11" />
			<rect clip-path="url(#clip_path_chr1)" height="10.57" onmouseout="blockMouseOut(evt)" onmouseover="blockMouseOver(evt)" style="fill:#ffffff;stroke-width:0" width="20" x="146.665" y="305.44" />
			<rect clip-path="url(#clip_path_chr1)" height="34.94" onmouseout="blockMouseOut(evt)" onmouseover="blockMouseOver(evt)" style="fill:#c8c8c8;stroke-width:0" width="20" x="146.665" y="316.01" />
			<rect clip-path="url(#clip_path_chr1)" height="3.68" onmouseout="blockMouseOut(evt)" onmouseover="blockMouseOver(evt)" style="fill:#ffffff;stroke-width:0" width="20" x="146.665" y="350.95" />
			<rect clip-path="url(#clip_path_chr1)" height="69.87" onmouseout="blockMouseOut(evt)" onmouseover="blockMouseOver(evt)" style="fill:#000000;stroke-width:0" width="20" x="146.665" y="354.62" />
			<rect clip-path="url(#clip_path_chr1)" height="16.09" onmouseout="blockMouseOut(evt)" onmouseover="blockMouseOver(evt)" style="fill:#ffffff;stroke-width:0" width="20" x="146.665" y="424.5" />
			<rect clip-path="url(#clip_path_chr1)" height="16.55" onmouseout="blockMouseOut(evt)" onmouseover="blockMouseOver(evt)" style="fill:#828282;stroke-width:0" width="20" x="146.665" y="440.59" />
			<rect clip-path="url(#clip_path_chr1)" height="12.41" onmouseout="blockMouseOut(evt)" onmouseover="blockMouseOver(evt)" style="fill:#ffffff;stroke-width:0" width="20" x="146.665" y="457.13" />
			<rect clip-path="url(#clip_path_chr1)" height="22.98" onmouseout="blockMouseOut(evt)" onmouseover="blockMouseOver(evt)" style="fill:#828282;stroke-width:0" width="20" x="146.665" y="469.55" />
			<rect clip-path="url(#clip_path_chr1)" height="11.49" onmouseout="blockMouseOut(evt)" onmouseover="blockMouseOver(evt)" style="fill:#ffffff;stroke-width:0" width="20" x="146.665" y="492.53" />
			<rect clip-path="url(#clip_path_chr1)" height="22.98" onmouseout="blockMouseOut(evt)" onmouseover="blockMouseOver(evt)" style="fill:#000000;stroke-width:0" width="20" x="146.665" y="504.02" />
			<rect clip-path="url(#clip_path_chr1)" height="21.15" onmouseout="blockMouseOut(evt)" onmouseover="blockMouseOver(evt)" style="fill:#ffffff;stroke-width:0" width="20" x="146.665" y="527.01" />
			<rect clip-path="url(#clip_path_chr1)" height="19.77" onmouseout="blockMouseOut(evt)" onmouseover="blockMouseOver(evt)" style="fill:#c8c8c8;stroke-width:0" width="20" x="146.665" y="548.15" />
			<rect clip-path="url(#clip_path_chr1)" height="7.81" onmouseout="blockMouseOut(evt)" onmouseover="blockMouseOver(evt)" style="fill:#ffffff;stroke-width:0" width="20" x="146.665" y="567.92" />
			<rect clip-path="url(#clip_path_chr1)" height="12.87" onmouseout="blockMouseOut(evt)" onmouseover="blockMouseOver(evt)" style="fill:#c8c8c8;stroke-width:0" width="20" x="146.665" y="575.73" />
			<rect clip-path="url(#clip_path_chr1)" height="4.14" onmouseout="blockMouseOut(evt)" onmouseover="blockMouseOver(evt)" style="fill:#ffffff;stroke-width:0" width="20" x="146.665" y="588.61" />
			<rect clip-path="url(#clip_path_chr1)" height="16.09" onmouseout="blockMouseOut(evt)" onmouseover="blockMouseOver(evt)" style="fill:#d92f27;stroke-width:0" width="20" x="146.665" y="592.74" />
			<rect clip-path="url(#clip_path_chr1)" height="17.93" onmouseout="blockMouseOut(evt)" onmouseover="blockMouseOver(evt)" style="fill:#d92f27;stroke-width:0" width="20" x="146.665" y="608.83" />
			<rect clip-path="url(#clip_path_chr1)" height="62.98" onmouseout="blockMouseOut(evt)" onmouseover="blockMouseOver(evt)" style="fill:#dcdcdc;stroke-width:0" width="20" x="146.665" y="626.76" />
			<rect clip-path="url(#clip_path_chr1)" height="20.23" onmouseout="blockMouseOut(evt)" onmouseover="blockMouseOver(evt)" style="fill:#ffffff;stroke-width:0" width="20" x="146.665" y="689.74" />
			<rect clip-path="url(#clip_path_chr1)" height="15.17" onmouseout="blockMouseOut(evt)" onmouseover="blockMouseOver(evt)" style="fill:#c8c8c8;stroke-width:0" width="20" x="146.665" y="709.96" />
			<rect clip-path="url(#clip_path_chr1)" height="21.61" onmouseout="blockMouseOut(evt)" onmouseover="blockMouseOver(evt)" style="fill:#ffffff;stroke-width:0" width="20" x="146.665" y="725.13" />
			<rect clip-path="url(#clip_path_chr1)" height="6.9" onmouseout="blockMouseOut(evt)" onmouseover="blockMouseOver(evt)" style="fill:#c8c8c8;stroke-width:0" width="20" x="146.665" y="746.74" />
			<rect clip-path="url(#clip_path_chr1)" height="11.95" onmouseout="blockMouseOut(evt)" onmouseover="blockMouseOver(evt)" style="fill:#ffffff;stroke-width:0" width="20" x="146.665" y="753.63" />
			<rect clip-path="url(#clip_path_chr1)" height="6.44" onmouseout="blockMouseOut(evt)" onmouseover="blockMouseOver(evt)" style="fill:#c8c8c8;stroke-width:0" width="20" x="146.665" y="765.59" />
			<rect clip-path="url(#clip_path_chr1)" height="22.98" onmouseout="blockMouseOut(evt)" onmouseover="blockMouseOver(evt)" style="fill:#ffffff;stroke-width:0" width="20" x="146.665" y="772.02" />
			<rect clip-path="url(#clip_path_chr1)" height="7.81" onmouseout="blockMouseOut(evt)" onmouseover="blockMouseOver(evt)" style="fill:#c8c8c8;stroke-width:0" width="20" x="146.665" y="795.01" />
			<rect clip-path="url(#clip_path_chr1)" height="17.01" onmouseout="blockMouseOut(evt)" onmouseover="blockMouseOver(evt)" style="fill:#ffffff;stroke-width:0" width="20" x="146.665" y="802.82" />
			<rect clip-path="url(#clip_path_chr1)" height="9.19" onmouseout="blockMouseOut(evt)" onmouseover="blockMouseOver(evt)" style="fill:#828282;stroke-width:0" width="20" x="146.665" y="819.83" />
			<rect clip-path="url(#clip_path_chr1)" height="14.25" onmouseout="blockMouseOut(evt)" onmouseover="blockMouseOver(evt)" style="fill:#ffffff;stroke-width:0" width="20" x="146.665" y="829.02" />
			<rect clip-path="url(#clip_path_chr1)" height="19.77" onmouseout="blockMouseOut(evt)" onmouseover="blockMouseOver(evt)" style="fill:#c8c8c8;stroke-width:0" width="20" x="146.665" y="843.27" />
			<rect clip-path="url(#clip_path_chr1)" height="25.28" onmouseout="blockMouseOut(evt)" onmouseover="blockMouseOver(evt)" style="fill:#ffffff;stroke-width:0" width="20" x="146.665" y="863.04" />
			<rect clip-path="url(#clip_path_chr1)" height="22.98" onmouseout="blockMouseOut(evt)" onmouseover="blockMouseOver(evt)" style="fill:#000000;stroke-width:0" width="20" x="146.665" y="888.32" />
			<rect clip-path="url(#clip_path_chr1)" height="13.79" onmouseout="blockMouseOut(evt)" onmouseover="blockMouseOver(evt)" style="fill:#ffffff;stroke-width:0" width="20" x="146.665" y="911.31" />
			<rect clip-path="url(#clip_path_chr1)" height="22.52" onmouseout="blockMouseOut(evt)" onmouseover="blockMouseOver(evt)" style="fill:#000000;stroke-width:0" width="20" x="146.665" y="925.1" />
			<rect clip-path="url(#clip_path_chr1)" height="39.07" onmouseout="blockMouseOut(evt)" onmouseover="blockMouseOver(evt)" style="fill:#ffffff;stroke-width:0" width="20" x="146.665" y="947.62" />
			<rect clip-path="url(#clip_path_chr1)" height="19.77" onmouseout="blockMouseOut(evt)" onmouseover="blockMouseOver(evt)" style="fill:#c8c8c8;stroke-width:0" width="20" x="146.665" y="986.7" />
			<rect clip-path="url(#clip_path_chr1)" height="13.79" onmouseout="blockMouseOut(evt)" onmouseover="blockMouseOver(evt)" style="fill:#ffffff;stroke-width:0" width="20" x="146.665" y="1006.46" />
			<rect clip-path="url(#clip_path_chr1)" height="44.13" onmouseout="blockMouseOut(evt)" onmouseover="blockMouseOver(evt)" style="fill:#000000;stroke-width:0" width="20" x="146.665" y="1020.25" />
			<rect clip-path="url(#clip_path_chr1)" height="2.3" onmouseout="blockMouseOut(evt)" onmouseover="blockMouseOver(evt)" style="fill:#ffffff;stroke-width:0" width="20" x="146.665" y="1064.39" />
			<rect clip-path="url(#clip_path_chr1)" height="11.03" onmouseout="blockMouseOut(evt)" onmouseover="blockMouseOver(evt)" style="fill:#c8c8c8;stroke-width:0" width="20" x="146.665" y="1066.68" />
			<rect clip-path="url(#clip_path_chr1)" height="17.01" onmouseout="blockMouseOut(evt)" onmouseover="blockMouseOver(evt)" style="fill:#ffffff;stroke-width:0" width="20" x="146.665" y="1077.72" />
			<rect clip-path="url(#clip_path_chr1)" height="18.39" onmouseout="blockMouseOut(evt)" onmouseover="blockMouseOver(evt)" style="fill:#c8c8c8;stroke-width:0" width="20" x="146.665" y="1094.72" />
			<rect clip-path="url(#clip_path_chr1)" height="8.73" onmouseout="blockMouseOut(evt)" onmouseover="blockMouseOver(evt)" style="fill:#ffffff;stroke-width:0" width="20" x="146.665" y="1113.11" />
			<rect clip-path="url(#clip_path_chr1)" height="32.64" onmouseout="blockMouseOut(evt)" onmouseover="blockMouseOver(evt)" style="fill:#828282;stroke-width:0" width="20" x="146.665" y="1121.85" />
			<rect clip-path="url(#clip_path_chr1)" height="25.52" onmouseout="blockMouseOut(evt)" onmouseover="blockMouseOver(evt)" style="fill:#ffffff;stroke-width:0" width="20" x="146.665" y="1154.48" />
			<path d="M151.665 34.22 A5 5 90 0 0 146.665 39.22 L146.665 592.74 L156.665 608.83 L146.665 626.76 L146.665 1175 A5 5 90 0 0 151.665 1180 L
161.665 1180 A5 5 90 0 0 166.665 1175 L166.665 626.76 L156.665 608.83 L166.665 592.74 L166.665 39.22 A5 5 90 0 0 161.665 34.22 Z" style="stroke:#000;stroke-width:1;fill:none" />
			<g class="highlights">
				<use height="6.89534891870941" width="20" x="186.665" xlink:href="#symbol4" y="70.9951942331169" />
			</g>
			<g class="highlights">
				<use height="9.19379855827922" width="20" x="186.665" xlink:href="#symbol5" y="57.204496395698" />
			</g>
			<g class="highlights">
				<use height="4.59689927913961" width="20" x="186.665" xlink:href="#symbol6" y="38.8168992791396" />
			</g>
		</g>
		<g class="chr2">
			<text style="font-weight:bold;font-size:14px;fill:#000000;font-style:normal;font-family:Arial;" x="406.105" y="30.22">2</text>
			<rect clip-path="url(#clip_path_chr2)" height="20.23" onmouseout="blockMouseOut(evt)" onmouseover="blockMouseOver(evt)" style="fill:#ffffff;stroke-width:0" width="20" x="399.995" y="34.22" />
			<rect clip-path="url(#clip_path_chr2)" height="12.41" onmouseout="blockMouseOut(evt)" onmouseover="blockMouseOver(evt)" style="fill:#c8c8c8;stroke-width:0" width="20" x="399.995" y="54.45" />
			<rect clip-path="url(#clip_path_chr2)" height="23.44" onmouseout="blockMouseOut(evt)" onmouseover="blockMouseOver(evt)" style="fill:#ffffff;stroke-width:0" width="20" x="399.995" y="66.86" />
			<rect clip-path="url(#clip_path_chr2)" height="20.69" onmouseout="blockMouseOut(evt)" onmouseover="blockMouseOver(evt)" style="fill:#828282;stroke-width:0" width="20" x="399.995" y="90.3" />
			<rect clip-path="url(#clip_path_chr2)" height="11.49" onmouseout="blockMouseOut(evt)" onmouseover="blockMouseOver(evt)" style="fill:#ffffff;stroke-width:0" width="20" x="399.995" y="110.99" />
			<rect clip-path="url(#clip_path_chr2)" height="22.07" onmouseout="blockMouseOut(evt)" onmouseover="blockMouseOver(evt)" style="fill:#828282;stroke-width:0" width="20" x="399.995" y="122.48" />
			<rect clip-path="url(#clip_path_chr2)" height="17.93" onmouseout="blockMouseOut(evt)" onmouseover="blockMouseOver(evt)" style="fill:#ffffff;stroke-width:0" width="20" x="399.995" y="144.55" />
			<rect clip-path="url(#clip_path_chr2)" height="9.65" onmouseout="blockMouseOut(evt)" onmouseover="blockMouseOver(evt)" style="fill:#c8c8c8;stroke-width:0" width="20" x="399.995" y="162.47" />
			<rect clip-path="url(#clip_path_chr2)" height="9.65" onmouseout="blockMouseOut(evt)" onmouseover="blockMouseOver(evt)" style="fill:#ffffff;stroke-width:0" width="20" x="399.995" y="172.13" />
			<rect clip-path="url(#clip_path_chr2)" height="20.69" onmouseout="blockMouseOut(evt)" onmouseover="blockMouseOver(evt)" style="fill:#828282;stroke-width:0" width="20" x="399.995" y="181.78" />
			<rect clip-path="url(#clip_path_chr2)" height="9.19" onmouseout="blockMouseOut(evt)" onmouseover="blockMouseOver(evt)" style="fill:#ffffff;stroke-width:0" width="20" x="399.995" y="202.47" />
			<rect clip-path="url(#clip_path_chr2)" height="14.71" onmouseout="blockMouseOut(evt)" onmouseover="blockMouseOver(evt)" style="fill:#c8c8c8;stroke-width:0" width="20" x="399.995" y="211.66" />
			<rect clip-path="url(#clip_path_chr2)" height="27.58" onmouseout="blockMouseOut(evt)" onmouseover="blockMouseOver(evt)" style="fill:#ffffff;stroke-width:0" width="20" x="399.995" y="226.37" />
			<rect clip-path="url(#clip_path_chr2)" height="23.44" onmouseout="blockMouseOut(evt)" onmouseover="blockMouseOver(evt)" style="fill:#000000;stroke-width:0" width="20" x="399.995" y="253.95" />
			<rect clip-path="url(#clip_path_chr2)" height="9.65" onmouseout="blockMouseOut(evt)" onmouseover="blockMouseOver(evt)" style="fill:#ffffff;stroke-width:0" width="20" x="399.995" y="277.4" />
			<rect clip-path="url(#clip_path_chr2)" height="28.96" onmouseout="blockMouseOut(evt)" onmouseover="blockMouseOver(evt)" style="fill:#000000;stroke-width:0" width="20" x="399.995" y="287.05" />
			<rect clip-path="url(#clip_path_chr2)" height="12.87" onmouseout="blockMouseOut(evt)" onmouseover="blockMouseOver(evt)" style="fill:#ffffff;stroke-width:0" width="20" x="399.995" y="316.01" />
			<rect clip-path="url(#clip_path_chr2)" height="20.69" onmouseout="blockMouseOut(evt)" onmouseover="blockMouseOver(evt)" style="fill:#c8c8c8;stroke-width:0" width="20" x="399.995" y="328.88" />
			<rect clip-path="url(#clip_path_chr2)" height="13.33" onmouseout="blockMouseOut(evt)" onmouseover="blockMouseOver(evt)" style="fill:#ffffff;stroke-width:0" width="20" x="399.995" y="349.57" />
			<rect clip-path="url(#clip_path_chr2)" height="9.19" onmouseout="blockMouseOut(evt)" onmouseover="blockMouseOver(evt)" style="fill:#c8c8c8;stroke-width:0" width="20" x="399.995" y="362.9" />
			<rect clip-path="url(#clip_path_chr2)" height="6.9" onmouseout="blockMouseOut(evt)" onmouseover="blockMouseOver(evt)" style="fill:#ffffff;stroke-width:0" width="20" x="399.995" y="372.09" />
			<rect clip-path="url(#clip_path_chr2)" height="38.15" onmouseout="blockMouseOut(evt)" onmouseover="blockMouseOver(evt)" style="fill:#000000;stroke-width:0" width="20" x="399.995" y="378.99" />
			<rect clip-path="url(#clip_path_chr2)" height="33.1" onmouseout="blockMouseOut(evt)" onmouseover="blockMouseOver(evt)" style="fill:#ffffff;stroke-width:0" width="20" x="399.995" y="417.14" />
			<rect clip-path="url(#clip_path_chr2)" height="12.87" onmouseout="blockMouseOut(evt)" onmouseover="blockMouseOver(evt)" style="fill:#d92f27;stroke-width:0" width="20" x="399.995" y="450.24" />
			<rect clip-path="url(#clip_path_chr2)" height="16.09" onmouseout="blockMouseOut(evt)" onmouseover="blockMouseOver(evt)" style="fill:#d92f27;stroke-width:0" width="20" x="399.995" y="463.11" />
			<rect clip-path="url(#clip_path_chr2)" height="27.12" onmouseout="blockMouseOut(evt)" onmouseover="blockMouseOver(evt)" style="fill:#ffffff;stroke-width:0" width="20" x="399.995" y="479.2" />
			<rect clip-path="url(#clip_path_chr2)" height="15.17" onmouseout="blockMouseOut(evt)" onmouseover="blockMouseOver(evt)" style="fill:#c8c8c8;stroke-width:0" width="20" x="399.995" y="506.32" />
			<rect clip-path="url(#clip_path_chr2)" height="6.9" onmouseout="blockMouseOut(evt)" onmouseover="blockMouseOver(evt)" style="fill:#ffffff;stroke-width:0" width="20" x="399.995" y="521.49" />
			<rect clip-path="url(#clip_path_chr2)" height="12.41" onmouseout="blockMouseOut(evt)" onmouseover="blockMouseOver(evt)" style="fill:#c8c8c8;stroke-width:0" width="20" x="399.995" y="528.39" />
			<rect clip-path="url(#clip_path_chr2)" height="19.31" onmouseout="blockMouseOut(evt)" onmouseover="blockMouseOver(evt)" style="fill:#ffffff;stroke-width:0" width="20" x="399.995" y="540.8" />
			<rect clip-path="url(#clip_path_chr2)" height="20.23" onmouseout="blockMouseOut(evt)" onmouseover="blockMouseOver(evt)" style="fill:#c8c8c8;stroke-width:0" width="20" x="399.995" y="560.11" />
			<rect clip-path="url(#clip_path_chr2)" height="16.55" onmouseout="blockMouseOut(evt)" onmouseover="blockMouseOver(evt)" style="fill:#ffffff;stroke-width:0" width="20" x="399.995" y="580.33" />
			<rect clip-path="url(#clip_path_chr2)" height="34.48" onmouseout="blockMouseOut(evt)" onmouseover="blockMouseOver(evt)" style="fill:#c8c8c8;stroke-width:0" width="20" x="399.995" y="596.88" />
			<rect clip-path="url(#clip_path_chr2)" height="11.95" onmouseout="blockMouseOut(evt)" onmouseover="blockMouseOver(evt)" style="fill:#ffffff;stroke-width:0" width="20" x="399.995" y="631.36" />
			<rect clip-path="url(#clip_path_chr2)" height="11.95" onmouseout="blockMouseOut(evt)" onmouseover="blockMouseOver(evt)" style="fill:#c8c8c8;stroke-width:0" width="20" x="399.995" y="643.31" />
			<rect clip-path="url(#clip_path_chr2)" height="7.81" onmouseout="blockMouseOut(evt)" onmouseover="blockMouseOver(evt)" style="fill:#ffffff;stroke-width:0" width="20" x="399.995" y="655.26" />
			<rect clip-path="url(#clip_path_chr2)" height="24.82" onmouseout="blockMouseOut(evt)" onmouseover="blockMouseOver(evt)" style="fill:#000000;stroke-width:0" width="20" x="399.995" y="663.08" />
			<rect clip-path="url(#clip_path_chr2)" height="8.73" onmouseout="blockMouseOut(evt)" onmouseover="blockMouseOver(evt)" style="fill:#ffffff;stroke-width:0" width="20" x="399.995" y="687.9" />
			<rect clip-path="url(#clip_path_chr2)" height="21.15" onmouseout="blockMouseOut(evt)" onmouseover="blockMouseOver(evt)" style="fill:#000000;stroke-width:0" width="20" x="399.995" y="696.63" />
			<rect clip-path="url(#clip_path_chr2)" height="5.52" onmouseout="blockMouseOut(evt)" onmouseover="blockMouseOver(evt)" style="fill:#ffffff;stroke-width:0" width="20" x="399.995" y="717.78" />
			<rect clip-path="url(#clip_path_chr2)" height="2.76" onmouseout="blockMouseOut(evt)" onmouseover="blockMouseOver(evt)" style="fill:#c8c8c8;stroke-width:0" width="20" x="399.995" y="723.3" />
			<rect clip-path="url(#clip_path_chr2)" height="20.23" onmouseout="blockMouseOut(evt)" onmouseover="blockMouseOver(evt)" style="fill:#ffffff;stroke-width:0" width="20" x="399.995" y="726.05" />
			<rect clip-path="url(#clip_path_chr2)" height="22.52" onmouseout="blockMouseOut(evt)" onmouseover="blockMouseOver(evt)" style="fill:#828282;stroke-width:0" width="20" x="399.995" y="746.28" />
			<rect clip-path="url(#clip_path_chr2)" height="17.93" onmouseout="blockMouseOut(evt)" onmouseover="blockMouseOver(evt)" style="fill:#ffffff;stroke-width:0" width="20" x="399.995" y="768.8" />
			<rect clip-path="url(#clip_path_chr2)" height="27.58" onmouseout="blockMouseOut(evt)" onmouseover="blockMouseOver(evt)" style="fill:#828282;stroke-width:0" width="20" x="399.995" y="786.73" />
			<rect clip-path="url(#clip_path_chr2)" height="38.15" onmouseout="blockMouseOut(evt)" onmouseover="blockMouseOver(evt)" style="fill:#ffffff;stroke-width:0" width="20" x="399.995" y="814.31" />
			<rect clip-path="url(#clip_path_chr2)" height="11.95" onmouseout="blockMouseOut(evt)" onmouseover="blockMouseOver(evt)" style="fill:#c8c8c8;stroke-width:0" width="20" x="399.995" y="852.47" />
			<rect clip-path="url(#clip_path_chr2)" height="11.03" onmouseout="blockMouseOut(evt)" onmouseover="blockMouseOver(evt)" style="fill:#ffffff;stroke-width:0" width="20" x="399.995" y="864.42" />
			<rect clip-path="url(#clip_path_chr2)" height="29.42" onmouseout="blockMouseOut(evt)" onmouseover="blockMouseOver(evt)" style="fill:#828282;stroke-width:0" width="20" x="399.995" y="875.45" />
			<rect clip-path="url(#clip_path_chr2)" height="11.49" onmouseout="blockMouseOut(evt)" onmouseover="blockMouseOver(evt)" style="fill:#ffffff;stroke-width:0" width="20" x="399.995" y="904.87" />
			<rect clip-path="url(#clip_path_chr2)" height="25.28" onmouseout="blockMouseOut(evt)" onmouseover="blockMouseOver(evt)" style="fill:#828282;stroke-width:0" width="20" x="399.995" y="916.36" />
			<rect clip-path="url(#clip_path_chr2)" height="27.12" onmouseout="blockMouseOut(evt)" onmouseover="blockMouseOver(evt)" style="fill:#ffffff;stroke-width:0" width="20" x="399.995" y="941.65" />
			<rect clip-path="url(#clip_path_chr2)" height="7.36" onmouseout="blockMouseOut(evt)" onmouseover="blockMouseOver(evt)" style="fill:#c8c8c8;stroke-width:0" width="20" x="399.995" y="968.77" />
			<rect clip-path="url(#clip_path_chr2)" height="18.85" onmouseout="blockMouseOut(evt)" onmouseover="blockMouseOver(evt)" style="fill:#ffffff;stroke-width:0" width="20" x="399.995" y="976.12" />
			<rect clip-path="url(#clip_path_chr2)" height="28.96" onmouseout="blockMouseOut(evt)" onmouseover="blockMouseOver(evt)" style="fill:#000000;stroke-width:0" width="20" x="399.995" y="994.97" />
			<rect clip-path="url(#clip_path_chr2)" height="28.5" onmouseout="blockMouseOut(evt)" onmouseover="blockMouseOver(evt)" style="fill:#ffffff;stroke-width:0" width="20" x="399.995" y="1023.93" />
			<rect clip-path="url(#clip_path_chr2)" height="17.01" onmouseout="blockMouseOut(evt)" onmouseover="blockMouseOver(evt)" style="fill:#828282;stroke-width:0" width="20" x="399.995" y="1052.43" />
			<rect clip-path="url(#clip_path_chr2)" height="4.14" onmouseout="blockMouseOut(evt)" onmouseover="blockMouseOver(evt)" style="fill:#ffffff;stroke-width:0" width="20" x="399.995" y="1069.44" />
			<rect clip-path="url(#clip_path_chr2)" height="22.52" onmouseout="blockMouseOut(evt)" onmouseover="blockMouseOver(evt)" style="fill:#000000;stroke-width:0" width="20" x="399.995" y="1073.58" />
			<rect clip-path="url(#clip_path_chr2)" height="21.15" onmouseout="blockMouseOut(evt)" onmouseover="blockMouseOver(evt)" style="fill:#ffffff;stroke-width:0" width="20" x="399.995" y="1096.1" />
			<rect clip-path="url(#clip_path_chr2)" height="7.81" onmouseout="blockMouseOut(evt)" onmouseover="blockMouseOver(evt)" style="fill:#c8c8c8;stroke-width:0" width="20" x="399.995" y="1117.25" />
			<rect clip-path="url(#clip_path_chr2)" height="27.12" onmouseout="blockMouseOut(evt)" onmouseover="blockMouseOver(evt)" style="fill:#ffffff;stroke-width:0" width="20" x="399.995" y="1125.06" />
			<path d="M404.995 34.22 A5 5 90 0 0 399.995 39.22 L399.995 450.24 L409.995 463.11 L399.995 479.2 L399.995 1147.18 A5 5 90 0 0 404.995 1152.18 L
414.995 1152.18 A5 5 90 0 0 419.995 1147.18 L419.995 479.2 L409.995 463.11 L419.995 450.24 L419.995 39.22 A5 5 90 0 0 414.995 34.22 Z" style="stroke:#000;stroke-width:1;fill:none" />
			<g class="highlights">
				<use height="6.89534891870941" width="20" x="439.995" xlink:href="#symbol7" y="38.8168992791396" />
			</g>
			<g class="highlights">
				<use height="6.89534891870941" width="20" x="439.995" xlink:href="#symbol8" y="48.0106978374188" />
			</g>
		</g>
		<g class="chr4">
			<text style="font-weight:bold;font-size:14px;fill:#000000;font-style:normal;font-family:Arial;" x="659.435" y="30.22">4</text>
			<rect clip-path="url(#clip_path_chr4)" height="20.69" onmouseout="blockMouseOut(evt)" onmouseover="blockMouseOver(evt)" style="fill:#ffffff;stroke-width:0" width="20" x="653.325" y="34.22" />
			<rect clip-path="url(#clip_path_chr4)" height="6.9" onmouseout="blockMouseOut(evt)" onmouseover="blockMouseOver(evt)" style="fill:#c8c8c8;stroke-width:0" width="20" x="653.325" y="54.91" />
			<rect clip-path="url(#clip_path_chr4)" height="24.36" onmouseout="blockMouseOut(evt)" onmouseover="blockMouseOver(evt)" style="fill:#ffffff;stroke-width:0" width="20" x="653.325" y="61.8" />
			<rect clip-path="url(#clip_path_chr4)" height="17.93" onmouseout="blockMouseOut(evt)" onmouseover="blockMouseOver(evt)" style="fill:#c8c8c8;stroke-width:0" width="20" x="653.325" y="86.16" />
			<rect clip-path="url(#clip_path_chr4)" height="11.95" onmouseout="blockMouseOut(evt)" onmouseover="blockMouseOver(evt)" style="fill:#ffffff;stroke-width:0" width="20" x="653.325" y="104.09" />
			<rect clip-path="url(#clip_path_chr4)" height="16.09" onmouseout="blockMouseOut(evt)" onmouseover="blockMouseOver(evt)" style="fill:#828282;stroke-width:0" width="20" x="653.325" y="116.04" />
			<rect clip-path="url(#clip_path_chr4)" height="29.42" onmouseout="blockMouseOut(evt)" onmouseover="blockMouseOver(evt)" style="fill:#ffffff;stroke-width:0" width="20" x="653.325" y="132.13" />
			<rect clip-path="url(#clip_path_chr4)" height="37.23" onmouseout="blockMouseOut(evt)" onmouseover="blockMouseOver(evt)" style="fill:#000000;stroke-width:0" width="20" x="653.325" y="161.55" />
			<rect clip-path="url(#clip_path_chr4)" height="24.82" onmouseout="blockMouseOut(evt)" onmouseover="blockMouseOver(evt)" style="fill:#ffffff;stroke-width:0" width="20" x="653.325" y="198.79" />
			<rect clip-path="url(#clip_path_chr4)" height="15.63" onmouseout="blockMouseOut(evt)" onmouseover="blockMouseOver(evt)" style="fill:#c8c8c8;stroke-width:0" width="20" x="653.325" y="223.61" />
			<rect clip-path="url(#clip_path_chr4)" height="16.55" onmouseout="blockMouseOut(evt)" onmouseover="blockMouseOver(evt)" style="fill:#ffffff;stroke-width:0" width="20" x="653.325" y="239.24" />
			<rect clip-path="url(#clip_path_chr4)" height="10.11" onmouseout="blockMouseOut(evt)" onmouseover="blockMouseOver(evt)" style="fill:#d92f27;stroke-width:0" width="20" x="653.325" y="255.79" />
			<rect clip-path="url(#clip_path_chr4)" height="10.57" onmouseout="blockMouseOut(evt)" onmouseover="blockMouseOver(evt)" style="fill:#d92f27;stroke-width:0" width="20" x="653.325" y="265.9" />
			<rect clip-path="url(#clip_path_chr4)" height="31.26" onmouseout="blockMouseOut(evt)" onmouseover="blockMouseOver(evt)" style="fill:#ffffff;stroke-width:0" width="20" x="653.325" y="276.48" />
			<rect clip-path="url(#clip_path_chr4)" height="32.64" onmouseout="blockMouseOut(evt)" onmouseover="blockMouseOver(evt)" style="fill:#000000;stroke-width:0" width="20" x="653.325" y="307.74" />
			<rect clip-path="url(#clip_path_chr4)" height="17.93" onmouseout="blockMouseOut(evt)" onmouseover="blockMouseOver(evt)" style="fill:#ffffff;stroke-width:0" width="20" x="653.325" y="340.37" />
			<rect clip-path="url(#clip_path_chr4)" height="26.66" onmouseout="blockMouseOut(evt)" onmouseover="blockMouseOver(evt)" style="fill:#828282;stroke-width:0" width="20" x="653.325" y="358.3" />
			<rect clip-path="url(#clip_path_chr4)" height="11.95" onmouseout="blockMouseOut(evt)" onmouseover="blockMouseOver(evt)" style="fill:#ffffff;stroke-width:0" width="20" x="653.325" y="384.96" />
			<rect clip-path="url(#clip_path_chr4)" height="16.09" onmouseout="blockMouseOut(evt)" onmouseover="blockMouseOver(evt)" style="fill:#c8c8c8;stroke-width:0" width="20" x="653.325" y="396.92" />
			<rect clip-path="url(#clip_path_chr4)" height="7.81" onmouseout="blockMouseOut(evt)" onmouseover="blockMouseOver(evt)" style="fill:#ffffff;stroke-width:0" width="20" x="653.325" y="413" />
			<rect clip-path="url(#clip_path_chr4)" height="12.87" onmouseout="blockMouseOut(evt)" onmouseover="blockMouseOver(evt)" style="fill:#c8c8c8;stroke-width:0" width="20" x="653.325" y="420.82" />
			<rect clip-path="url(#clip_path_chr4)" height="5.06" onmouseout="blockMouseOut(evt)" onmouseover="blockMouseOver(evt)" style="fill:#ffffff;stroke-width:0" width="20" x="653.325" y="433.69" />
			<rect clip-path="url(#clip_path_chr4)" height="26.2" onmouseout="blockMouseOut(evt)" onmouseover="blockMouseOver(evt)" style="fill:#828282;stroke-width:0" width="20" x="653.325" y="438.75" />
			<rect clip-path="url(#clip_path_chr4)" height="6.44" onmouseout="blockMouseOut(evt)" onmouseover="blockMouseOver(evt)" style="fill:#ffffff;stroke-width:0" width="20" x="653.325" y="464.95" />
			<rect clip-path="url(#clip_path_chr4)" height="17.01" onmouseout="blockMouseOut(evt)" onmouseover="blockMouseOver(evt)" style="fill:#828282;stroke-width:0" width="20" x="653.325" y="471.39" />
			<rect clip-path="url(#clip_path_chr4)" height="10.57" onmouseout="blockMouseOut(evt)" onmouseover="blockMouseOver(evt)" style="fill:#ffffff;stroke-width:0" width="20" x="653.325" y="488.39" />
			<rect clip-path="url(#clip_path_chr4)" height="30.34" onmouseout="blockMouseOut(evt)" onmouseover="blockMouseOver(evt)" style="fill:#c8c8c8;stroke-width:0" width="20" x="653.325" y="498.97" />
			<rect clip-path="url(#clip_path_chr4)" height="29.42" onmouseout="blockMouseOut(evt)" onmouseover="blockMouseOver(evt)" style="fill:#ffffff;stroke-width:0" width="20" x="653.325" y="529.31" />
			<rect clip-path="url(#clip_path_chr4)" height="30.8" onmouseout="blockMouseOut(evt)" onmouseover="blockMouseOver(evt)" style="fill:#828282;stroke-width:0" width="20" x="653.325" y="558.73" />
			<rect clip-path="url(#clip_path_chr4)" height="13.79" onmouseout="blockMouseOut(evt)" onmouseover="blockMouseOver(evt)" style="fill:#ffffff;stroke-width:0" width="20" x="653.325" y="589.53" />
			<rect clip-path="url(#clip_path_chr4)" height="22.98" onmouseout="blockMouseOut(evt)" onmouseover="blockMouseOver(evt)" style="fill:#c8c8c8;stroke-width:0" width="20" x="653.325" y="603.32" />
			<rect clip-path="url(#clip_path_chr4)" height="10.57" onmouseout="blockMouseOut(evt)" onmouseover="blockMouseOver(evt)" style="fill:#ffffff;stroke-width:0" width="20" x="653.325" y="626.3" />
			<rect clip-path="url(#clip_path_chr4)" height="38.61" onmouseout="blockMouseOut(evt)" onmouseover="blockMouseOver(evt)" style="fill:#000000;stroke-width:0" width="20" x="653.325" y="636.87" />
			<rect clip-path="url(#clip_path_chr4)" height="9.19" onmouseout="blockMouseOut(evt)" onmouseover="blockMouseOver(evt)" style="fill:#ffffff;stroke-width:0" width="20" x="653.325" y="675.49" />
			<rect clip-path="url(#clip_path_chr4)" height="24.36" onmouseout="blockMouseOut(evt)" onmouseover="blockMouseOver(evt)" style="fill:#c8c8c8;stroke-width:0" width="20" x="653.325" y="684.68" />
			<rect clip-path="url(#clip_path_chr4)" height="7.81" onmouseout="blockMouseOut(evt)" onmouseover="blockMouseOver(evt)" style="fill:#ffffff;stroke-width:0" width="20" x="653.325" y="709.04" />
			<rect clip-path="url(#clip_path_chr4)" height="11.95" onmouseout="blockMouseOut(evt)" onmouseover="blockMouseOver(evt)" style="fill:#c8c8c8;stroke-width:0" width="20" x="653.325" y="716.86" />
			<rect clip-path="url(#clip_path_chr4)" height="20.69" onmouseout="blockMouseOut(evt)" onmouseover="blockMouseOver(evt)" style="fill:#ffffff;stroke-width:0" width="20" x="653.325" y="728.81" />
			<rect clip-path="url(#clip_path_chr4)" height="28.5" onmouseout="blockMouseOut(evt)" onmouseover="blockMouseOver(evt)" style="fill:#000000;stroke-width:0" width="20" x="653.325" y="749.5" />
			<rect clip-path="url(#clip_path_chr4)" height="12.41" onmouseout="blockMouseOut(evt)" onmouseover="blockMouseOver(evt)" style="fill:#ffffff;stroke-width:0" width="20" x="653.325" y="778" />
			<rect clip-path="url(#clip_path_chr4)" height="25.74" onmouseout="blockMouseOut(evt)" onmouseover="blockMouseOver(evt)" style="fill:#000000;stroke-width:0" width="20" x="653.325" y="790.41" />
			<rect clip-path="url(#clip_path_chr4)" height="8.27" onmouseout="blockMouseOut(evt)" onmouseover="blockMouseOver(evt)" style="fill:#ffffff;stroke-width:0" width="20" x="653.325" y="816.15" />
			<rect clip-path="url(#clip_path_chr4)" height="20.23" onmouseout="blockMouseOut(evt)" onmouseover="blockMouseOver(evt)" style="fill:#828282;stroke-width:0" width="20" x="653.325" y="824.43" />
			<rect clip-path="url(#clip_path_chr4)" height="5.52" onmouseout="blockMouseOut(evt)" onmouseover="blockMouseOver(evt)" style="fill:#ffffff;stroke-width:0" width="20" x="653.325" y="844.65" />
			<rect clip-path="url(#clip_path_chr4)" height="26.2" onmouseout="blockMouseOut(evt)" onmouseover="blockMouseOver(evt)" style="fill:#000000;stroke-width:0" width="20" x="653.325" y="850.17" />
			<rect clip-path="url(#clip_path_chr4)" height="17.93" onmouseout="blockMouseOut(evt)" onmouseover="blockMouseOver(evt)" style="fill:#ffffff;stroke-width:0" width="20" x="653.325" y="876.37" />
			<rect clip-path="url(#clip_path_chr4)" height="18.64" onmouseout="blockMouseOut(evt)" onmouseover="blockMouseOver(evt)" style="fill:#c8c8c8;stroke-width:0" width="20" x="653.325" y="894.3" />
			<path d="M658.325 34.22 A5 5 90 0 0 653.325 39.22 L653.325 255.79 L663.325 265.9 L653.325 276.47 L653.325 907.94 A5 5 90 0 0 658.325 912.94 L
668.325 912.94 A5 5 90 0 0 673.325 907.94 L673.325 276.47 L663.325 265.9 L673.325 255.79 L673.325 39.22 A5 5 90 0 0 668.325 34.22 Z" style="stroke:#000;stroke-width:1;fill:none" />
			<g class="highlights">
				<use height="25.2829460352679" width="20" x="693.325" xlink:href="#symbol9" y="41.1153489187094" />
			</g>
			<g class="highlights">
				<use height="13.7906978374188" width="20" x="693.325" xlink:href="#symbol10" y="84.7858920705357" />
			</g>
			<g class="highlights">
				<use height="24" width="20" x="693.325" xlink:href="#symbol11" y="104.964187024513" />
			</g>
			<g class="highlights">
				<use height="24" width="20" x="693.325" xlink:href="#symbol12" y="100.367287745373" />
			</g>
		</g>
		<g class="plots">
			<g class="plot">
				<g class="chr2_plot">
					<line style="stroke-width:1;stroke:red;" x1="419.995" x2="439.995" y1="36.52" y2="36.52" />
					<line style="stroke-width:1;stroke:red;" x1="439.995" x2="459.995" y1="36.52" y2="36.52" />
					<text style="fill:#fb6a4a;font-size:16px;font-weight:normal;font-family:Arial;font-style:normal;" x="463.995" y="42.36">label1</text>
					<line style="stroke-width:1;stroke:red;" x1="419.995" x2="439.995" y1="36.98" y2="36.98" />
					<line style="stroke-width:1;stroke:red;" x1="439.995" x2="459.995" y1="36.98" y2="52.2" />
					<text style="font-family:Arial;font-style:normal;fill:#fb6a4a;font-size:16px;font-weight:normal;" x="463.995" y="58.04">test</text>
					<line style="stroke-width:1;stroke:red;" x1="419.995" x2="439.995" y1="41.12" y2="41.12" />
					<line style="stroke-width:1;stroke:red;" x1="439.995" x2="459.995" y1="41.12" y2="67.88" />
					<text style="font-weight:normal;font-size:16px;fill:#fb6a4a;font-style:normal;font-family:Arial;" x="463.995" y="73.72">label2</text>
					<line style="stroke-width:1;stroke:red;" x1="419.995" x2="439.995" y1="45.71" y2="45.71" />
					<line style="stroke-width:1;stroke:red;" x1="439.995" x2="459.995" y1="45.71" y2="83.56" />
					<text style="font-family:Arial;font-style:normal;fill:#fb6a4a;font-size:16px;font-weight:normal;" x="463.995" y="89.4">label3</text>
					<line style="stroke-width:1;stroke:red;" x1="419.995" x2="439.995" y1="50.31" y2="50.31" />
					<line style="stroke-width:1;stroke:red;" x1="439.995" x2="459.995" y1="50.31" y2="99.24" />
					<text style="font-family:Arial;font-style:normal;fill:#fb6a4a;font-size:16px;font-weight:normal;" x="463.995" y="105.08">label4</text>
					<line style="stroke-width:1;stroke:red;" x1="419.995" x2="439.995" y1="54.91" y2="54.91" />
					<line style="stroke-width:1;stroke:red;" x1="439.995" x2="459.995" y1="54.91" y2="114.92" />
					<text style="fill:#fb6a4a;font-size:16px;font-weight:normal;font-family:Arial;font-style:normal;" x="463.995" y="120.76">label5</text>
					<line style="stroke-width:1;stroke:red;" x1="419.995" x2="439.995" y1="59.5" y2="59.5" />
					<line style="stroke-width:1;stroke:red;" x1="439.995" x2="459.995" y1="59.5" y2="130.6" />
					<text style="font-weight:normal;font-size:16px;fill:#fb6a4a;font-style:normal;font-family:Arial;" x="463.995" y="136.44">label6</text>
					<line style="stroke-width:1;stroke:red;" x1="419.995" x2="439.995" y1="64.1" y2="64.1" />
					<line style="stroke-width:1;stroke:red;" x1="439.995" x2="459.995" y1="64.1" y2="146.28" />
					<text style="font-style:normal;font-family:Arial;font-size:16px;font-weight:normal;fill:#fb6a4a;" x="463.995" y="152.12">label7</text>
					<line style="stroke-width:1;stroke:red;" x1="419.995" x2="439.995" y1="68.7" y2="68.7" />
					<line style="stroke-width:1;stroke:red;" x1="439.995" x2="459.995" y1="68.7" y2="161.96" />
					<text style="font-style:normal;font-family:Arial;font-size:16px;font-weight:normal;fill:#fb6a4a;" x="463.995" y="167.8">label8</text>
					<line style="stroke-width:1;stroke:red;" x1="419.995" x2="439.995" y1="73.29" y2="73.29" />
					<line style="stroke-width:1;stroke:red;" x1="439.995" x2="459.995" y1="73.29" y2="177.64" />
					<text style="font-family:Arial;font-style:normal;fill:#fb6a4a;font-size:16px;font-weight:normal;" x="463.995" y="183.48">label9</text>
					<line style="stroke-width:1;stroke:red;" x1="419.995" x2="439.995" y1="77.89" y2="77.89" />
					<line style="stroke-width:1;stroke:red;" x1="439.995" x2="459.995" y1="77.89" y2="193.32" />
					<text style="fill:#fb6a4a;font-weight:normal;font-size:16px;font-family:Arial;font-style:normal;" x="463.995" y="199.16">label10</text>
				</g>
				<g class="chr4_plot">
					<line style="stroke-width:1;stroke:red;" x1="673.325" x2="693.325" y1="36.52" y2="36.52" />
					<line style="stroke-width:1;stroke:red;" x1="693.325" x2="713.325" y1="36.52" y2="36.52" />
					<text style="font-family:Arial;font-style:normal;fill:#fb6a4a;font-weight:normal;font-size:16px;" x="717.325" y="42.36">label1</text>
					<line style="stroke-width:1;stroke:red;" x1="673.325" x2="693.325" y1="36.75" y2="36.75" />
					<line style="stroke-width:1;stroke:red;" x1="693.325" x2="713.325" y1="36.75" y2="52.2" />
					<text style="font-family:Arial;font-style:normal;fill:#fb6a4a;font-weight:normal;font-size:16px;" x="717.325" y="58.04">label1</text>
				</g>
			</g>
			<g class="plot">
				<g class="chr1_plot">
					<g class="axis" transform="translate(186.665,34.22)">
						<g  />
					</g>
					<rect height="4.6" style="stroke:#000000;stroke-width:0;fill:#ff0000" width="16.1538" x="186.665" y="34.22" />
					<rect height="4.59" style="stroke:#000000;stroke-width:0;fill:#ff0000" width="27.6923" x="186.665" y="38.82" />
					<rect height="4.59999999999999" style="stroke:#000000;stroke-width:0;fill:#00ff00" width="96.9231" x="186.665" y="43.41" />
					<rect height="4.6" style="stroke:#000000;stroke-width:0;fill:#ffff00" width="50.7692" x="186.665" y="48.01" />
					<rect height="4.59" style="stroke:#000000;stroke-width:0;fill:#ffff00" width="68.0769" x="186.665" y="52.61" />
					<rect height="4.6" style="stroke:#000000;stroke-width:0;fill:#ffff00" width="73.8462" x="186.665" y="57.2" />
					<rect height="4.6" style="stroke:#000000;stroke-width:0;fill:#ff0000" width="45" x="186.665" y="61.8" />
					<rect height="4.59999999999999" style="stroke:#000000;stroke-width:0;fill:#00ff00" width="85.3846" x="186.665" y="66.4" />
					<rect height="4.59" style="stroke:#000000;stroke-width:0;fill:#ff0000" width="32.3077" x="186.665" y="71" />
					<rect height="4.59999999999999" style="stroke:#000000;stroke-width:0;fill:#00ff00" width="96.9231" x="186.665" y="75.59" />
				</g>
			</g>
		</g>
	</g>
</svg>